<svg width="315" height="53" viewBox="0 0 315 53" fill="none" xmlns="http://www.w3.org/2000/svg">
<path d="M105 17H109.462V36.5146H105V17Z" fill="#283146"/>
<path d="M109.296 17H115.127V20.4683H109.296V17ZM109.296 33.0473H115.127V36.5156H109.296V33.0473ZM109.296 24.8237H115.127V27.8315H109.296V24.8237Z" fill="#283146"/>
<path d="M115.127 36.5156C115.127 36.5156 121.309 36.7109 121.309 30.755C121.309 30.755 121.579 25.9092 117.665 25.9092C117.665 25.9092 120.635 25.6882 120.635 22.1963C120.635 18.7043 118.206 17 115.128 17C112.051 17 112.213 18.7341 112.213 18.7341L114.399 20.4683H115.128C115.128 20.4683 116.505 20.4683 116.505 22.4985C116.505 24.5287 115.695 24.8227 114.778 24.8227C113.86 24.8227 113.509 26.3266 113.509 26.3266L115.128 27.8305C115.128 27.8305 117.179 27.8037 117.179 30.5103C117.179 33.2169 115.02 33.0452 114.48 33.0452C113.941 33.0452 114.102 34.436 114.102 34.436L115.127 36.5156ZM129.554 21.965C122.07 21.965 122.077 29.4628 122.077 29.4628C122.077 29.4628 121.564 36.9226 129.554 36.9226C129.554 36.9226 136.213 37.304 136.213 31.7336H132.788C132.788 31.7336 132.902 33.8316 129.668 33.8316C129.668 33.8316 126.243 34.0608 126.243 30.4363H136.327C136.328 30.4363 137.431 21.965 129.554 21.965ZM126.205 27.8315C126.205 27.8315 126.624 24.8237 129.63 24.8237C132.637 24.8237 132.598 27.8315 132.598 27.8315H126.205ZM203.737 21.965C196.253 21.965 196.26 29.4628 196.26 29.4628C196.26 29.4628 195.747 36.9226 203.738 36.9226C203.738 36.9226 210.397 37.304 210.397 31.7336H206.973C206.973 31.7336 207.086 33.8316 203.852 33.8316C203.852 33.8316 200.427 34.0608 200.427 30.4363H210.512C210.51 30.4363 211.613 21.965 203.737 21.965ZM200.388 27.8315C200.388 27.8315 200.807 24.8237 203.813 24.8237C206.819 24.8237 206.781 27.8315 206.781 27.8315H200.388ZM125.368 18.1492H133.397V20.5526H125.368V18.1492ZM137.849 17H141.806V36.5053H137.849V17ZM150.901 26.5825H147.02V36.5053H150.901V26.5825Z" fill="#283146"/>
<path d="M146.969 26.5824C146.969 26.5824 146.969 25.0939 144.507 25.0939C142.224 25.0939 141.806 26.8877 141.806 28.6044C141.806 30.321 141.539 24.8266 141.539 24.8266C141.539 24.8266 142.795 21.9648 146.144 21.9648C149.493 21.9648 150.9 24.3918 150.9 26.7756C150.9 29.1594 149.554 28.0081 149.554 28.0081L146.97 27.3934V26.5814L146.969 26.5824ZM167.273 22.1735H171.23V36.5052H167.273V22.1735ZM180.325 26.5824H176.444V36.5052H180.325V26.5824Z" fill="#283146"/>
<path d="M176.394 26.5824C176.394 26.5824 176.394 25.0939 173.932 25.0939C171.649 25.0939 171.23 26.8877 171.23 28.6044C171.23 30.321 170.964 24.8266 170.964 24.8266C170.964 24.8266 172.22 21.9648 175.569 21.9648C178.916 21.9648 180.325 24.3918 180.325 26.7756C180.325 29.1594 178.979 28.0081 178.979 28.0081L176.394 27.3934V26.5824ZM165.948 36.5052C165.948 36.5052 165.212 36.1258 165.212 33.8089V25.4516C165.212 25.4516 165.681 21.9659 159.417 21.9659C153.155 21.9659 152.753 25.1134 152.719 26.9936H156.906C156.906 26.9936 156.739 24.507 159.385 24.507C159.385 24.507 161.628 24.3281 161.628 26.5834C161.628 26.5834 161.628 28.0657 159.585 28.2004C157.542 28.335 152.351 28.3021 152.351 32.5332C152.351 32.5332 152.217 36.9996 156.99 36.9996C156.99 36.9996 160.256 37.0664 161.628 35.0516V36.5052H165.948ZM161.595 32.0963C161.595 32.0963 161.259 34.2457 158.413 34.2457C158.413 34.2457 156.068 34.3475 156.068 32.3317C156.068 32.3317 155.867 30.7867 159.15 30.283C160.456 30.1823 161.059 30.0918 161.595 29.4822V32.0963ZM195.639 30.982H191.542C191.542 30.982 191.643 33.8726 188.963 33.8726C186.283 33.8726 185.575 30.9923 185.575 29.3404C185.575 27.6864 186.131 24.8976 189.014 24.8976C191.896 24.8976 191.795 27.3821 191.795 27.3821H195.385C195.385 27.3821 195.638 21.9659 189.065 21.9659C182.491 21.9659 181.784 27.304 181.784 29.4473C181.784 31.5905 182.896 36.9996 188.964 36.9996C195.032 36.9986 195.639 32.0973 195.639 30.982Z" fill="#283146"/>
</svg>
