<svg width="378" height="73" viewBox="0 0 378 73" fill="none" xmlns="http://www.w3.org/2000/svg">
<g clip-path="url(#clip0_54_487)">
<g filter="url(#filter0_d_54_487)">
<rect x="30.709" y="-0.297363" width="315.583" height="53.2097" rx="9.1" fill="white"/>
</g>
<path d="M67.1398 22.6989V25.6165H71.8449V28.3286H67.1398V31.4928H72.4613V34.3076H63.6263V19.884H72.4613V22.6989H67.1398ZM78.2557 24.7535C78.6667 24.1234 79.1803 23.6303 79.7967 23.2742C80.4131 22.9043 81.098 22.7194 81.8514 22.7194V26.4383H80.8857C80.009 26.4383 79.3515 26.6301 78.9132 27.0136C78.4749 27.3835 78.2557 28.041 78.2557 28.9861V34.3076H74.7423V22.8427H78.2557V24.7535ZM89.2837 25.7603H87.3934V34.3076H83.88V25.7603H82.6061V22.8427H83.88V22.514C83.88 21.1031 84.2841 20.0347 85.0922 19.3087C85.9004 18.569 87.0852 18.1992 88.6468 18.1992C88.907 18.1992 89.0988 18.2061 89.2221 18.2197V21.199C88.5509 21.1579 88.0783 21.2538 87.8044 21.4866C87.5304 21.7195 87.3934 22.1373 87.3934 22.74V22.8427H89.2837V25.7603ZM90.2361 28.5546C90.2361 27.3766 90.4552 26.3424 90.8935 25.4521C91.3456 24.5618 91.9551 23.8769 92.7222 23.3975C93.4893 22.918 94.3454 22.6783 95.2905 22.6783C96.0986 22.6783 96.8041 22.8427 97.4068 23.1714C98.0232 23.5002 98.4957 23.9317 98.8245 24.4659V22.8427H102.338V34.3076H98.8245V32.6844C98.482 33.2187 98.0026 33.6501 97.3862 33.9789C96.7835 34.3076 96.0781 34.472 95.2699 34.472C94.3385 34.472 93.4893 34.2323 92.7222 33.7529C91.9551 33.2597 91.3456 32.568 90.8935 31.6777C90.4552 30.7736 90.2361 29.7326 90.2361 28.5546ZM98.8245 28.5752C98.8245 27.6985 98.5779 27.0068 98.0848 26.5C97.6054 25.9932 97.0164 25.7397 96.3178 25.7397C95.6192 25.7397 95.0234 25.9932 94.5303 26.5C94.0509 26.9931 93.8111 27.678 93.8111 28.5546C93.8111 29.4313 94.0509 30.1298 94.5303 30.6503C95.0234 31.1572 95.6192 31.4106 96.3178 31.4106C97.0164 31.4106 97.6054 31.1572 98.0848 30.6503C98.5779 30.1435 98.8245 29.4518 98.8245 28.5752ZM111.866 22.7194C113.208 22.7194 114.276 23.1577 115.071 24.0344C115.879 24.8973 116.283 26.089 116.283 27.6095V34.3076H112.79V28.082C112.79 27.315 112.592 26.7191 112.194 26.2945C111.797 25.8699 111.263 25.6576 110.592 25.6576C109.92 25.6576 109.386 25.8699 108.989 26.2945C108.592 26.7191 108.393 27.315 108.393 28.082V34.3076H104.88V22.8427H108.393V24.3631C108.749 23.8563 109.229 23.4591 109.831 23.1714C110.434 22.8701 111.112 22.7194 111.866 22.7194ZM123.943 34.4514C122.889 34.4514 121.943 34.2802 121.108 33.9378C120.272 33.5953 119.601 33.0885 119.094 32.4173C118.601 31.7462 118.341 30.938 118.314 29.9929H122.053C122.108 30.5271 122.293 30.938 122.608 31.2256C122.923 31.4996 123.334 31.6366 123.841 31.6366C124.361 31.6366 124.772 31.5201 125.073 31.2873C125.375 31.0407 125.525 30.7051 125.525 30.2805C125.525 29.9244 125.402 29.6299 125.156 29.397C124.923 29.1642 124.628 28.9724 124.272 28.8217C123.93 28.671 123.437 28.4998 122.793 28.3081C121.861 28.0204 121.101 27.7328 120.512 27.4451C119.923 27.1575 119.416 26.7328 118.992 26.1712C118.567 25.6096 118.355 24.8768 118.355 23.9728C118.355 22.6304 118.841 21.5825 119.813 20.8291C120.786 20.0621 122.053 19.6785 123.615 19.6785C125.203 19.6785 126.484 20.0621 127.457 20.8291C128.429 21.5825 128.95 22.6372 129.018 23.9933H125.217C125.19 23.5276 125.019 23.1646 124.704 22.9043C124.388 22.6304 123.984 22.4934 123.491 22.4934C123.067 22.4934 122.724 22.6098 122.464 22.8427C122.204 23.0619 122.074 23.3838 122.074 23.8084C122.074 24.2741 122.293 24.6371 122.731 24.8973C123.169 25.1576 123.854 25.4384 124.786 25.7397C125.717 26.0548 126.471 26.3561 127.046 26.6438C127.635 26.9314 128.142 27.3492 128.566 27.8971C128.991 28.445 129.203 29.1505 129.203 30.0134C129.203 30.8353 128.991 31.5818 128.566 32.253C128.155 32.9242 127.553 33.4584 126.758 33.8556C125.964 34.2528 125.025 34.4514 123.943 34.4514ZM142.173 28.3902C142.173 28.719 142.152 29.0614 142.111 29.4176H134.16C134.215 30.1298 134.441 30.6777 134.838 31.0613C135.249 31.4311 135.749 31.616 136.338 31.616C137.214 31.616 137.824 31.2462 138.166 30.5065H141.906C141.714 31.2599 141.365 31.9379 140.858 32.5406C140.365 33.1433 139.741 33.6159 138.988 33.9583C138.235 34.3008 137.392 34.472 136.461 34.472C135.338 34.472 134.338 34.2323 133.461 33.7529C132.584 33.2734 131.9 32.5886 131.406 31.6982C130.913 30.8079 130.667 29.7669 130.667 28.5752C130.667 27.3835 130.907 26.3424 131.386 25.4521C131.879 24.5618 132.564 23.8769 133.441 23.3975C134.317 22.918 135.324 22.6783 136.461 22.6783C137.57 22.6783 138.557 22.9112 139.42 23.3769C140.283 23.8426 140.954 24.507 141.433 25.3699C141.926 26.2329 142.173 27.2396 142.173 28.3902ZM138.577 27.4656C138.577 26.863 138.372 26.3835 137.961 26.0274C137.55 25.6713 137.036 25.4932 136.42 25.4932C135.831 25.4932 135.331 25.6644 134.92 26.0069C134.523 26.3493 134.276 26.8356 134.18 27.4656H138.577ZM149.779 25.7603H147.889V34.3076H144.376V25.7603H143.102V22.8427H144.376V22.514C144.376 21.1031 144.78 20.0347 145.588 19.3087C146.396 18.569 147.581 18.1992 149.142 18.1992C149.403 18.1992 149.594 18.2061 149.718 18.2197V21.199C149.047 21.1579 148.574 21.2538 148.3 21.4866C148.026 21.7195 147.889 22.1373 147.889 22.74V22.8427H149.779V25.7603ZM150.732 28.5546C150.732 27.3766 150.951 26.3424 151.389 25.4521C151.841 24.5618 152.451 23.8769 153.218 23.3975C153.985 22.918 154.841 22.6783 155.786 22.6783C156.594 22.6783 157.3 22.8427 157.902 23.1714C158.519 23.5002 158.991 23.9317 159.32 24.4659V22.8427H162.834V34.3076H159.32V32.6844C158.978 33.2187 158.498 33.6501 157.882 33.9789C157.279 34.3076 156.574 34.472 155.766 34.472C154.834 34.472 153.985 34.2323 153.218 33.7529C152.451 33.2597 151.841 32.568 151.389 31.6777C150.951 30.7736 150.732 29.7326 150.732 28.5546ZM159.32 28.5752C159.32 27.6985 159.074 27.0068 158.58 26.5C158.101 25.9932 157.512 25.7397 156.813 25.7397C156.115 25.7397 155.519 25.9932 155.026 26.5C154.547 26.9931 154.307 27.678 154.307 28.5546C154.307 29.4313 154.547 30.1298 155.026 30.6503C155.519 31.1572 156.115 31.4106 156.813 31.4106C157.512 31.4106 158.101 31.1572 158.58 30.6503C159.074 30.1435 159.32 29.4518 159.32 28.5752ZM171.765 31.3284V34.3076H169.978C168.704 34.3076 167.711 33.9994 166.999 33.383C166.286 32.7529 165.93 31.7325 165.93 30.3216V25.7603H164.533V22.8427H165.93V20.0484H169.444V22.8427H171.745V25.7603H169.444V30.3627C169.444 30.7051 169.526 30.9517 169.69 31.1024C169.855 31.253 170.128 31.3284 170.512 31.3284H171.765ZM185.146 20.5826C186.763 20.5826 188.173 20.8908 189.379 21.5072C190.584 22.1099 191.509 22.966 192.153 24.0755C192.81 25.1713 193.139 26.4383 193.139 27.8766C193.139 29.0409 192.933 30.123 192.522 31.1229C192.125 32.1228 191.529 32.9242 190.735 33.5269C189.954 34.1159 189.023 34.4103 187.941 34.4103C187.215 34.4103 186.612 34.2665 186.132 33.9789C185.667 33.6912 185.352 33.2871 185.187 32.7666C184.804 33.3008 184.311 33.7186 183.708 34.02C183.105 34.3076 182.448 34.4514 181.735 34.4514C180.722 34.4514 179.921 34.1501 179.332 33.5474C178.756 32.931 178.469 32.0954 178.469 31.0407C178.469 30.0408 178.674 29.1025 179.085 28.2259C179.496 27.3355 180.064 26.6232 180.79 26.089C181.516 25.5548 182.331 25.2877 183.235 25.2877C184.386 25.2877 185.167 25.6987 185.578 26.5205L185.763 25.4316H188.598L187.694 30.5887C187.653 30.8353 187.632 31.0544 187.632 31.2462C187.632 31.8489 187.899 32.1502 188.434 32.1502C189.091 32.1502 189.591 31.7325 189.934 30.8969C190.29 30.0477 190.468 29.0751 190.468 27.9793C190.468 26.4041 189.968 25.1713 188.968 24.2809C187.982 23.3906 186.591 22.9454 184.797 22.9454C183.263 22.9454 181.866 23.3153 180.605 24.0549C179.359 24.7946 178.38 25.8082 177.667 27.0958C176.955 28.3697 176.599 29.7737 176.599 31.3078C176.599 32.9652 177.078 34.2528 178.037 35.1706C179.01 36.0883 180.366 36.5472 182.105 36.5472C183.461 36.5472 184.674 36.3006 185.742 35.8075L186.297 38.0471C184.954 38.6361 183.448 38.9306 181.777 38.9306C180.215 38.9306 178.838 38.6292 177.647 38.0265C176.469 37.4238 175.558 36.5677 174.914 35.4582C174.27 34.3487 173.948 33.0543 173.948 31.5749C173.948 29.5066 174.435 27.6369 175.407 25.9658C176.38 24.2809 177.715 22.966 179.414 22.0208C181.126 21.062 183.037 20.5826 185.146 20.5826ZM182.886 31.9242C183.27 31.9242 183.626 31.8078 183.955 31.5749C184.297 31.3421 184.564 31.0339 184.756 30.6503C184.961 30.2531 185.064 29.8285 185.064 29.3765C185.064 28.9107 184.934 28.5341 184.674 28.2464C184.413 27.9451 184.057 27.7944 183.605 27.7944C183.003 27.7944 182.503 28.0546 182.105 28.5752C181.708 29.0957 181.509 29.7121 181.509 30.4243C181.509 30.8764 181.626 31.2393 181.859 31.5133C182.092 31.7873 182.434 31.9242 182.886 31.9242ZM207.626 22.8427L200.434 39.7524H196.654L199.284 33.9172L194.62 22.8427H198.544L201.195 30.0134L203.825 22.8427H207.626ZM208.198 28.5546C208.198 27.3766 208.417 26.3424 208.855 25.4521C209.307 24.5618 209.917 23.8769 210.684 23.3975C211.451 22.918 212.307 22.6783 213.252 22.6783C214.06 22.6783 214.766 22.8427 215.368 23.1714C215.985 23.5002 216.457 23.9317 216.786 24.4659V22.8427H220.299V34.3076H216.786V32.6844C216.444 33.2187 215.964 33.6501 215.348 33.9789C214.745 34.3076 214.04 34.472 213.231 34.472C212.3 34.472 211.451 34.2323 210.684 33.7529C209.917 33.2597 209.307 32.568 208.855 31.6777C208.417 30.7736 208.198 29.7326 208.198 28.5546ZM216.786 28.5752C216.786 27.6985 216.539 27.0068 216.046 26.5C215.567 25.9932 214.978 25.7397 214.279 25.7397C213.581 25.7397 212.985 25.9932 212.492 26.5C212.012 26.9931 211.773 27.678 211.773 28.5546C211.773 29.4313 212.012 30.1298 212.492 30.6503C212.985 31.1572 213.581 31.4106 214.279 31.4106C214.978 31.4106 215.567 31.1572 216.046 30.6503C216.539 30.1435 216.786 29.4518 216.786 28.5752ZM229.889 22.7194C231.204 22.7194 232.258 23.1577 233.053 24.0344C233.847 24.8973 234.245 26.089 234.245 27.6095V34.3076H230.752V28.082C230.752 27.315 230.553 26.7191 230.156 26.2945C229.759 25.8699 229.224 25.6576 228.553 25.6576C227.882 25.6576 227.348 25.8699 226.951 26.2945C226.553 26.7191 226.355 27.315 226.355 28.082V34.3076H222.841V19.1032H226.355V24.3837C226.711 23.8769 227.197 23.4728 227.813 23.1714C228.43 22.8701 229.122 22.7194 229.889 22.7194ZM241.905 34.472C240.782 34.472 239.768 34.2323 238.864 33.7529C237.974 33.2734 237.268 32.5886 236.748 31.6982C236.241 30.8079 235.987 29.7669 235.987 28.5752C235.987 27.3972 236.248 26.363 236.768 25.4726C237.289 24.5686 238.001 23.8769 238.905 23.3975C239.809 22.918 240.823 22.6783 241.946 22.6783C243.069 22.6783 244.083 22.918 244.987 23.3975C245.891 23.8769 246.603 24.5686 247.124 25.4726C247.644 26.363 247.904 27.3972 247.904 28.5752C247.904 29.7532 247.637 30.7942 247.103 31.6982C246.583 32.5886 245.863 33.2734 244.946 33.7529C244.042 34.2323 243.028 34.472 241.905 34.472ZM241.905 31.4311C242.576 31.4311 243.144 31.1846 243.61 30.6914C244.09 30.1983 244.329 29.4929 244.329 28.5752C244.329 27.6574 244.096 26.952 243.631 26.4589C243.179 25.9658 242.617 25.7192 241.946 25.7192C241.261 25.7192 240.693 25.9658 240.241 26.4589C239.789 26.9383 239.563 27.6437 239.563 28.5752C239.563 29.4929 239.782 30.1983 240.22 30.6914C240.672 31.1846 241.234 31.4311 241.905 31.4311ZM254.987 34.472C253.864 34.472 252.85 34.2323 251.946 33.7529C251.056 33.2734 250.35 32.5886 249.83 31.6982C249.323 30.8079 249.07 29.7669 249.07 28.5752C249.07 27.3972 249.33 26.363 249.85 25.4726C250.371 24.5686 251.083 23.8769 251.987 23.3975C252.891 22.918 253.905 22.6783 255.028 22.6783C256.151 22.6783 257.165 22.918 258.069 23.3975C258.973 23.8769 259.685 24.5686 260.206 25.4726C260.726 26.363 260.987 27.3972 260.987 28.5752C260.987 29.7532 260.72 30.7942 260.185 31.6982C259.665 32.5886 258.946 33.2734 258.028 33.7529C257.124 34.2323 256.11 34.472 254.987 34.472ZM254.987 31.4311C255.658 31.4311 256.227 31.1846 256.692 30.6914C257.172 30.1983 257.412 29.4929 257.412 28.5752C257.412 27.6574 257.179 26.952 256.713 26.4589C256.261 25.9658 255.699 25.7192 255.028 25.7192C254.343 25.7192 253.775 25.9658 253.323 26.4589C252.871 26.9383 252.645 27.6437 252.645 28.5752C252.645 29.4929 252.864 30.1983 253.302 30.6914C253.754 31.1846 254.316 31.4311 254.987 31.4311ZM264.494 34.472C263.878 34.472 263.371 34.2939 262.974 33.9378C262.59 33.5679 262.399 33.1159 262.399 32.5817C262.399 32.0338 262.59 31.5749 262.974 31.2051C263.371 30.8353 263.878 30.6503 264.494 30.6503C265.097 30.6503 265.59 30.8353 265.974 31.2051C266.371 31.5749 266.57 32.0338 266.57 32.5817C266.57 33.1159 266.371 33.5679 265.974 33.9378C265.59 34.2939 265.097 34.472 264.494 34.472ZM267.951 28.5752C267.951 27.3835 268.191 26.3424 268.67 25.4521C269.163 24.5618 269.841 23.8769 270.704 23.3975C271.581 22.918 272.581 22.6783 273.704 22.6783C275.142 22.6783 276.341 23.055 277.299 23.8084C278.272 24.5618 278.909 25.6233 279.21 26.9931H275.471C275.156 26.1164 274.546 25.6781 273.642 25.6781C272.998 25.6781 272.485 25.9315 272.101 26.4383C271.718 26.9314 271.526 27.6437 271.526 28.5752C271.526 29.5066 271.718 30.2257 272.101 30.7325C272.485 31.2256 272.998 31.4722 273.642 31.4722C274.546 31.4722 275.156 31.0339 275.471 30.1572H279.21C278.909 31.4996 278.272 32.5543 277.299 33.3214C276.327 34.0885 275.128 34.472 273.704 34.472C272.581 34.472 271.581 34.2323 270.704 33.7529C269.841 33.2734 269.163 32.5886 268.67 31.6982C268.191 30.8079 267.951 29.7669 267.951 28.5752ZM286.308 34.472C285.185 34.472 284.172 34.2323 283.268 33.7529C282.377 33.2734 281.672 32.5886 281.151 31.6982C280.644 30.8079 280.391 29.7669 280.391 28.5752C280.391 27.3972 280.651 26.363 281.172 25.4726C281.692 24.5686 282.405 23.8769 283.309 23.3975C284.213 22.918 285.226 22.6783 286.35 22.6783C287.473 22.6783 288.486 22.918 289.39 23.3975C290.294 23.8769 291.007 24.5686 291.527 25.4726C292.048 26.363 292.308 27.3972 292.308 28.5752C292.308 29.7532 292.041 30.7942 291.507 31.6982C290.986 32.5886 290.267 33.2734 289.349 33.7529C288.445 34.2323 287.432 34.472 286.308 34.472ZM286.308 31.4311C286.98 31.4311 287.548 31.1846 288.014 30.6914C288.493 30.1983 288.733 29.4929 288.733 28.5752C288.733 27.6574 288.5 26.952 288.034 26.4589C287.582 25.9658 287.021 25.7192 286.35 25.7192C285.665 25.7192 285.096 25.9658 284.644 26.4589C284.192 26.9383 283.966 27.6437 283.966 28.5752C283.966 29.4929 284.185 30.1983 284.624 30.6914C285.076 31.1846 285.637 31.4311 286.308 31.4311ZM308.801 22.7194C310.226 22.7194 311.356 23.1509 312.191 24.0138C313.04 24.8768 313.465 26.0753 313.465 27.6095V34.3076H309.972V28.082C309.972 27.3424 309.774 26.7739 309.376 26.3767C308.993 25.9658 308.459 25.7603 307.774 25.7603C307.089 25.7603 306.548 25.9658 306.151 26.3767C305.767 26.7739 305.575 27.3424 305.575 28.082V34.3076H302.082V28.082C302.082 27.3424 301.884 26.7739 301.486 26.3767C301.103 25.9658 300.569 25.7603 299.884 25.7603C299.199 25.7603 298.658 25.9658 298.261 26.3767C297.877 26.7739 297.685 27.3424 297.685 28.082V34.3076H294.172V22.8427H297.685V24.2809C298.042 23.8015 298.507 23.4248 299.083 23.1509C299.658 22.8632 300.308 22.7194 301.034 22.7194C301.897 22.7194 302.664 22.9043 303.336 23.2742C304.021 23.644 304.555 24.1714 304.938 24.8563C305.335 24.2262 305.877 23.7125 306.561 23.3153C307.246 22.918 307.993 22.7194 308.801 22.7194Z" fill="#283146"/>
</g>
<defs>
<filter id="filter0_d_54_487" x="5.70898" y="-15.2974" width="355.583" height="93.2097" filterUnits="userSpaceOnUse" color-interpolation-filters="sRGB">
<feFlood flood-opacity="0" result="BackgroundImageFix"/>
<feColorMatrix in="SourceAlpha" type="matrix" values="0 0 0 0 0 0 0 0 0 0 0 0 0 0 0 0 0 0 127 0" result="hardAlpha"/>
<feOffset dx="-5" dy="5"/>
<feGaussianBlur stdDeviation="10"/>
<feComposite in2="hardAlpha" operator="out"/>
<feColorMatrix type="matrix" values="0 0 0 0 0 0 0 0 0 0 0 0 0 0 0 0 0 0 0.1 0"/>
<feBlend mode="normal" in2="BackgroundImageFix" result="effect1_dropShadow_54_487"/>
<feBlend mode="normal" in="SourceGraphic" in2="effect1_dropShadow_54_487" result="shape"/>
</filter>
<clipPath id="clip0_54_487">
<rect width="378" height="73" fill="white"/>
</clipPath>
</defs>
</svg>
