<svg width="317" height="54" viewBox="0 0 317 54" fill="none" xmlns="http://www.w3.org/2000/svg">
<rect x="0.708984" y="0.345947" width="315.583" height="53.2097" rx="9.1" fill="white"/>
<path d="M37.1398 23.3419V26.2595H41.8449V28.9717H37.1398V32.1358H42.4613V34.9507H33.6263V20.5271H42.4613V23.3419H37.1398ZM48.2557 25.3966C48.6667 24.7665 49.1803 24.2734 49.7967 23.9172C50.4131 23.5474 51.098 23.3625 51.8514 23.3625V27.0814H50.8857C50.009 27.0814 49.3515 27.2732 48.9132 27.6567C48.4749 28.0265 48.2557 28.684 48.2557 29.6292V34.9507H44.7423V23.4858H48.2557V25.3966ZM59.2837 26.4034H57.3934V34.9507H53.88V26.4034H52.6061V23.4858H53.88V23.157C53.88 21.7462 54.2841 20.6778 55.0922 19.9518C55.9004 19.2121 57.0852 18.8423 58.6468 18.8423C58.907 18.8423 59.0988 18.8491 59.2221 18.8628V21.842C58.5509 21.801 58.0783 21.8968 57.8044 22.1297C57.5304 22.3626 57.3934 22.7803 57.3934 23.383V23.4858H59.2837V26.4034ZM60.2361 29.1977C60.2361 28.0197 60.4552 26.9855 60.8935 26.0952C61.3456 25.2048 61.9551 24.5199 62.7222 24.0405C63.4893 23.5611 64.3454 23.3214 65.2905 23.3214C66.0986 23.3214 66.8041 23.4858 67.4068 23.8145C68.0232 24.1433 68.4957 24.5747 68.8245 25.1089V23.4858H72.3379V34.9507H68.8245V33.3275C68.482 33.8617 68.0026 34.2932 67.3862 34.6219C66.7835 34.9507 66.0781 35.1151 65.2699 35.1151C64.3385 35.1151 63.4893 34.8753 62.7222 34.3959C61.9551 33.9028 61.3456 33.2111 60.8935 32.3207C60.4552 31.4167 60.2361 30.3757 60.2361 29.1977ZM68.8245 29.2182C68.8245 28.3416 68.5779 27.6498 68.0848 27.143C67.6054 26.6362 67.0164 26.3828 66.3178 26.3828C65.6192 26.3828 65.0234 26.6362 64.5303 27.143C64.0509 27.6361 63.8111 28.321 63.8111 29.1977C63.8111 30.0743 64.0509 30.7729 64.5303 31.2934C65.0234 31.8002 65.6192 32.0536 66.3178 32.0536C67.0164 32.0536 67.6054 31.8002 68.0848 31.2934C68.5779 30.7866 68.8245 30.0949 68.8245 29.2182ZM81.8655 23.3625C83.2079 23.3625 84.2763 23.8008 85.0708 24.6775C85.8789 25.5404 86.283 26.7321 86.283 28.2525V34.9507H82.7901V28.7251C82.7901 27.958 82.5915 27.3622 82.1943 26.9376C81.797 26.5129 81.2628 26.3006 80.5917 26.3006C79.9205 26.3006 79.3863 26.5129 78.989 26.9376C78.5918 27.3622 78.3932 27.958 78.3932 28.7251V34.9507H74.8797V23.4858H78.3932V25.0062C78.7493 24.4994 79.2287 24.1022 79.8314 23.8145C80.4341 23.5132 81.1122 23.3625 81.8655 23.3625ZM93.9433 35.0945C92.8886 35.0945 91.9435 34.9233 91.1079 34.5808C90.2724 34.2384 89.6012 33.7316 89.0944 33.0604C88.6012 32.3892 88.341 31.5811 88.3136 30.6359H92.053C92.1078 31.1701 92.2928 31.5811 92.6078 31.8687C92.9228 32.1427 93.3338 32.2796 93.8406 32.2796C94.3611 32.2796 94.772 32.1632 95.0734 31.9304C95.3747 31.6838 95.5254 31.3482 95.5254 30.9236C95.5254 30.5674 95.4021 30.2729 95.1556 30.0401C94.9227 29.8072 94.6282 29.6155 94.2721 29.4648C93.9296 29.3141 93.4365 29.1429 92.7927 28.9511C91.8613 28.6635 91.1011 28.3758 90.5121 28.0882C89.9231 27.8005 89.4162 27.3759 88.9916 26.8143C88.567 26.2527 88.3547 25.5199 88.3547 24.6158C88.3547 23.2735 88.8409 22.2256 89.8135 21.4722C90.786 20.7051 92.053 20.3216 93.6146 20.3216C95.2035 20.3216 96.4842 20.7051 97.4568 21.4722C98.4293 22.2256 98.9498 23.2803 99.0183 24.6364H95.2172C95.1898 24.1706 95.0186 23.8077 94.7035 23.5474C94.3885 23.2735 93.9844 23.1365 93.4913 23.1365C93.0667 23.1365 92.7242 23.2529 92.464 23.4858C92.2037 23.7049 92.0736 24.0268 92.0736 24.4514C92.0736 24.9172 92.2928 25.2802 92.7311 25.5404C93.1694 25.8007 93.8543 26.0815 94.7857 26.3828C95.7172 26.6979 96.4705 26.9992 97.0458 27.2869C97.6348 27.5745 98.1416 27.9923 98.5663 28.5402C98.9909 29.0881 99.2032 29.7935 99.2032 30.6565C99.2032 31.4783 98.9909 32.2249 98.5663 32.896C98.1553 33.5672 97.5526 34.1014 96.7582 34.4987C95.9637 34.8959 95.0254 35.0945 93.9433 35.0945ZM112.173 29.0333C112.173 29.362 112.152 29.7045 112.111 30.0606H104.16C104.215 30.7729 104.441 31.3208 104.838 31.7043C105.249 32.0742 105.749 32.2591 106.338 32.2591C107.214 32.2591 107.824 31.8893 108.166 31.1496H111.906C111.714 31.903 111.365 32.581 110.858 33.1837C110.365 33.7864 109.741 34.259 108.988 34.6014C108.235 34.9438 107.392 35.1151 106.461 35.1151C105.338 35.1151 104.338 34.8753 103.461 34.3959C102.584 33.9165 101.9 33.2316 101.406 32.3413C100.913 31.4509 100.667 30.4099 100.667 29.2182C100.667 28.0265 100.907 26.9855 101.386 26.0952C101.879 25.2048 102.564 24.5199 103.441 24.0405C104.317 23.5611 105.324 23.3214 106.461 23.3214C107.57 23.3214 108.557 23.5543 109.42 24.02C110.283 24.4857 110.954 25.15 111.433 26.013C111.926 26.8759 112.173 27.8827 112.173 29.0333ZM108.577 28.1087C108.577 27.506 108.372 27.0266 107.961 26.6705C107.55 26.3143 107.036 26.1363 106.42 26.1363C105.831 26.1363 105.331 26.3075 104.92 26.6499C104.523 26.9924 104.276 27.4786 104.18 28.1087H108.577ZM119.779 26.4034H117.889V34.9507H114.376V26.4034H113.102V23.4858H114.376V23.157C114.376 21.7462 114.78 20.6778 115.588 19.9518C116.396 19.2121 117.581 18.8423 119.142 18.8423C119.403 18.8423 119.594 18.8491 119.718 18.8628V21.842C119.047 21.801 118.574 21.8968 118.3 22.1297C118.026 22.3626 117.889 22.7803 117.889 23.383V23.4858H119.779V26.4034ZM120.732 29.1977C120.732 28.0197 120.951 26.9855 121.389 26.0952C121.841 25.2048 122.451 24.5199 123.218 24.0405C123.985 23.5611 124.841 23.3214 125.786 23.3214C126.594 23.3214 127.3 23.4858 127.902 23.8145C128.519 24.1433 128.991 24.5747 129.32 25.1089V23.4858H132.834V34.9507H129.32V33.3275C128.978 33.8617 128.498 34.2932 127.882 34.6219C127.279 34.9507 126.574 35.1151 125.766 35.1151C124.834 35.1151 123.985 34.8753 123.218 34.3959C122.451 33.9028 121.841 33.2111 121.389 32.3207C120.951 31.4167 120.732 30.3757 120.732 29.1977ZM129.32 29.2182C129.32 28.3416 129.074 27.6498 128.58 27.143C128.101 26.6362 127.512 26.3828 126.813 26.3828C126.115 26.3828 125.519 26.6362 125.026 27.143C124.547 27.6361 124.307 28.321 124.307 29.1977C124.307 30.0743 124.547 30.7729 125.026 31.2934C125.519 31.8002 126.115 32.0536 126.813 32.0536C127.512 32.0536 128.101 31.8002 128.58 31.2934C129.074 30.7866 129.32 30.0949 129.32 29.2182ZM141.765 31.9714V34.9507H139.978C138.704 34.9507 137.711 34.6425 136.999 34.0261C136.286 33.396 135.93 32.3755 135.93 30.9647V26.4034H134.533V23.4858H135.93V20.6914H139.444V23.4858H141.745V26.4034H139.444V31.0058C139.444 31.3482 139.526 31.5948 139.69 31.7454C139.855 31.8961 140.128 31.9714 140.512 31.9714H141.765ZM155.146 21.2257C156.763 21.2257 158.173 21.5339 159.379 22.1502C160.584 22.7529 161.509 23.609 162.153 24.7186C162.81 25.8144 163.139 27.0814 163.139 28.5196C163.139 29.6839 162.933 30.7661 162.522 31.766C162.125 32.7659 161.529 33.5672 160.735 34.1699C159.954 34.7589 159.023 35.0534 157.941 35.0534C157.215 35.0534 156.612 34.9096 156.132 34.6219C155.667 34.3343 155.352 33.9302 155.187 33.4097C154.804 33.9439 154.311 34.3617 153.708 34.663C153.105 34.9507 152.448 35.0945 151.735 35.0945C150.722 35.0945 149.921 34.7932 149.332 34.1905C148.756 33.5741 148.469 32.7385 148.469 31.6838C148.469 30.6839 148.674 29.7456 149.085 28.8689C149.496 27.9786 150.064 27.2663 150.79 26.7321C151.516 26.1979 152.331 25.9308 153.235 25.9308C154.386 25.9308 155.167 26.3417 155.578 27.1636L155.763 26.0746H158.598L157.694 31.2318C157.653 31.4783 157.632 31.6975 157.632 31.8893C157.632 32.492 157.899 32.7933 158.434 32.7933C159.091 32.7933 159.591 32.3755 159.934 31.54C160.29 30.6907 160.468 29.7182 160.468 28.6224C160.468 27.0471 159.968 25.8144 158.968 24.924C157.982 24.0337 156.591 23.5885 154.797 23.5885C153.263 23.5885 151.866 23.9583 150.605 24.698C149.359 25.4377 148.38 26.4513 147.667 27.7389C146.955 29.0128 146.599 30.4168 146.599 31.9509C146.599 33.6083 147.078 34.8959 148.037 35.8136C149.01 36.7314 150.366 37.1902 152.105 37.1902C153.461 37.1902 154.674 36.9437 155.742 36.4506L156.297 38.6901C154.954 39.2791 153.448 39.5736 151.777 39.5736C150.215 39.5736 148.838 39.2723 147.647 38.6696C146.469 38.0669 145.558 37.2108 144.914 36.1013C144.27 34.9918 143.948 33.6974 143.948 32.218C143.948 30.1497 144.435 28.2799 145.407 26.6088C146.38 24.924 147.715 23.609 149.414 22.6639C151.126 21.7051 153.037 21.2257 155.146 21.2257ZM152.886 32.5673C153.27 32.5673 153.626 32.4509 153.955 32.218C154.297 31.9851 154.564 31.6769 154.756 31.2934C154.961 30.8962 155.064 30.4716 155.064 30.0195C155.064 29.5538 154.934 29.1771 154.674 28.8895C154.413 28.5881 154.057 28.4375 153.605 28.4375C153.003 28.4375 152.503 28.6977 152.105 29.2182C151.708 29.7387 151.509 30.3551 151.509 31.0674C151.509 31.5194 151.626 31.8824 151.859 32.1564C152.092 32.4303 152.434 32.5673 152.886 32.5673ZM177.626 23.4858L170.434 40.3955H166.654L169.284 34.5603L164.62 23.4858H168.544L171.195 30.6565L173.825 23.4858H177.626ZM178.198 29.1977C178.198 28.0197 178.417 26.9855 178.855 26.0952C179.307 25.2048 179.917 24.5199 180.684 24.0405C181.451 23.5611 182.307 23.3214 183.252 23.3214C184.06 23.3214 184.766 23.4858 185.368 23.8145C185.985 24.1433 186.457 24.5747 186.786 25.1089V23.4858H190.299V34.9507H186.786V33.3275C186.444 33.8617 185.964 34.2932 185.348 34.6219C184.745 34.9507 184.04 35.1151 183.231 35.1151C182.3 35.1151 181.451 34.8753 180.684 34.3959C179.917 33.9028 179.307 33.2111 178.855 32.3207C178.417 31.4167 178.198 30.3757 178.198 29.1977ZM186.786 29.2182C186.786 28.3416 186.539 27.6498 186.046 27.143C185.567 26.6362 184.978 26.3828 184.279 26.3828C183.581 26.3828 182.985 26.6362 182.492 27.143C182.012 27.6361 181.773 28.321 181.773 29.1977C181.773 30.0743 182.012 30.7729 182.492 31.2934C182.985 31.8002 183.581 32.0536 184.279 32.0536C184.978 32.0536 185.567 31.8002 186.046 31.2934C186.539 30.7866 186.786 30.0949 186.786 29.2182ZM199.889 23.3625C201.204 23.3625 202.258 23.8008 203.053 24.6775C203.847 25.5404 204.245 26.7321 204.245 28.2525V34.9507H200.752V28.7251C200.752 27.958 200.553 27.3622 200.156 26.9376C199.759 26.5129 199.224 26.3006 198.553 26.3006C197.882 26.3006 197.348 26.5129 196.951 26.9376C196.553 27.3622 196.355 27.958 196.355 28.7251V34.9507H192.841V19.7463H196.355V25.0267C196.711 24.5199 197.197 24.1159 197.813 23.8145C198.43 23.5132 199.122 23.3625 199.889 23.3625ZM211.905 35.1151C210.782 35.1151 209.768 34.8753 208.864 34.3959C207.974 33.9165 207.268 33.2316 206.748 32.3413C206.241 31.4509 205.987 30.4099 205.987 29.2182C205.987 28.0402 206.248 27.0061 206.768 26.1157C207.289 25.2117 208.001 24.5199 208.905 24.0405C209.809 23.5611 210.823 23.3214 211.946 23.3214C213.069 23.3214 214.083 23.5611 214.987 24.0405C215.891 24.5199 216.603 25.2117 217.124 26.1157C217.644 27.0061 217.904 28.0402 217.904 29.2182C217.904 30.3962 217.637 31.4372 217.103 32.3413C216.583 33.2316 215.863 33.9165 214.946 34.3959C214.042 34.8753 213.028 35.1151 211.905 35.1151ZM211.905 32.0742C212.576 32.0742 213.144 31.8276 213.61 31.3345C214.09 30.8414 214.329 30.136 214.329 29.2182C214.329 28.3005 214.096 27.5951 213.631 27.1019C213.179 26.6088 212.617 26.3623 211.946 26.3623C211.261 26.3623 210.693 26.6088 210.241 27.1019C209.789 27.5814 209.563 28.2868 209.563 29.2182C209.563 30.136 209.782 30.8414 210.22 31.3345C210.672 31.8276 211.234 32.0742 211.905 32.0742ZM224.987 35.1151C223.864 35.1151 222.85 34.8753 221.946 34.3959C221.056 33.9165 220.35 33.2316 219.83 32.3413C219.323 31.4509 219.07 30.4099 219.07 29.2182C219.07 28.0402 219.33 27.0061 219.85 26.1157C220.371 25.2117 221.083 24.5199 221.987 24.0405C222.891 23.5611 223.905 23.3214 225.028 23.3214C226.151 23.3214 227.165 23.5611 228.069 24.0405C228.973 24.5199 229.685 25.2117 230.206 26.1157C230.726 27.0061 230.987 28.0402 230.987 29.2182C230.987 30.3962 230.72 31.4372 230.185 32.3413C229.665 33.2316 228.946 33.9165 228.028 34.3959C227.124 34.8753 226.11 35.1151 224.987 35.1151ZM224.987 32.0742C225.658 32.0742 226.227 31.8276 226.692 31.3345C227.172 30.8414 227.412 30.136 227.412 29.2182C227.412 28.3005 227.179 27.5951 226.713 27.1019C226.261 26.6088 225.699 26.3623 225.028 26.3623C224.343 26.3623 223.775 26.6088 223.323 27.1019C222.871 27.5814 222.645 28.2868 222.645 29.2182C222.645 30.136 222.864 30.8414 223.302 31.3345C223.754 31.8276 224.316 32.0742 224.987 32.0742ZM234.494 35.1151C233.878 35.1151 233.371 34.937 232.974 34.5808C232.59 34.211 232.399 33.759 232.399 33.2248C232.399 32.6769 232.59 32.218 232.974 31.8482C233.371 31.4783 233.878 31.2934 234.494 31.2934C235.097 31.2934 235.59 31.4783 235.974 31.8482C236.371 32.218 236.57 32.6769 236.57 33.2248C236.57 33.759 236.371 34.211 235.974 34.5808C235.59 34.937 235.097 35.1151 234.494 35.1151ZM237.951 29.2182C237.951 28.0265 238.191 26.9855 238.67 26.0952C239.163 25.2048 239.841 24.5199 240.704 24.0405C241.581 23.5611 242.581 23.3214 243.704 23.3214C245.142 23.3214 246.341 23.6981 247.299 24.4514C248.272 25.2048 248.909 26.2664 249.21 27.6361H245.471C245.156 26.7595 244.546 26.3212 243.642 26.3212C242.998 26.3212 242.485 26.5746 242.101 27.0814C241.718 27.5745 241.526 28.2868 241.526 29.2182C241.526 30.1497 241.718 30.8688 242.101 31.3756C242.485 31.8687 242.998 32.1153 243.642 32.1153C244.546 32.1153 245.156 31.6769 245.471 30.8003H249.21C248.909 32.1427 248.272 33.1974 247.299 33.9645C246.327 34.7315 245.128 35.1151 243.704 35.1151C242.581 35.1151 241.581 34.8753 240.704 34.3959C239.841 33.9165 239.163 33.2316 238.67 32.3413C238.191 31.4509 237.951 30.4099 237.951 29.2182ZM256.308 35.1151C255.185 35.1151 254.172 34.8753 253.268 34.3959C252.377 33.9165 251.672 33.2316 251.151 32.3413C250.644 31.4509 250.391 30.4099 250.391 29.2182C250.391 28.0402 250.651 27.0061 251.172 26.1157C251.692 25.2117 252.405 24.5199 253.309 24.0405C254.213 23.5611 255.226 23.3214 256.35 23.3214C257.473 23.3214 258.486 23.5611 259.39 24.0405C260.294 24.5199 261.007 25.2117 261.527 26.1157C262.048 27.0061 262.308 28.0402 262.308 29.2182C262.308 30.3962 262.041 31.4372 261.507 32.3413C260.986 33.2316 260.267 33.9165 259.349 34.3959C258.445 34.8753 257.432 35.1151 256.308 35.1151ZM256.308 32.0742C256.98 32.0742 257.548 31.8276 258.014 31.3345C258.493 30.8414 258.733 30.136 258.733 29.2182C258.733 28.3005 258.5 27.5951 258.034 27.1019C257.582 26.6088 257.021 26.3623 256.35 26.3623C255.665 26.3623 255.096 26.6088 254.644 27.1019C254.192 27.5814 253.966 28.2868 253.966 29.2182C253.966 30.136 254.185 30.8414 254.624 31.3345C255.076 31.8276 255.637 32.0742 256.308 32.0742ZM278.801 23.3625C280.226 23.3625 281.356 23.794 282.191 24.6569C283.04 25.5199 283.465 26.7184 283.465 28.2525V34.9507H279.972V28.7251C279.972 27.9854 279.774 27.417 279.376 27.0198C278.993 26.6088 278.459 26.4034 277.774 26.4034C277.089 26.4034 276.548 26.6088 276.151 27.0198C275.767 27.417 275.575 27.9854 275.575 28.7251V34.9507H272.082V28.7251C272.082 27.9854 271.884 27.417 271.486 27.0198C271.103 26.6088 270.569 26.4034 269.884 26.4034C269.199 26.4034 268.658 26.6088 268.261 27.0198C267.877 27.417 267.685 27.9854 267.685 28.7251V34.9507H264.172V23.4858H267.685V24.924C268.042 24.4446 268.507 24.0679 269.083 23.794C269.658 23.5063 270.308 23.3625 271.034 23.3625C271.897 23.3625 272.664 23.5474 273.336 23.9172C274.021 24.2871 274.555 24.8144 274.938 25.4993C275.335 24.8692 275.877 24.3556 276.561 23.9583C277.246 23.5611 277.993 23.3625 278.801 23.3625Z" fill="#283146"/>
</svg>
