<svg width="316" height="54" viewBox="0 0 316 54" fill="none" xmlns="http://www.w3.org/2000/svg">
<path d="M135.327 25.5594H129.076C128.914 25.5594 128.784 25.6888 128.784 25.849V28.8883C128.784 29.0485 128.914 29.1799 129.076 29.1799H131.515V32.9565C131.515 32.9565 130.967 33.1413 129.454 33.1413C127.667 33.1413 125.172 32.4924 125.172 27.038C125.172 21.5836 127.77 20.8649 130.209 20.8649C132.32 20.8649 133.231 21.2345 133.809 21.4132C133.991 21.4686 134.158 21.2879 134.158 21.1277L134.857 18.1911C134.857 18.1151 134.832 18.0247 134.745 17.9652C134.51 17.7989 133.076 17 129.454 17C125.281 16.9979 121 18.764 121 27.2495C121 35.735 125.901 37 130.032 37C133.452 37 135.526 35.5461 135.526 35.5461C135.61 35.4988 135.621 35.3797 135.621 35.3263V25.851C135.621 25.6908 135.491 25.5615 135.329 25.5615L135.327 25.5594Z" fill="#283146"/>
<path d="M167.545 18.0145C167.545 17.8523 167.417 17.7229 167.256 17.7229H163.737C163.575 17.7229 163.445 17.8543 163.445 18.0145V24.777H157.96V18.0145C157.96 17.8523 157.83 17.7229 157.669 17.7229H154.149C153.988 17.7229 153.858 17.8543 153.858 18.0145V36.3285C153.858 36.4907 153.988 36.6222 154.149 36.6222H157.669C157.83 36.6222 157.96 36.4907 157.96 36.3285V28.494H163.445L163.435 36.3265C163.435 36.4887 163.565 36.6201 163.726 36.6201H167.254C167.415 36.6201 167.543 36.4887 167.545 36.3265V18.0145Z" fill="#283146"/>
<path d="M141.97 20.4172C141.97 19.1563 140.954 18.1377 139.7 18.1377C138.446 18.1377 137.43 19.1563 137.43 20.4172C137.43 21.6781 138.446 22.6967 139.7 22.6967C140.954 22.6967 141.97 21.676 141.97 20.4172Z" fill="#283146"/>
<path d="M141.718 32.4658V24.0111C141.718 23.8509 141.588 23.7195 141.427 23.7195H137.917C137.756 23.7195 137.612 23.8838 137.612 24.046V36.1581C137.612 36.5134 137.835 36.6202 138.124 36.6202H141.286C141.633 36.6202 141.718 36.4518 141.718 36.152V32.4658Z" fill="#283146"/>
<path d="M180.92 23.7481H177.428C177.267 23.7481 177.136 23.8796 177.136 24.0418V33.0222C177.136 33.0222 176.248 33.667 174.991 33.667C173.733 33.667 173.396 33.0982 173.396 31.8722V24.0398C173.396 23.8775 173.266 23.7461 173.105 23.7461H169.561C169.402 23.7461 169.27 23.8775 169.27 24.0398V32.4636C169.27 36.1047 171.31 36.9959 174.119 36.9959C176.422 36.9959 178.281 35.7309 178.281 35.7309C178.281 35.7309 178.37 36.3983 178.409 36.4764C178.448 36.5544 178.553 36.6345 178.665 36.6345L180.92 36.6242C181.079 36.6242 181.211 36.4928 181.211 36.3326V24.0398C181.211 23.8775 181.079 23.7461 180.918 23.7461L180.92 23.7481Z" fill="#283146"/>
<path d="M190.469 23.3354C188.484 23.3354 187.135 24.2164 187.135 24.2164V18.0145C187.135 17.8523 187.005 17.7229 186.844 17.7229H183.314C183.153 17.7229 183.023 17.8543 183.023 18.0145V36.3285C183.023 36.4907 183.153 36.6222 183.314 36.6222H185.764C185.873 36.6222 185.958 36.5647 186.02 36.4661C186.08 36.3675 186.169 35.6221 186.169 35.6221C186.169 35.6221 187.612 36.9816 190.345 36.9816C193.552 36.9816 195.392 35.3633 195.392 29.718C195.392 24.0726 192.453 23.3354 190.469 23.3354ZM189.091 33.6527C187.879 33.6157 187.059 33.0694 187.059 33.0694V27.2701C187.059 27.2701 187.868 26.7752 188.864 26.6869C190.122 26.5739 191.334 26.9518 191.334 29.9357C191.334 33.0818 190.787 33.702 189.093 33.6527H189.091Z" fill="#283146"/>
<path d="M151.834 23.7172H149.194C149.194 23.7172 149.19 20.2507 149.19 20.2487C149.19 20.1172 149.122 20.0515 148.969 20.0515H145.371C145.231 20.0515 145.157 20.1131 145.157 20.2466V23.8301C145.157 23.8301 143.354 24.2634 143.232 24.2984C143.11 24.3333 143.021 24.4442 143.021 24.5776V26.8304C143.021 26.9927 143.151 27.1221 143.312 27.1221H145.157V32.5394C145.157 36.5645 147.996 36.9588 149.911 36.9588C150.787 36.9588 151.834 36.6795 152.007 36.6158C152.113 36.5768 152.173 36.47 152.173 36.353V33.8763C152.175 33.7141 152.038 33.5847 151.883 33.5847C151.729 33.5847 151.336 33.6463 150.931 33.6463C149.634 33.6463 149.194 33.0467 149.194 32.2704C149.194 31.4942 149.194 27.1221 149.194 27.1221H151.834C151.995 27.1221 152.125 26.9906 152.125 26.8304V24.0088C152.125 23.8466 151.995 23.7172 151.834 23.7172Z" fill="#283146"/>
</svg>
