<svg width="562" height="481" viewBox="0 0 562 481" fill="none" xmlns="http://www.w3.org/2000/svg">
<path d="M256.7 475.98C267.202 481.839 279.835 481.515 290.276 475.548C360.608 435.351 482.827 342.823 530.825 222.631C601.276 66.1385 435.857 -58.7831 321.53 31.065C309.603 40.4374 294.608 51.164 284.289 61.3253C279.623 65.9195 271.403 66.3878 266.558 61.9813C252.992 49.6376 231.789 33.8035 218.172 24.5907C120.705 -41.3516 -56.6373 45.5716 19.0108 231.085C46.7226 314.357 178.778 432.495 256.7 475.98Z" fill="url(#paint0_radial_35_78)"/>
<path d="M256.7 475.98C267.202 481.839 279.835 481.515 290.276 475.548C360.608 435.351 482.827 342.823 530.825 222.631C601.276 66.1385 435.857 -58.7831 321.53 31.065C309.603 40.4374 294.608 51.164 284.289 61.3253C279.623 65.9195 271.403 66.3878 266.558 61.9813C252.992 49.6376 231.789 33.8035 218.172 24.5907C120.705 -41.3516 -56.6373 45.5716 19.0108 231.085C46.7226 314.357 178.778 432.495 256.7 475.98Z" fill="url(#paint1_radial_35_78)"/>
<path d="M256.7 475.98C267.202 481.839 279.835 481.515 290.276 475.548C360.608 435.351 482.827 342.823 530.825 222.631C601.276 66.1385 435.857 -58.7831 321.53 31.065C309.603 40.4374 294.608 51.164 284.289 61.3253C279.623 65.9195 271.403 66.3878 266.558 61.9813C252.992 49.6376 231.789 33.8035 218.172 24.5907C120.705 -41.3516 -56.6373 45.5716 19.0108 231.085C46.7226 314.357 178.778 432.495 256.7 475.98Z" fill="url(#paint2_linear_35_78)"/>
<path d="M256.7 475.98C267.202 481.839 279.835 481.515 290.276 475.548C360.608 435.351 482.827 342.823 530.825 222.631C601.276 66.1385 435.857 -58.7831 321.53 31.065C309.603 40.4374 294.608 51.164 284.289 61.3253C279.623 65.9195 271.403 66.3878 266.558 61.9813C252.992 49.6376 231.789 33.8035 218.172 24.5907C120.705 -41.3516 -56.6373 45.5716 19.0108 231.085C46.7226 314.357 178.778 432.495 256.7 475.98Z" fill="url(#paint3_radial_35_78)"/>
<path d="M256.7 475.98C267.202 481.839 279.835 481.515 290.276 475.548C360.608 435.351 482.827 342.823 530.825 222.631C601.276 66.1385 435.857 -58.7831 321.53 31.065C309.603 40.4374 294.608 51.164 284.289 61.3253C279.623 65.9195 271.403 66.3878 266.558 61.9813C252.992 49.6376 231.789 33.8035 218.172 24.5907C120.705 -41.3516 -56.6373 45.5716 19.0108 231.085C46.7226 314.357 178.778 432.495 256.7 475.98Z" fill="url(#paint4_radial_35_78)"/>
<path d="M256.7 475.98C267.202 481.839 279.835 481.515 290.276 475.548C360.608 435.351 482.827 342.823 530.825 222.631C601.276 66.1385 435.857 -58.7831 321.53 31.065C309.603 40.4374 294.608 51.164 284.289 61.3253C279.623 65.9195 271.403 66.3878 266.558 61.9813C252.992 49.6376 231.789 33.8035 218.172 24.5907C120.705 -41.3516 -56.6373 45.5716 19.0108 231.085C46.7226 314.357 178.778 432.495 256.7 475.98Z" fill="url(#paint5_linear_35_78)"/>
<path d="M256.7 475.98C267.202 481.839 279.835 481.515 290.276 475.548C360.608 435.351 482.827 342.823 530.825 222.631C601.276 66.1385 435.857 -58.7831 321.53 31.065C309.603 40.4374 294.608 51.164 284.289 61.3253C279.623 65.9195 271.403 66.3878 266.558 61.9813C252.992 49.6376 231.789 33.8035 218.172 24.5907C120.705 -41.3516 -56.6373 45.5716 19.0108 231.085C46.7226 314.357 178.778 432.495 256.7 475.98Z" fill="url(#paint6_radial_35_78)"/>
<path d="M256.7 475.98C267.202 481.839 279.835 481.515 290.276 475.548C360.608 435.351 482.827 342.823 530.825 222.631C601.276 66.1385 435.857 -58.7831 321.53 31.065C309.603 40.4374 294.608 51.164 284.289 61.3253C279.623 65.9195 271.403 66.3878 266.558 61.9813C252.992 49.6376 231.789 33.8035 218.172 24.5907C120.705 -41.3516 -56.6373 45.5716 19.0108 231.085C46.7226 314.357 178.778 432.495 256.7 475.98Z" fill="url(#paint7_radial_35_78)"/>
<g filter="url(#filter0_f_35_78)">
<path d="M270.271 107.145V248.958C270.271 265.947 290.298 274.804 302.199 262.681C346.391 217.656 385.689 160.835 346.585 114.904C332.169 97.9728 304.331 87.2275 281.938 91.1597C274.54 92.4591 270.271 99.6309 270.271 107.145Z" fill="#266FF9"/>
</g>
<g filter="url(#filter1_f_35_78)">
<path d="M503.075 217.417C535.124 139.553 519.763 59.4143 468.764 38.4226C417.765 17.4309 350.441 63.5351 318.391 141.399C286.341 219.264 301.703 299.402 352.702 320.394C403.701 341.386 471.025 295.281 503.075 217.417Z" fill="url(#paint8_radial_35_78)"/>
</g>
<g filter="url(#filter2_f_35_78)">
<path d="M251.51 82.9856L255.534 299.521C120.583 168.251 96.4168 74.2135 142.322 42.6738C175.103 20.151 236.788 52.3149 251.51 82.9856Z" fill="url(#paint9_radial_35_78)"/>
</g>
<g filter="url(#filter3_f_35_78)">
<path d="M125.905 28.6621C147.235 26.0141 204.892 28.6621 251.513 96.0442" stroke="url(#paint10_linear_35_78)" stroke-opacity="0.5" stroke-width="2.84155" stroke-linecap="round"/>
</g>
<g filter="url(#filter4_f_35_78)">
<path d="M396.969 32.6873C372.024 42.0928 302.994 89.1213 300.05 162.731" stroke="#266FF9" stroke-width="11.3662" stroke-linecap="round"/>
</g>
<defs>
<filter id="filter0_f_35_78" x="247.538" y="67.6155" width="137.812" height="223.412" filterUnits="userSpaceOnUse" color-interpolation-filters="sRGB">
<feFlood flood-opacity="0" result="BackgroundImageFix"/>
<feBlend mode="normal" in="SourceGraphic" in2="BackgroundImageFix" result="shape"/>
<feGaussianBlur stdDeviation="11.3662" result="effect1_foregroundBlur_35_78"/>
</filter>
<filter id="filter1_f_35_78" x="284.607" y="16.3032" width="252.252" height="326.21" filterUnits="userSpaceOnUse" color-interpolation-filters="sRGB">
<feFlood flood-opacity="0" result="BackgroundImageFix"/>
<feBlend mode="normal" in="SourceGraphic" in2="BackgroundImageFix" result="shape"/>
<feGaussianBlur stdDeviation="8.52466" result="effect1_foregroundBlur_35_78"/>
</filter>
<filter id="filter2_f_35_78" x="86.9268" y="1.02758" width="202.706" height="332.592" filterUnits="userSpaceOnUse" color-interpolation-filters="sRGB">
<feFlood flood-opacity="0" result="BackgroundImageFix"/>
<feBlend mode="normal" in="SourceGraphic" in2="BackgroundImageFix" result="shape"/>
<feGaussianBlur stdDeviation="17.0493" result="effect1_foregroundBlur_35_78"/>
</filter>
<filter id="filter3_f_35_78" x="113.118" y="15.238" width="151.183" height="93.5933" filterUnits="userSpaceOnUse" color-interpolation-filters="sRGB">
<feFlood flood-opacity="0" result="BackgroundImageFix"/>
<feBlend mode="normal" in="SourceGraphic" in2="BackgroundImageFix" result="shape"/>
<feGaussianBlur stdDeviation="5.68311" result="effect1_foregroundBlur_35_78"/>
</filter>
<filter id="filter4_f_35_78" x="271.634" y="4.27026" width="153.752" height="186.876" filterUnits="userSpaceOnUse" color-interpolation-filters="sRGB">
<feFlood flood-opacity="0" result="BackgroundImageFix"/>
<feBlend mode="normal" in="SourceGraphic" in2="BackgroundImageFix" result="shape"/>
<feGaussianBlur stdDeviation="11.3662" result="effect1_foregroundBlur_35_78"/>
</filter>
<radialGradient id="paint0_radial_35_78" cx="0" cy="0" r="1" gradientUnits="userSpaceOnUse" gradientTransform="translate(269.768 13.3577) rotate(90) scale(491.828 522.162)">
<stop offset="0.204279" stop-color="#2A7BF7"/>
<stop offset="0.527969" stop-color="#396DFF"/>
<stop offset="1" stop-color="#4A69FF"/>
</radialGradient>
<radialGradient id="paint1_radial_35_78" cx="0" cy="0" r="1" gradientUnits="userSpaceOnUse" gradientTransform="translate(199.984 485.557) rotate(-57.2932) scale(594.864 557.133)">
<stop offset="0.801342" stop-color="#91B3F7" stop-opacity="0"/>
<stop offset="1" stop-color="#91B3F7"/>
</radialGradient>
<linearGradient id="paint2_linear_35_78" x1="306.329" y1="219.455" x2="463.606" y2="406.628" gradientUnits="userSpaceOnUse">
<stop offset="0.694491" stop-color="#B694FF" stop-opacity="0"/>
<stop offset="0.933555" stop-color="#9F72FF"/>
</linearGradient>
<radialGradient id="paint3_radial_35_78" cx="0" cy="0" r="1" gradientUnits="userSpaceOnUse" gradientTransform="translate(272.223 21.8153) rotate(90) scale(523.855 647.909)">
<stop offset="0.812315" stop-color="#3156BE" stop-opacity="0"/>
<stop offset="0.978592" stop-color="#3156BE"/>
</radialGradient>
<radialGradient id="paint4_radial_35_78" cx="0" cy="0" r="1" gradientUnits="userSpaceOnUse" gradientTransform="translate(363.845 160.273) rotate(142.559) scale(369.293 528.663)">
<stop offset="0.641927" stop-color="#3156BE" stop-opacity="0"/>
<stop offset="1" stop-color="#3156BE"/>
</radialGradient>
<linearGradient id="paint5_linear_35_78" x1="286.831" y1="227.254" x2="101.304" y2="436.309" gradientUnits="userSpaceOnUse">
<stop offset="0.694491" stop-color="#9F72FF" stop-opacity="0"/>
<stop offset="0.885417" stop-color="#B694FF"/>
</linearGradient>
<radialGradient id="paint6_radial_35_78" cx="0" cy="0" r="1" gradientUnits="userSpaceOnUse" gradientTransform="translate(342.296 446.299) rotate(-125.423) scale(618.977 628.036)">
<stop offset="0.66943" stop-color="#3156BE" stop-opacity="0"/>
<stop offset="1" stop-color="#3156BE"/>
</radialGradient>
<radialGradient id="paint7_radial_35_78" cx="0" cy="0" r="1" gradientUnits="userSpaceOnUse" gradientTransform="translate(263.435 173.962) rotate(90) scale(343.492 393.621)">
<stop offset="0.820913" stop-color="#9F72FF" stop-opacity="0"/>
<stop offset="0.933555" stop-color="#B694FF"/>
</radialGradient>
<radialGradient id="paint8_radial_35_78" cx="0" cy="0" r="1" gradientUnits="userSpaceOnUse" gradientTransform="translate(507.384 9.37431) rotate(118.831) scale(305.29 144.611)">
<stop stop-color="#94B9FC"/>
<stop offset="1" stop-color="#7D9AFF" stop-opacity="0"/>
</radialGradient>
<radialGradient id="paint9_radial_35_78" cx="0" cy="0" r="1" gradientUnits="userSpaceOnUse" gradientTransform="translate(271.832 179.905) rotate(-151.049) scale(172.343 221.471)">
<stop stop-color="#94B9FC"/>
<stop offset="1" stop-color="#7D9AFF" stop-opacity="0"/>
</radialGradient>
<linearGradient id="paint10_linear_35_78" x1="216.763" y1="62.877" x2="164.663" y2="36.5983" gradientUnits="userSpaceOnUse">
<stop stop-color="#94B9FC"/>
<stop offset="1" stop-color="#94B9FC" stop-opacity="0"/>
</linearGradient>
</defs>
</svg>
