<svg width="1080" height="341" viewBox="0 0 1080 341" fill="none" xmlns="http://www.w3.org/2000/svg">
<path d="M48.182 10.7894V58.5894C48.182 65.9894 46.082 71.6894 41.882 75.6894C37.7487 79.6894 32.1487 81.6894 25.082 81.6894C17.682 81.6894 11.7487 79.5894 7.28203 75.3894C2.81536 71.1894 0.582031 65.2227 0.582031 57.4894H17.582C17.582 60.4227 18.182 62.6561 19.382 64.1894C20.582 65.6561 22.3154 66.3894 24.582 66.3894C26.6487 66.3894 28.2487 65.7227 29.382 64.3894C30.5154 63.0561 31.082 61.1227 31.082 58.5894V10.7894H48.182Z" fill="black"/>
<path d="M117.095 25.1894V80.9894H99.9945V73.3894C98.2612 75.8561 95.8945 77.8561 92.8945 79.3894C89.9612 80.8561 86.6945 81.5894 83.0945 81.5894C78.8279 81.5894 75.0612 80.6561 71.7945 78.7894C68.5279 76.8561 65.9945 74.0894 64.1945 70.4894C62.3945 66.8894 61.4945 62.6561 61.4945 57.7894V25.1894H78.4945V55.4894C78.4945 59.2227 79.4612 62.1227 81.3945 64.1894C83.3279 66.2561 85.9279 67.2894 89.1945 67.2894C92.5279 67.2894 95.1612 66.2561 97.0945 64.1894C99.0279 62.1227 99.9945 59.2227 99.9945 55.4894V25.1894H117.095Z" fill="black"/>
<path d="M152.077 81.7894C147.211 81.7894 142.877 80.9561 139.077 79.2894C135.277 77.6227 132.277 75.3561 130.077 72.4894C127.877 69.5561 126.644 66.2894 126.377 62.6894H143.277C143.477 64.6227 144.377 66.1894 145.977 67.3894C147.577 68.5894 149.544 69.1894 151.877 69.1894C154.011 69.1894 155.644 68.7894 156.777 67.9894C157.977 67.1227 158.577 66.0227 158.577 64.6894C158.577 63.0894 157.744 61.9227 156.077 61.1894C154.411 60.3894 151.711 59.5227 147.977 58.5894C143.977 57.6561 140.644 56.6894 137.977 55.6894C135.311 54.6227 133.011 52.9894 131.077 50.7894C129.144 48.5227 128.177 45.4894 128.177 41.6894C128.177 38.4894 129.044 35.5894 130.777 32.9894C132.577 30.3227 135.177 28.2227 138.577 26.6894C142.044 25.1561 146.144 24.3894 150.877 24.3894C157.877 24.3894 163.377 26.1227 167.377 29.5894C171.444 33.0561 173.777 37.6561 174.377 43.3894H158.577C158.311 41.4561 157.444 39.9227 155.977 38.7894C154.577 37.6561 152.711 37.0894 150.377 37.0894C148.377 37.0894 146.844 37.4894 145.777 38.2894C144.711 39.0227 144.177 40.0561 144.177 41.3894C144.177 42.9894 145.011 44.1894 146.677 44.9894C148.411 45.7894 151.077 46.5894 154.677 47.3894C158.811 48.4561 162.177 49.5227 164.777 50.5894C167.377 51.5894 169.644 53.2561 171.577 55.5894C173.577 57.8561 174.611 60.9227 174.677 64.7894C174.677 68.0561 173.744 70.9894 171.877 73.5894C170.077 76.1227 167.444 78.1227 163.977 79.5894C160.577 81.0561 156.611 81.7894 152.077 81.7894Z" fill="black"/>
<path d="M216.239 66.4894V80.9894H207.539C201.339 80.9894 196.506 79.4894 193.039 76.4894C189.572 73.4227 187.839 68.4561 187.839 61.5894V39.3894H181.039V25.1894H187.839V11.5894H204.939V25.1894H216.139V39.3894H204.939V61.7894C204.939 63.4561 205.339 64.6561 206.139 65.3894C206.939 66.1227 208.272 66.4894 210.139 66.4894H216.239Z" fill="black"/>
<path d="M243.555 52.9894C243.555 47.2561 244.622 42.2227 246.755 37.8894C248.955 33.5561 251.922 30.2227 255.655 27.8894C259.389 25.5561 263.555 24.3894 268.155 24.3894C272.089 24.3894 275.522 25.1894 278.455 26.7894C281.455 28.3894 283.755 30.4894 285.355 33.0894V25.1894H302.455V80.9894H285.355V73.0894C283.689 75.6894 281.355 77.7894 278.355 79.3894C275.422 80.9894 271.989 81.7894 268.055 81.7894C263.522 81.7894 259.389 80.6227 255.655 78.2894C251.922 75.8894 248.955 72.5227 246.755 68.1894C244.622 63.7894 243.555 58.7227 243.555 52.9894ZM285.355 53.0894C285.355 48.8227 284.155 45.4561 281.755 42.9894C279.422 40.5227 276.555 39.2894 273.155 39.2894C269.755 39.2894 266.855 40.5227 264.455 42.9894C262.122 45.3894 260.955 48.7227 260.955 52.9894C260.955 57.2561 262.122 60.6561 264.455 63.1894C266.855 65.6561 269.755 66.8894 273.155 66.8894C276.555 66.8894 279.422 65.6561 281.755 63.1894C284.155 60.7227 285.355 57.3561 285.355 53.0894Z" fill="black"/>
<path d="M344.518 19.3894C341.518 19.3894 339.051 18.5227 337.118 16.7894C335.251 14.9894 334.318 12.7894 334.318 10.1894C334.318 7.52274 335.251 5.32274 337.118 3.58941C339.051 1.7894 341.518 0.889404 344.518 0.889404C347.451 0.889404 349.851 1.7894 351.718 3.58941C353.651 5.32274 354.618 7.52274 354.618 10.1894C354.618 12.7894 353.651 14.9894 351.718 16.7894C349.851 18.5227 347.451 19.3894 344.518 19.3894ZM353.118 88.1894C353.118 95.0561 351.385 99.9894 347.918 102.989C344.451 106.056 339.618 107.589 333.418 107.589H326.718V93.0894H330.818C332.685 93.0894 334.018 92.7227 334.818 91.9894C335.618 91.2561 336.018 90.0561 336.018 88.3894V25.1894H353.118V88.1894Z" fill="black"/>
<path d="M420.513 25.1894V80.9894H403.413V73.3894C401.679 75.8561 399.312 77.8561 396.312 79.3894C393.379 80.8561 390.113 81.5894 386.513 81.5894C382.246 81.5894 378.479 80.6561 375.212 78.7894C371.946 76.8561 369.412 74.0894 367.612 70.4894C365.812 66.8894 364.913 62.6561 364.913 57.7894V25.1894H381.913V55.4894C381.913 59.2227 382.879 62.1227 384.812 64.1894C386.746 66.2561 389.346 67.2894 392.612 67.2894C395.946 67.2894 398.579 66.2561 400.513 64.1894C402.446 62.1227 403.413 59.2227 403.413 55.4894V25.1894H420.513Z" fill="black"/>
<path d="M466.795 24.5894C473.329 24.5894 478.529 26.7227 482.395 30.9894C486.329 35.1894 488.295 40.9894 488.295 48.3894V80.9894H471.295V50.6894C471.295 46.9561 470.329 44.0561 468.395 41.9894C466.462 39.9227 463.862 38.8894 460.595 38.8894C457.329 38.8894 454.729 39.9227 452.795 41.9894C450.862 44.0561 449.895 46.9561 449.895 50.6894V80.9894H432.795V25.1894H449.895V32.5894C451.629 30.1227 453.962 28.1894 456.895 26.7894C459.829 25.3227 463.129 24.5894 466.795 24.5894Z" fill="black"/>
<path d="M508.778 19.3894C505.778 19.3894 503.311 18.5227 501.378 16.7894C499.511 14.9894 498.578 12.7894 498.578 10.1894C498.578 7.52274 499.511 5.32274 501.378 3.58941C503.311 1.7894 505.778 0.889404 508.778 0.889404C511.711 0.889404 514.111 1.7894 515.978 3.58941C517.911 5.32274 518.878 7.52274 518.878 10.1894C518.878 12.7894 517.911 14.9894 515.978 16.7894C514.111 18.5227 511.711 19.3894 508.778 19.3894ZM517.278 25.1894V80.9894H500.178V25.1894H517.278Z" fill="black"/>
<path d="M610.442 34.4894C612.442 31.4227 614.942 29.0227 617.942 27.2894C620.942 25.4894 624.276 24.5894 627.942 24.5894V42.6894H623.242C618.976 42.6894 615.776 43.6227 613.642 45.4894C611.509 47.2894 610.442 50.4894 610.442 55.0894V80.9894H593.342V25.1894H610.442V34.4894Z" fill="black"/>
<path d="M538.477 168.989C538.477 163.256 539.544 158.223 541.677 153.889C543.877 149.556 546.844 146.223 550.577 143.889C554.311 141.556 558.477 140.389 563.077 140.389C566.744 140.389 570.077 141.156 573.077 142.689C576.144 144.223 578.544 146.289 580.277 148.889V122.989H597.377V196.989H580.277V188.989C578.677 191.656 576.377 193.789 573.377 195.389C570.444 196.989 567.011 197.789 563.077 197.789C558.477 197.789 554.311 196.623 550.577 194.289C546.844 191.889 543.877 188.523 541.677 184.189C539.544 179.789 538.477 174.723 538.477 168.989ZM580.277 169.089C580.277 164.823 579.077 161.456 576.677 158.989C574.344 156.523 571.477 155.289 568.077 155.289C564.677 155.289 561.777 156.523 559.377 158.989C557.044 161.389 555.877 164.723 555.877 168.989C555.877 173.256 557.044 176.656 559.377 179.189C561.777 181.656 564.677 182.889 568.077 182.889C571.477 182.889 574.344 181.656 576.677 179.189C579.077 176.723 580.277 173.356 580.277 169.089Z" fill="black"/>
<path d="M812.688 122.989V196.989H795.588V122.989H812.688Z" fill="black"/>
<path d="M850.48 197.789C845.014 197.789 840.08 196.623 835.68 194.289C831.347 191.956 827.914 188.623 825.38 184.289C822.914 179.956 821.68 174.889 821.68 169.089C821.68 163.356 822.947 158.323 825.48 153.989C828.014 149.589 831.48 146.223 835.88 143.889C840.28 141.556 845.214 140.389 850.68 140.389C856.147 140.389 861.08 141.556 865.48 143.889C869.88 146.223 873.347 149.589 875.88 153.989C878.414 158.323 879.68 163.356 879.68 169.089C879.68 174.823 878.38 179.889 875.78 184.289C873.247 188.623 869.747 191.956 865.28 194.289C860.88 196.623 855.947 197.789 850.48 197.789ZM850.48 182.989C853.747 182.989 856.514 181.789 858.78 179.389C861.114 176.989 862.28 173.556 862.28 169.089C862.28 164.623 861.147 161.189 858.88 158.789C856.68 156.389 853.947 155.189 850.68 155.189C847.347 155.189 844.58 156.389 842.38 158.789C840.18 161.123 839.08 164.556 839.08 169.089C839.08 173.556 840.147 176.989 842.28 179.389C844.48 181.789 847.214 182.989 850.48 182.989Z" fill="black"/>
<path d="M905.852 149.089C907.519 146.489 909.819 144.389 912.752 142.789C915.686 141.189 919.119 140.389 923.052 140.389C927.652 140.389 931.819 141.556 935.552 143.889C939.286 146.223 942.219 149.556 944.352 153.889C946.552 158.223 947.652 163.256 947.652 168.989C947.652 174.723 946.552 179.789 944.352 184.189C942.219 188.523 939.286 191.889 935.552 194.289C931.819 196.623 927.652 197.789 923.052 197.789C919.186 197.789 915.752 196.989 912.752 195.389C909.819 193.789 907.519 191.723 905.852 189.189V223.589H888.752V141.189H905.852V149.089ZM930.252 168.989C930.252 164.723 929.052 161.389 926.652 158.989C924.319 156.523 921.419 155.289 917.952 155.289C914.552 155.289 911.652 156.523 909.252 158.989C906.919 161.456 905.752 164.823 905.752 169.089C905.752 173.356 906.919 176.723 909.252 179.189C911.652 181.656 914.552 182.889 917.952 182.889C921.352 182.889 924.252 181.656 926.652 179.189C929.052 176.656 930.252 173.256 930.252 168.989Z" fill="black"/>
<path d="M1009.22 168.189C1009.22 169.789 1009.12 171.456 1008.92 173.189H970.223C970.49 176.656 971.59 179.323 973.523 181.189C975.523 182.989 977.957 183.889 980.823 183.889C985.09 183.889 988.057 182.089 989.723 178.489H1007.92C1006.99 182.156 1005.29 185.456 1002.82 188.389C1000.42 191.323 997.39 193.623 993.723 195.289C990.057 196.956 985.957 197.789 981.423 197.789C975.957 197.789 971.09 196.623 966.823 194.289C962.557 191.956 959.223 188.623 956.823 184.289C954.423 179.956 953.223 174.889 953.223 169.089C953.223 163.289 954.39 158.223 956.723 153.889C959.123 149.556 962.457 146.223 966.723 143.889C970.99 141.556 975.89 140.389 981.423 140.389C986.823 140.389 991.623 141.523 995.823 143.789C1000.02 146.056 1003.29 149.289 1005.62 153.489C1008.02 157.689 1009.22 162.589 1009.22 168.189ZM991.723 163.689C991.723 160.756 990.723 158.423 988.723 156.689C986.723 154.956 984.223 154.089 981.223 154.089C978.357 154.089 975.923 154.923 973.923 156.589C971.99 158.256 970.79 160.623 970.323 163.689H991.723Z" fill="black"/>
<path d="M1035.34 150.489C1037.34 147.423 1039.84 145.023 1042.84 143.289C1045.84 141.489 1049.18 140.589 1052.84 140.589V158.689H1048.14C1043.88 158.689 1040.68 159.623 1038.54 161.489C1036.41 163.289 1035.34 166.489 1035.34 171.089V196.989H1018.24V141.189H1035.34V150.489Z" fill="black"/>
<path d="M1079.42 181.189L1068.32 209.889H1057.42L1063.22 181.189H1079.42Z" fill="black"/>
<path d="M50.782 264.989C49.5154 262.656 47.682 260.889 45.282 259.689C42.9487 258.423 40.182 257.789 36.982 257.789C31.4487 257.789 27.0154 259.623 23.682 263.289C20.3487 266.889 18.682 271.723 18.682 277.789C18.682 284.256 20.4154 289.323 23.882 292.989C27.4154 296.589 32.2487 298.389 38.382 298.389C42.582 298.389 46.1154 297.323 48.982 295.189C51.9154 293.056 54.0487 289.989 55.382 285.989H33.682V273.389H70.882V289.289C69.6154 293.556 67.4487 297.523 64.382 301.189C61.382 304.856 57.5487 307.823 52.882 310.089C48.2154 312.356 42.9487 313.489 37.082 313.489C30.1487 313.489 23.9487 311.989 18.482 308.989C13.082 305.923 8.8487 301.689 5.78203 296.289C2.78203 290.889 1.28203 284.723 1.28203 277.789C1.28203 270.856 2.78203 264.689 5.78203 259.289C8.8487 253.823 13.082 249.589 18.482 246.589C23.882 243.523 30.0487 241.989 36.982 241.989C45.382 241.989 52.4487 244.023 58.182 248.089C63.982 252.156 67.8154 257.789 69.682 264.989H50.782Z" fill="black"/>
<path d="M97.4539 266.489C99.4539 263.423 101.954 261.023 104.954 259.289C107.954 257.489 111.287 256.589 114.954 256.589V274.689H110.254C105.987 274.689 102.787 275.623 100.654 277.489C98.5206 279.289 97.4539 282.489 97.4539 287.089V312.989H80.3539V257.189H97.4539V266.489Z" fill="black"/>
<path d="M119.727 284.989C119.727 279.256 120.794 274.223 122.927 269.889C125.127 265.556 128.094 262.223 131.827 259.889C135.561 257.556 139.727 256.389 144.327 256.389C148.261 256.389 151.694 257.189 154.627 258.789C157.627 260.389 159.927 262.489 161.527 265.089V257.189H178.627V312.989H161.527V305.089C159.861 307.689 157.527 309.789 154.527 311.389C151.594 312.989 148.161 313.789 144.227 313.789C139.694 313.789 135.561 312.623 131.827 310.289C128.094 307.889 125.127 304.523 122.927 300.189C120.794 295.789 119.727 290.723 119.727 284.989ZM161.527 285.089C161.527 280.823 160.327 277.456 157.927 274.989C155.594 272.523 152.727 271.289 149.327 271.289C145.927 271.289 143.027 272.523 140.627 274.989C138.294 277.389 137.127 280.723 137.127 284.989C137.127 289.256 138.294 292.656 140.627 295.189C143.027 297.656 145.927 298.889 149.327 298.889C152.727 298.889 155.594 297.656 157.927 295.189C160.327 292.723 161.527 289.356 161.527 285.089Z" fill="black"/>
<path d="M208.098 265.089C209.765 262.489 212.065 260.389 214.998 258.789C217.932 257.189 221.365 256.389 225.298 256.389C229.898 256.389 234.065 257.556 237.798 259.889C241.532 262.223 244.465 265.556 246.598 269.889C248.798 274.223 249.898 279.256 249.898 284.989C249.898 290.723 248.798 295.789 246.598 300.189C244.465 304.523 241.532 307.889 237.798 310.289C234.065 312.623 229.898 313.789 225.298 313.789C221.432 313.789 217.998 312.989 214.998 311.389C212.065 309.789 209.765 307.723 208.098 305.189V339.589H190.998V257.189H208.098V265.089ZM232.498 284.989C232.498 280.723 231.298 277.389 228.898 274.989C226.565 272.523 223.665 271.289 220.198 271.289C216.798 271.289 213.898 272.523 211.498 274.989C209.165 277.456 207.998 280.823 207.998 285.089C207.998 289.356 209.165 292.723 211.498 295.189C213.898 297.656 216.798 298.889 220.198 298.889C223.598 298.889 226.498 297.656 228.898 295.189C231.298 292.656 232.498 289.256 232.498 284.989Z" fill="black"/>
<path d="M293.17 256.589C299.57 256.589 304.703 258.723 308.57 262.989C312.436 267.189 314.37 272.989 314.37 280.389V312.989H297.37V282.689C297.37 278.956 296.403 276.056 294.47 273.989C292.536 271.923 289.936 270.889 286.67 270.889C283.403 270.889 280.803 271.923 278.87 273.989C276.936 276.056 275.97 278.956 275.97 282.689V312.989H258.87V238.989H275.97V264.689C277.703 262.223 280.07 260.256 283.07 258.789C286.07 257.323 289.436 256.589 293.17 256.589Z" fill="black"/>
<path d="M352.345 285.089C352.345 279.289 353.511 274.223 355.845 269.889C358.245 265.556 361.545 262.223 365.745 259.889C370.011 257.556 374.878 256.389 380.345 256.389C387.345 256.389 393.178 258.223 397.845 261.889C402.578 265.556 405.678 270.723 407.145 277.389H388.945C387.411 273.123 384.445 270.989 380.045 270.989C376.911 270.989 374.411 272.223 372.545 274.689C370.678 277.089 369.745 280.556 369.745 285.089C369.745 289.623 370.678 293.123 372.545 295.589C374.411 297.989 376.911 299.189 380.045 299.189C384.445 299.189 387.411 297.056 388.945 292.789H407.145C405.678 299.323 402.578 304.456 397.845 308.189C393.111 311.923 387.278 313.789 380.345 313.789C374.878 313.789 370.011 312.623 365.745 310.289C361.545 307.956 358.245 304.623 355.845 300.289C353.511 295.956 352.345 290.889 352.345 285.089Z" fill="black"/>
<path d="M49.8821 126.789V140.489H21.2821V155.289H42.6821V168.589H21.2821V196.989H4.18213V126.789H49.8821Z" fill="black"/>
<path d="M75.9696 150.489C77.9696 147.423 80.4696 145.023 83.4696 143.289C86.4696 141.489 89.803 140.589 93.4696 140.589V158.689H88.7696C84.503 158.689 81.303 159.623 79.1696 161.489C77.0363 163.289 75.9696 166.489 75.9696 171.089V196.989H58.8696V141.189H75.9696V150.489Z" fill="black"/>
<path d="M127.043 197.789C121.576 197.789 116.643 196.623 112.243 194.289C107.91 191.956 104.476 188.623 101.943 184.289C99.4764 179.956 98.2431 174.889 98.2431 169.089C98.2431 163.356 99.5097 158.323 102.043 153.989C104.576 149.589 108.043 146.223 112.443 143.889C116.843 141.556 121.776 140.389 127.243 140.389C132.71 140.389 137.643 141.556 142.043 143.889C146.443 146.223 149.91 149.589 152.443 153.989C154.976 158.323 156.243 163.356 156.243 169.089C156.243 174.823 154.943 179.889 152.343 184.289C149.81 188.623 146.31 191.956 141.843 194.289C137.443 196.623 132.51 197.789 127.043 197.789ZM127.043 182.989C130.31 182.989 133.076 181.789 135.343 179.389C137.676 176.989 138.843 173.556 138.843 169.089C138.843 164.623 137.71 161.189 135.443 158.789C133.243 156.389 130.51 155.189 127.243 155.189C123.91 155.189 121.143 156.389 118.943 158.789C116.743 161.123 115.643 164.556 115.643 169.089C115.643 173.556 116.71 176.989 118.843 179.389C121.043 181.789 123.776 182.989 127.043 182.989Z" fill="black"/>
<path d="M199.315 140.589C205.848 140.589 211.048 142.723 214.915 146.989C218.848 151.189 220.815 156.989 220.815 164.389V196.989H203.815V166.689C203.815 162.956 202.848 160.056 200.915 157.989C198.982 155.923 196.382 154.889 193.115 154.889C189.848 154.889 187.248 155.923 185.315 157.989C183.382 160.056 182.415 162.956 182.415 166.689V196.989H165.315V141.189H182.415V148.589C184.148 146.123 186.482 144.189 189.415 142.789C192.348 141.323 195.648 140.589 199.315 140.589Z" fill="black"/>
<path d="M263.798 182.489V196.989H255.098C248.898 196.989 244.064 195.489 240.598 192.489C237.131 189.423 235.398 184.456 235.398 177.589V155.389H228.598V141.189H235.398V127.589H252.498V141.189H263.698V155.389H252.498V177.789C252.498 179.456 252.898 180.656 253.698 181.389C254.498 182.123 255.831 182.489 257.698 182.489H263.798Z" fill="black"/>
<path d="M316.323 154.789V168.989H272.323V154.789H316.323Z" fill="black"/>
<path d="M348.431 140.489V154.689H371.331V167.889H348.431V183.289H374.331V196.989H331.331V126.789H374.331V140.489H348.431Z" fill="black"/>
<path d="M419.432 140.589C425.965 140.589 431.165 142.723 435.032 146.989C438.965 151.189 440.932 156.989 440.932 164.389V196.989H423.932V166.689C423.932 162.956 422.965 160.056 421.032 157.989C419.099 155.923 416.499 154.889 413.232 154.889C409.965 154.889 407.365 155.923 405.432 157.989C403.499 160.056 402.532 162.956 402.532 166.689V196.989H385.432V141.189H402.532V148.589C404.265 146.123 406.599 144.189 409.532 142.789C412.465 141.323 415.765 140.589 419.432 140.589Z" fill="black"/>
<path d="M449.415 168.989C449.415 163.256 450.482 158.223 452.615 153.889C454.815 149.556 457.782 146.223 461.515 143.889C465.248 141.556 469.415 140.389 474.015 140.389C477.682 140.389 481.015 141.156 484.015 142.689C487.082 144.223 489.482 146.289 491.215 148.889V122.989H508.315V196.989H491.215V188.989C489.615 191.656 487.315 193.789 484.315 195.389C481.382 196.989 477.948 197.789 474.015 197.789C469.415 197.789 465.248 196.623 461.515 194.289C457.782 191.889 454.815 188.523 452.615 184.189C450.482 179.789 449.415 174.723 449.415 168.989ZM491.215 169.089C491.215 164.823 490.015 161.456 487.615 158.989C485.282 156.523 482.415 155.289 479.015 155.289C475.615 155.289 472.715 156.523 470.315 158.989C467.982 161.389 466.815 164.723 466.815 168.989C466.815 173.256 467.982 176.656 470.315 179.189C472.715 181.656 475.615 182.889 479.015 182.889C482.415 182.889 485.282 181.656 487.615 179.189C490.015 176.723 491.215 173.356 491.215 169.089Z" fill="black"/>
<path d="M463.783 242.789C471.183 242.789 477.65 244.256 483.183 247.189C488.716 250.123 492.983 254.256 495.983 259.589C499.05 264.856 500.583 270.956 500.583 277.889C500.583 284.756 499.05 290.856 495.983 296.189C492.983 301.523 488.683 305.656 483.083 308.589C477.55 311.523 471.116 312.989 463.783 312.989H437.483V242.789H463.783ZM462.683 298.189C469.15 298.189 474.183 296.423 477.783 292.889C481.383 289.356 483.183 284.356 483.183 277.889C483.183 271.423 481.383 266.389 477.783 262.789C474.183 259.189 469.15 257.389 462.683 257.389H454.583V298.189H462.683Z" fill="black"/>
<path d="M562.739 284.189C562.739 285.789 562.639 287.456 562.439 289.189H523.739C524.006 292.656 525.106 295.323 527.039 297.189C529.039 298.989 531.472 299.889 534.339 299.889C538.606 299.889 541.573 298.089 543.239 294.489H561.439C560.506 298.156 558.806 301.456 556.339 304.389C553.939 307.323 550.906 309.623 547.239 311.289C543.572 312.956 539.473 313.789 534.939 313.789C529.473 313.789 524.606 312.623 520.339 310.289C516.072 307.956 512.739 304.623 510.339 300.289C507.939 295.956 506.739 290.889 506.739 285.089C506.739 279.289 507.906 274.223 510.239 269.889C512.639 265.556 515.972 262.223 520.239 259.889C524.506 257.556 529.406 256.389 534.939 256.389C540.339 256.389 545.139 257.523 549.339 259.789C553.539 262.056 556.806 265.289 559.139 269.489C561.539 273.689 562.739 278.589 562.739 284.189ZM545.239 279.689C545.239 276.756 544.239 274.423 542.239 272.689C540.239 270.956 537.739 270.089 534.739 270.089C531.872 270.089 529.439 270.923 527.439 272.589C525.506 274.256 524.306 276.623 523.839 279.689H545.239Z" fill="black"/>
<path d="M594.46 313.789C589.594 313.789 585.26 312.956 581.46 311.289C577.66 309.623 574.66 307.356 572.46 304.489C570.26 301.556 569.027 298.289 568.76 294.689H585.66C585.86 296.623 586.76 298.189 588.36 299.389C589.96 300.589 591.927 301.189 594.26 301.189C596.394 301.189 598.027 300.789 599.16 299.989C600.36 299.123 600.96 298.023 600.96 296.689C600.96 295.089 600.127 293.923 598.46 293.189C596.794 292.389 594.094 291.523 590.36 290.589C586.36 289.656 583.027 288.689 580.36 287.689C577.694 286.623 575.394 284.989 573.46 282.789C571.527 280.523 570.56 277.489 570.56 273.689C570.56 270.489 571.427 267.589 573.16 264.989C574.96 262.323 577.56 260.223 580.96 258.689C584.427 257.156 588.527 256.389 593.26 256.389C600.26 256.389 605.76 258.123 609.76 261.589C613.827 265.056 616.16 269.656 616.76 275.389H600.96C600.694 273.456 599.827 271.923 598.36 270.789C596.96 269.656 595.094 269.089 592.76 269.089C590.76 269.089 589.227 269.489 588.16 270.289C587.094 271.023 586.56 272.056 586.56 273.389C586.56 274.989 587.394 276.189 589.06 276.989C590.794 277.789 593.46 278.589 597.06 279.389C601.194 280.456 604.56 281.523 607.16 282.589C609.76 283.589 612.027 285.256 613.96 287.589C615.96 289.856 616.994 292.923 617.06 296.789C617.06 300.056 616.127 302.989 614.26 305.589C612.46 308.123 609.827 310.123 606.36 311.589C602.96 313.056 598.994 313.789 594.46 313.789Z" fill="black"/>
<path d="M636.122 251.389C633.122 251.389 630.655 250.523 628.722 248.789C626.855 246.989 625.922 244.789 625.922 242.189C625.922 239.523 626.855 237.323 628.722 235.589C630.655 233.789 633.122 232.889 636.122 232.889C639.055 232.889 641.455 233.789 643.322 235.589C645.255 237.323 646.222 239.523 646.222 242.189C646.222 244.789 645.255 246.989 643.322 248.789C641.455 250.523 639.055 251.389 636.122 251.389ZM644.622 257.189V312.989H627.522V257.189H644.622Z" fill="black"/>
<path d="M678.214 256.389C682.147 256.389 685.581 257.189 688.514 258.789C691.514 260.389 693.814 262.489 695.414 265.089V257.189H712.514V312.889C712.514 318.023 711.481 322.656 709.414 326.789C707.414 330.989 704.314 334.323 700.114 336.789C695.981 339.256 690.814 340.489 684.614 340.489C676.347 340.489 669.647 338.523 664.514 334.589C659.381 330.723 656.447 325.456 655.714 318.789H672.614C673.147 320.923 674.414 322.589 676.414 323.789C678.414 325.056 680.881 325.689 683.814 325.689C687.348 325.689 690.147 324.656 692.214 322.589C694.347 320.589 695.414 317.356 695.414 312.889V304.989C693.747 307.589 691.447 309.723 688.514 311.389C685.581 312.989 682.147 313.789 678.214 313.789C673.614 313.789 669.447 312.623 665.714 310.289C661.981 307.889 659.014 304.523 656.814 300.189C654.681 295.789 653.614 290.723 653.614 284.989C653.614 279.256 654.681 274.223 656.814 269.889C659.014 265.556 661.981 262.223 665.714 259.889C669.447 257.556 673.614 256.389 678.214 256.389ZM695.414 285.089C695.414 280.823 694.214 277.456 691.814 274.989C689.481 272.523 686.614 271.289 683.214 271.289C679.814 271.289 676.914 272.523 674.514 274.989C672.181 277.389 671.014 280.723 671.014 284.989C671.014 289.256 672.181 292.656 674.514 295.189C676.914 297.656 679.814 298.889 683.214 298.889C686.614 298.889 689.481 297.656 691.814 295.189C694.214 292.723 695.414 289.356 695.414 285.089Z" fill="black"/>
<path d="M758.885 256.589C765.419 256.589 770.619 258.723 774.485 262.989C778.419 267.189 780.385 272.989 780.385 280.389V312.989H763.385V282.689C763.385 278.956 762.419 276.056 760.485 273.989C758.552 271.923 755.952 270.889 752.685 270.889C749.419 270.889 746.819 271.923 744.885 273.989C742.952 276.056 741.985 278.956 741.985 282.689V312.989H724.885V257.189H741.985V264.589C743.719 262.123 746.052 260.189 748.985 258.789C751.919 257.323 755.219 256.589 758.885 256.589Z" fill="black"/>
<path d="M844.868 284.189C844.868 285.789 844.768 287.456 844.568 289.189H805.868C806.135 292.656 807.235 295.323 809.168 297.189C811.168 298.989 813.601 299.889 816.468 299.889C820.735 299.889 823.701 298.089 825.368 294.489H843.568C842.635 298.156 840.935 301.456 838.468 304.389C836.068 307.323 833.035 309.623 829.368 311.289C825.701 312.956 821.601 313.789 817.068 313.789C811.601 313.789 806.735 312.623 802.468 310.289C798.201 307.956 794.868 304.623 792.468 300.289C790.068 295.956 788.868 290.889 788.868 285.089C788.868 279.289 790.035 274.223 792.368 269.889C794.768 265.556 798.101 262.223 802.368 259.889C806.635 257.556 811.535 256.389 817.068 256.389C822.468 256.389 827.268 257.523 831.468 259.789C835.668 262.056 838.935 265.289 841.268 269.489C843.668 273.689 844.868 278.589 844.868 284.189ZM827.368 279.689C827.368 276.756 826.368 274.423 824.368 272.689C822.368 270.956 819.868 270.089 816.868 270.089C814.001 270.089 811.568 270.923 809.568 272.589C807.635 274.256 806.435 276.623 805.968 279.689H827.368Z" fill="black"/>
<path d="M870.989 266.489C872.989 263.423 875.489 261.023 878.489 259.289C881.489 257.489 884.822 256.589 888.489 256.589V274.689H883.789C879.522 274.689 876.323 275.623 874.189 277.489C872.056 279.289 870.989 282.489 870.989 287.089V312.989H853.889V257.189H870.989V266.489Z" fill="black"/>
<g filter="url(#filter0_i_14_1684)">
<path d="M682.241 67.4114C682.241 65.6484 680.812 64.2192 679.049 64.2192H666.281C657.466 64.2192 650.32 71.3652 650.32 80.18C650.32 88.9284 657.35 95.6351 665.799 96.1133C666.257 96.1394 666.567 96.6087 666.387 97.03L663.133 104.642C662.401 106.353 663.196 108.333 664.907 109.064C666.618 109.795 668.597 109.001 669.328 107.29L673.266 98.0783C673.769 96.903 674.923 96.1407 676.201 96.1407H676.521C678.284 96.1407 679.713 94.7113 679.713 92.9486C679.713 91.1859 678.284 89.7564 676.521 89.7564H666.281C660.992 89.7564 656.704 85.4687 656.704 80.18C656.704 74.8912 660.992 70.6035 666.281 70.6035H679.049C680.812 70.6035 682.241 69.1743 682.241 67.4114Z" fill="url(#paint0_linear_14_1684)"/>
</g>
<path d="M682.241 67.4114C682.241 65.6484 680.812 64.2192 679.049 64.2192H666.281C657.466 64.2192 650.32 71.3652 650.32 80.18C650.32 88.9284 657.35 95.6351 665.799 96.1133C666.257 96.1394 666.567 96.6087 666.387 97.03L663.133 104.642C662.401 106.353 663.196 108.333 664.907 109.064C666.618 109.795 668.597 109.001 669.328 107.29L673.266 98.0783C673.769 96.903 674.923 96.1407 676.201 96.1407H676.521C678.284 96.1407 679.713 94.7113 679.713 92.9486C679.713 91.1859 678.284 89.7564 676.521 89.7564H666.281C660.992 89.7564 656.704 85.4687 656.704 80.18C656.704 74.8912 660.992 70.6035 666.281 70.6035H679.049C680.812 70.6035 682.241 69.1743 682.241 67.4114Z" fill="url(#paint1_radial_14_1684)"/>
<path d="M682.241 67.4114C682.241 65.6484 680.812 64.2192 679.049 64.2192H666.281C657.466 64.2192 650.32 71.3652 650.32 80.18C650.32 88.9284 657.35 95.6351 665.799 96.1133C666.257 96.1394 666.567 96.6087 666.387 97.03L663.133 104.642C662.401 106.353 663.196 108.333 664.907 109.064C666.618 109.795 668.597 109.001 669.328 107.29L673.266 98.0783C673.769 96.903 674.923 96.1407 676.201 96.1407H676.521C678.284 96.1407 679.713 94.7113 679.713 92.9486C679.713 91.1859 678.284 89.7564 676.521 89.7564H666.281C660.992 89.7564 656.704 85.4687 656.704 80.18C656.704 74.8912 660.992 70.6035 666.281 70.6035H679.049C680.812 70.6035 682.241 69.1743 682.241 67.4114Z" fill="url(#paint2_radial_14_1684)"/>
<path d="M682.241 67.4114C682.241 65.6484 680.812 64.2192 679.049 64.2192H666.281C657.466 64.2192 650.32 71.3652 650.32 80.18C650.32 88.9284 657.35 95.6351 665.799 96.1133C666.257 96.1394 666.567 96.6087 666.387 97.03L663.133 104.642C662.401 106.353 663.196 108.333 664.907 109.064C666.618 109.795 668.597 109.001 669.328 107.29L673.266 98.0783C673.769 96.903 674.923 96.1407 676.201 96.1407H676.521C678.284 96.1407 679.713 94.7113 679.713 92.9486C679.713 91.1859 678.284 89.7564 676.521 89.7564H666.281C660.992 89.7564 656.704 85.4687 656.704 80.18C656.704 74.8912 660.992 70.6035 666.281 70.6035H679.049C680.812 70.6035 682.241 69.1743 682.241 67.4114Z" fill="url(#paint3_radial_14_1684)"/>
<path d="M682.241 67.4114C682.241 65.6484 680.812 64.2192 679.049 64.2192H666.281C657.466 64.2192 650.32 71.3652 650.32 80.18C650.32 88.9284 657.35 95.6351 665.799 96.1133C666.257 96.1394 666.567 96.6087 666.387 97.03L663.133 104.642C662.401 106.353 663.196 108.333 664.907 109.064C666.618 109.795 668.597 109.001 669.328 107.29L673.266 98.0783C673.769 96.903 674.923 96.1407 676.201 96.1407H676.521C678.284 96.1407 679.713 94.7113 679.713 92.9486C679.713 91.1859 678.284 89.7564 676.521 89.7564H666.281C660.992 89.7564 656.704 85.4687 656.704 80.18C656.704 74.8912 660.992 70.6035 666.281 70.6035H679.049C680.812 70.6035 682.241 69.1743 682.241 67.4114Z" fill="url(#paint4_radial_14_1684)"/>
<path d="M682.241 67.4114C682.241 65.6484 680.812 64.2192 679.049 64.2192H666.281C657.466 64.2192 650.32 71.3652 650.32 80.18C650.32 88.9284 657.35 95.6351 665.799 96.1133C666.257 96.1394 666.567 96.6087 666.387 97.03L663.133 104.642C662.401 106.353 663.196 108.333 664.907 109.064C666.618 109.795 668.597 109.001 669.328 107.29L673.266 98.0783C673.769 96.903 674.923 96.1407 676.201 96.1407H676.521C678.284 96.1407 679.713 94.7113 679.713 92.9486C679.713 91.1859 678.284 89.7564 676.521 89.7564H666.281C660.992 89.7564 656.704 85.4687 656.704 80.18C656.704 74.8912 660.992 70.6035 666.281 70.6035H679.049C680.812 70.6035 682.241 69.1743 682.241 67.4114Z" fill="url(#paint5_radial_14_1684)"/>
<path d="M682.241 67.4114C682.241 65.6484 680.812 64.2192 679.049 64.2192H666.281C657.466 64.2192 650.32 71.3652 650.32 80.18C650.32 88.9284 657.35 95.6351 665.799 96.1133C666.257 96.1394 666.567 96.6087 666.387 97.03L663.133 104.642C662.401 106.353 663.196 108.333 664.907 109.064C666.618 109.795 668.597 109.001 669.328 107.29L673.266 98.0783C673.769 96.903 674.923 96.1407 676.201 96.1407H676.521C678.284 96.1407 679.713 94.7113 679.713 92.9486C679.713 91.1859 678.284 89.7564 676.521 89.7564H666.281C660.992 89.7564 656.704 85.4687 656.704 80.18C656.704 74.8912 660.992 70.6035 666.281 70.6035H679.049C680.812 70.6035 682.241 69.1743 682.241 67.4114Z" fill="url(#paint6_radial_14_1684)"/>
<path d="M682.241 67.4114C682.241 65.6484 680.812 64.2192 679.049 64.2192H666.281C657.466 64.2192 650.32 71.3652 650.32 80.18C650.32 88.9284 657.35 95.6351 665.799 96.1133C666.257 96.1394 666.567 96.6087 666.387 97.03L663.133 104.642C662.401 106.353 663.196 108.333 664.907 109.064C666.618 109.795 668.597 109.001 669.328 107.29L673.266 98.0783C673.769 96.903 674.923 96.1407 676.201 96.1407H676.521C678.284 96.1407 679.713 94.7113 679.713 92.9486C679.713 91.1859 678.284 89.7564 676.521 89.7564H666.281C660.992 89.7564 656.704 85.4687 656.704 80.18C656.704 74.8912 660.992 70.6035 666.281 70.6035H679.049C680.812 70.6035 682.241 69.1743 682.241 67.4114Z" fill="url(#paint7_radial_14_1684)"/>
<path d="M715.859 113.598L718.951 94.4451" stroke="url(#paint8_radial_14_1684)" stroke-width="6.38429" stroke-miterlimit="10" stroke-linecap="round" stroke-linejoin="round"/>
<path d="M672.665 163.176C672.665 180.805 658.373 195.097 640.743 195.097C623.114 195.097 608.822 180.805 608.822 163.176C608.822 145.546 623.114 131.254 640.743 131.254C658.373 131.254 672.665 145.546 672.665 163.176Z" stroke="url(#paint9_linear_14_1684)" stroke-width="6.38429" stroke-miterlimit="10" stroke-linecap="round" stroke-linejoin="round"/>
<path d="M781.198 163.176C781.198 180.805 766.906 195.097 749.276 195.097C731.647 195.097 717.355 180.805 717.355 163.176C717.355 145.546 731.647 131.254 749.276 131.254C766.906 131.254 781.198 145.546 781.198 163.176Z" stroke="url(#paint10_linear_14_1684)" stroke-width="6.38429" stroke-miterlimit="10" stroke-linecap="round" stroke-linejoin="round"/>
<path d="M781.198 163.176C781.198 180.805 766.906 195.097 749.276 195.097C731.647 195.097 717.355 180.805 717.355 163.176C717.355 145.546 731.647 131.254 749.276 131.254C766.906 131.254 781.198 145.546 781.198 163.176Z" stroke="url(#paint11_radial_14_1684)" stroke-width="6.38429" stroke-miterlimit="10" stroke-linecap="round" stroke-linejoin="round"/>
<g filter="url(#filter1_f_14_1684)">
<path d="M749.969 194.537C767.671 194.537 782.021 180.186 782.021 162.484C782.021 144.783 767.671 130.432 749.969 130.432C732.266 130.432 717.917 144.783 717.917 162.484C717.917 180.186 732.266 194.537 749.969 194.537Z" stroke="url(#paint12_linear_14_1684)" stroke-width="1.59607" stroke-miterlimit="10" stroke-linecap="round" stroke-linejoin="round"/>
</g>
<g filter="url(#filter2_f_14_1684)">
<path d="M640.744 194.537C658.446 194.537 672.796 180.186 672.796 162.484C672.796 144.783 658.446 130.432 640.744 130.432C623.042 130.432 608.691 144.783 608.691 162.484C608.691 180.186 623.042 194.537 640.744 194.537Z" stroke="url(#paint13_linear_14_1684)" stroke-width="1.59607" stroke-miterlimit="10" stroke-linecap="round" stroke-linejoin="round"/>
</g>
<g filter="url(#filter3_i_14_1684)">
<path d="M669.668 107.223C670.498 105.352 669.656 103.162 667.786 102.331C665.916 101.5 663.726 102.342 662.895 104.212L637.357 161.671C636.526 163.541 637.368 165.731 639.239 166.563C641.109 167.393 643.299 166.551 644.13 164.681L660.473 127.91C660.643 127.527 661.129 127.409 661.455 127.671L705.464 162.878C706.486 163.695 707.862 163.913 709.087 163.451C710.311 162.989 711.201 161.916 711.428 160.628L719.069 117.331C719.121 117.037 719.512 116.969 719.661 117.229L746.506 164.247C747.521 166.024 749.784 166.642 751.562 165.628C753.339 164.613 753.957 162.35 752.942 160.572L720.573 103.88C719.8 102.524 718.259 101.799 716.721 102.066C715.183 102.333 713.977 103.536 713.706 105.074L705.215 153.187L664.69 120.767C664.237 120.405 664.085 119.782 664.321 119.252L669.668 107.223Z" fill="url(#paint14_linear_14_1684)"/>
<path d="M669.668 107.223C670.498 105.352 669.656 103.162 667.786 102.331C665.916 101.5 663.726 102.342 662.895 104.212L637.357 161.671C636.526 163.541 637.368 165.731 639.239 166.563C641.109 167.393 643.299 166.551 644.13 164.681L660.473 127.91C660.643 127.527 661.129 127.409 661.455 127.671L705.464 162.878C706.486 163.695 707.862 163.913 709.087 163.451C710.311 162.989 711.201 161.916 711.428 160.628L719.069 117.331C719.121 117.037 719.512 116.969 719.661 117.229L746.506 164.247C747.521 166.024 749.784 166.642 751.562 165.628C753.339 164.613 753.957 162.35 752.942 160.572L720.573 103.88C719.8 102.524 718.259 101.799 716.721 102.066C715.183 102.333 713.977 103.536 713.706 105.074L705.215 153.187L664.69 120.767C664.237 120.405 664.085 119.782 664.321 119.252L669.668 107.223Z" fill="url(#paint15_radial_14_1684)"/>
<path d="M669.668 107.223C670.498 105.352 669.656 103.162 667.786 102.331C665.916 101.5 663.726 102.342 662.895 104.212L637.357 161.671C636.526 163.541 637.368 165.731 639.239 166.563C641.109 167.393 643.299 166.551 644.13 164.681L660.473 127.91C660.643 127.527 661.129 127.409 661.455 127.671L705.464 162.878C706.486 163.695 707.862 163.913 709.087 163.451C710.311 162.989 711.201 161.916 711.428 160.628L719.069 117.331C719.121 117.037 719.512 116.969 719.661 117.229L746.506 164.247C747.521 166.024 749.784 166.642 751.562 165.628C753.339 164.613 753.957 162.35 752.942 160.572L720.573 103.88C719.8 102.524 718.259 101.799 716.721 102.066C715.183 102.333 713.977 103.536 713.706 105.074L705.215 153.187L664.69 120.767C664.237 120.405 664.085 119.782 664.321 119.252L669.668 107.223Z" fill="#3E6EFF"/>
</g>
<g filter="url(#filter4_i_14_1684)">
<path d="M752.469 156.16L709.066 147.328C701.644 146.313 695.01 152.268 695.01 159.984C695.01 167.699 701.578 173.654 709.066 172.639L752.469 169.56C755.753 169.086 758.183 166.244 758.183 162.86C758.183 159.476 755.687 156.566 752.469 156.16Z" fill="#FFB650"/>
<path d="M752.469 156.16L709.066 147.328C701.644 146.313 695.01 152.268 695.01 159.984C695.01 167.699 701.578 173.654 709.066 172.639L752.469 169.56C755.753 169.086 758.183 166.244 758.183 162.86C758.183 159.476 755.687 156.566 752.469 156.16Z" fill="url(#paint16_radial_14_1684)"/>
<path d="M752.469 156.16L709.066 147.328C701.644 146.313 695.01 152.268 695.01 159.984C695.01 167.699 701.578 173.654 709.066 172.639L752.469 169.56C755.753 169.086 758.183 166.244 758.183 162.86C758.183 159.476 755.687 156.566 752.469 156.16Z" fill="url(#paint17_linear_14_1684)"/>
<path d="M752.469 156.16L709.066 147.328C701.644 146.313 695.01 152.268 695.01 159.984C695.01 167.699 701.578 173.654 709.066 172.639L752.469 169.56C755.753 169.086 758.183 166.244 758.183 162.86C758.183 159.476 755.687 156.566 752.469 156.16Z" fill="url(#paint18_radial_14_1684)"/>
</g>
<g filter="url(#filter5_i_14_1684)">
<path d="M725.336 83.3721H712.567C709.041 83.3721 706.183 86.2304 706.183 89.7564C706.183 93.2823 709.041 96.1407 712.567 96.1407H725.336C728.861 96.1407 731.72 93.2823 731.72 89.7564C731.72 86.2304 728.861 83.3721 725.336 83.3721Z" fill="#A86F5F"/>
<path d="M725.336 83.3721H712.567C709.041 83.3721 706.183 86.2304 706.183 89.7564C706.183 93.2823 709.041 96.1407 712.567 96.1407H725.336C728.861 96.1407 731.72 93.2823 731.72 89.7564C731.72 86.2304 728.861 83.3721 725.336 83.3721Z" fill="url(#paint19_radial_14_1684)"/>
</g>
<path d="M685.433 64.2192H672.665C670.902 64.2192 669.473 65.6484 669.473 67.4114C669.473 69.1744 670.902 70.6035 672.665 70.6035H685.433C687.196 70.6035 688.626 69.1744 688.626 67.4114C688.626 65.6484 687.196 64.2192 685.433 64.2192Z" fill="url(#paint20_linear_14_1684)"/>
<path d="M685.433 64.2192H672.665C670.902 64.2192 669.473 65.6484 669.473 67.4114C669.473 69.1744 670.902 70.6035 672.665 70.6035H685.433C687.196 70.6035 688.626 69.1744 688.626 67.4114C688.626 65.6484 687.196 64.2192 685.433 64.2192Z" fill="url(#paint21_radial_14_1684)"/>
<path d="M685.433 64.2192H672.665C670.902 64.2192 669.473 65.6484 669.473 67.4114C669.473 69.1744 670.902 70.6035 672.665 70.6035H685.433C687.196 70.6035 688.626 69.1744 688.626 67.4114C688.626 65.6484 687.196 64.2192 685.433 64.2192Z" fill="url(#paint22_radial_14_1684)"/>
<path d="M707.779 166.368C711.305 166.368 714.163 163.51 714.163 159.984C714.163 156.458 711.305 153.6 707.779 153.6C704.253 153.6 701.395 156.458 701.395 159.984C701.395 163.51 704.253 166.368 707.779 166.368Z" fill="url(#paint23_radial_14_1684)"/>
<g filter="url(#filter6_f_14_1684)">
<path d="M715.26 87.5615H729.425" stroke="url(#paint24_linear_14_1684)" stroke-width="2.55372"/>
</g>
<g filter="url(#filter7_i_14_1684)">
<path d="M340.49 307.622C340.396 310.765 337.762 313.231 334.619 313.119C331.632 313.012 329.241 310.604 329.155 307.617L327.626 254.755L342.076 254.626L340.49 307.622Z" fill="#3E6EFF"/>
</g>
<g filter="url(#filter8_i_14_1684)">
<path d="M325.258 238.104C323.535 241.454 323.69 245.625 326.015 248.914C329.343 253.622 335.857 254.74 340.565 251.412C345.272 248.084 346.39 241.57 343.062 236.862C342.466 236.018 341.767 235.29 340.994 234.682C339.798 233.565 338.287 231.433 338.891 229.135C339 228.72 338.968 228.268 338.72 227.917C338.404 227.47 337.828 227.288 337.324 227.501C332.166 229.691 327.589 232.85 325.258 238.104Z" fill="url(#paint25_radial_14_1684)"/>
</g>
<path d="M325.258 238.104C323.535 241.454 323.69 245.625 326.015 248.914C329.343 253.622 335.857 254.74 340.565 251.412C345.272 248.084 346.39 241.57 343.062 236.862C342.466 236.018 341.767 235.29 340.994 234.682C339.798 233.565 338.287 231.433 338.891 229.135C339 228.72 338.968 228.268 338.72 227.917C338.404 227.47 337.828 227.288 337.324 227.501C332.166 229.691 327.589 232.85 325.258 238.104Z" fill="url(#paint26_radial_14_1684)"/>
<path d="M325.258 238.104C323.535 241.454 323.69 245.625 326.015 248.914C329.343 253.622 335.857 254.74 340.565 251.412C345.272 248.084 346.39 241.57 343.062 236.862C342.466 236.018 341.767 235.29 340.994 234.682C339.798 233.565 338.287 231.433 338.891 229.135C339 228.72 338.968 228.268 338.72 227.917C338.404 227.47 337.828 227.288 337.324 227.501C332.166 229.691 327.589 232.85 325.258 238.104Z" fill="url(#paint27_linear_14_1684)"/>
<path d="M342.453 258.204C342.449 258.762 341.994 259.211 341.436 259.207L328.262 259.108C327.704 259.104 327.255 258.649 327.26 258.091L327.294 253.44C327.305 252.045 328.444 250.922 329.839 250.933L339.981 251.009C341.376 251.019 342.499 252.158 342.488 253.553L342.453 258.204Z" fill="#9E98A3"/>
<path d="M342.453 258.204C342.449 258.762 341.994 259.211 341.436 259.207L328.262 259.108C327.704 259.104 327.255 258.649 327.26 258.091L327.294 253.44C327.305 252.045 328.444 250.922 329.839 250.933L339.981 251.009C341.376 251.019 342.499 252.158 342.488 253.553L342.453 258.204Z" fill="url(#paint28_linear_14_1684)"/>
<path d="M342.453 258.204C342.449 258.762 341.994 259.211 341.436 259.207L328.262 259.108C327.704 259.104 327.255 258.649 327.26 258.091L327.294 253.44C327.305 252.045 328.444 250.922 329.839 250.933L339.981 251.009C341.376 251.019 342.499 252.158 342.488 253.553L342.453 258.204Z" fill="url(#paint29_linear_14_1684)"/>
<path d="M342.453 258.204C342.449 258.762 341.994 259.211 341.436 259.207L328.262 259.108C327.704 259.104 327.255 258.649 327.26 258.091L327.294 253.44C327.305 252.045 328.444 250.922 329.839 250.933L339.981 251.009C341.376 251.019 342.499 252.158 342.488 253.553L342.453 258.204Z" fill="url(#paint30_linear_14_1684)"/>
<path d="M342.453 258.204C342.449 258.762 341.994 259.211 341.436 259.207L328.262 259.108C327.704 259.104 327.255 258.649 327.26 258.091L327.294 253.44C327.305 252.045 328.444 250.922 329.839 250.933L339.981 251.009C341.376 251.019 342.499 252.158 342.488 253.553L342.453 258.204Z" fill="url(#paint31_radial_14_1684)"/>
<path d="M342.453 258.204C342.449 258.762 341.994 259.211 341.436 259.207L328.262 259.108C327.704 259.104 327.255 258.649 327.26 258.091L327.294 253.44C327.305 252.045 328.444 250.922 329.839 250.933L339.981 251.009C341.376 251.019 342.499 252.158 342.488 253.553L342.453 258.204Z" fill="url(#paint32_radial_14_1684)"/>
<path d="M555.454 82.1018C571.548 82.1018 584.594 69.0554 584.594 52.9618C584.594 36.8682 571.548 23.8218 555.454 23.8218C539.361 23.8218 526.314 36.8682 526.314 52.9618C526.314 69.0554 539.361 82.1018 555.454 82.1018Z" fill="url(#paint33_radial_14_1684)"/>
<path d="M555.454 82.1018C571.548 82.1018 584.594 69.0554 584.594 52.9618C584.594 36.8682 571.548 23.8218 555.454 23.8218C539.361 23.8218 526.314 36.8682 526.314 52.9618C526.314 69.0554 539.361 82.1018 555.454 82.1018Z" fill="url(#paint34_radial_14_1684)"/>
<path d="M555.454 82.1018C571.548 82.1018 584.594 69.0554 584.594 52.9618C584.594 36.8682 571.548 23.8218 555.454 23.8218C539.361 23.8218 526.314 36.8682 526.314 52.9618C526.314 69.0554 539.361 82.1018 555.454 82.1018Z" fill="url(#paint35_radial_14_1684)"/>
<path d="M555.454 82.1018C571.548 82.1018 584.594 69.0554 584.594 52.9618C584.594 36.8682 571.548 23.8218 555.454 23.8218C539.361 23.8218 526.314 36.8682 526.314 52.9618C526.314 69.0554 539.361 82.1018 555.454 82.1018Z" fill="url(#paint36_radial_14_1684)"/>
<path d="M555.871 69.1971C564.699 69.1971 571.856 62.0402 571.856 53.2117C571.856 44.3832 564.699 37.2263 555.871 37.2263C547.042 37.2263 539.885 44.3832 539.885 53.2117C539.885 62.0402 547.042 69.1971 555.871 69.1971Z" fill="#E1D3F1"/>
<path d="M555.871 69.1971C564.699 69.1971 571.856 62.0402 571.856 53.2117C571.856 44.3832 564.699 37.2263 555.871 37.2263C547.042 37.2263 539.885 44.3832 539.885 53.2117C539.885 62.0402 547.042 69.1971 555.871 69.1971Z" fill="url(#paint37_radial_14_1684)"/>
<path d="M555.871 69.1971C564.699 69.1971 571.856 62.0402 571.856 53.2117C571.856 44.3832 564.699 37.2263 555.871 37.2263C547.042 37.2263 539.885 44.3832 539.885 53.2117C539.885 62.0402 547.042 69.1971 555.871 69.1971Z" fill="url(#paint38_radial_14_1684)"/>
<path d="M555.871 69.1971C564.699 69.1971 571.856 62.0402 571.856 53.2117C571.856 44.3832 564.699 37.2263 555.871 37.2263C547.042 37.2263 539.885 44.3832 539.885 53.2117C539.885 62.0402 547.042 69.1971 555.871 69.1971Z" fill="url(#paint39_radial_14_1684)"/>
<path d="M555.871 63.8685C561.756 63.8685 566.528 59.0973 566.528 53.2116C566.528 47.326 561.756 42.5547 555.871 42.5547C549.985 42.5547 545.214 47.326 545.214 53.2116C545.214 59.0973 549.985 63.8685 555.871 63.8685Z" fill="url(#paint40_radial_14_1684)"/>
<path d="M555.871 58.54C558.814 58.54 561.199 56.1543 561.199 53.2115C561.199 50.2687 558.814 47.8831 555.871 47.8831C552.928 47.8831 550.542 50.2687 550.542 53.2115C550.542 56.1543 552.928 58.54 555.871 58.54Z" fill="url(#paint41_radial_14_1684)"/>
<path d="M555.871 58.54C558.814 58.54 561.199 56.1543 561.199 53.2115C561.199 50.2687 558.814 47.8831 555.871 47.8831C552.928 47.8831 550.542 50.2687 550.542 53.2115C550.542 56.1543 552.928 58.54 555.871 58.54Z" fill="url(#paint42_radial_14_1684)"/>
<defs>
<filter id="filter0_i_14_1684" x="650.32" y="62.9424" width="33.1982" height="46.3938" filterUnits="userSpaceOnUse" color-interpolation-filters="sRGB">
<feFlood flood-opacity="0" result="BackgroundImageFix"/>
<feBlend mode="normal" in="SourceGraphic" in2="BackgroundImageFix" result="shape"/>
<feColorMatrix in="SourceAlpha" type="matrix" values="0 0 0 0 0 0 0 0 0 0 0 0 0 0 0 0 0 0 127 0" result="hardAlpha"/>
<feOffset dx="1.27686" dy="-1.27686"/>
<feGaussianBlur stdDeviation="1.59607"/>
<feComposite in2="hardAlpha" operator="arithmetic" k2="-1" k3="1"/>
<feColorMatrix type="matrix" values="0 0 0 0 0.603922 0 0 0 0 0.407843 0 0 0 0 0.74902 0 0 0 1 0"/>
<feBlend mode="normal" in2="shape" result="effect1_innerShadow_14_1684"/>
</filter>
<filter id="filter1_f_14_1684" x="715.523" y="128.038" width="68.8919" height="68.893" filterUnits="userSpaceOnUse" color-interpolation-filters="sRGB">
<feFlood flood-opacity="0" result="BackgroundImageFix"/>
<feBlend mode="normal" in="SourceGraphic" in2="BackgroundImageFix" result="shape"/>
<feGaussianBlur stdDeviation="0.798037" result="effect1_foregroundBlur_14_1684"/>
</filter>
<filter id="filter2_f_14_1684" x="606.297" y="128.038" width="68.8926" height="68.893" filterUnits="userSpaceOnUse" color-interpolation-filters="sRGB">
<feFlood flood-opacity="0" result="BackgroundImageFix"/>
<feBlend mode="normal" in="SourceGraphic" in2="BackgroundImageFix" result="shape"/>
<feGaussianBlur stdDeviation="0.798037" result="effect1_foregroundBlur_14_1684"/>
</filter>
<filter id="filter3_i_14_1684" x="637.037" y="102.01" width="118.309" height="64.8721" filterUnits="userSpaceOnUse" color-interpolation-filters="sRGB">
<feFlood flood-opacity="0" result="BackgroundImageFix"/>
<feBlend mode="normal" in="SourceGraphic" in2="BackgroundImageFix" result="shape"/>
<feColorMatrix in="SourceAlpha" type="matrix" values="0 0 0 0 0 0 0 0 0 0 0 0 0 0 0 0 0 0 127 0" result="hardAlpha"/>
<feOffset dx="1.91529"/>
<feGaussianBlur stdDeviation="1.59607"/>
<feComposite in2="hardAlpha" operator="arithmetic" k2="-1" k3="1"/>
<feColorMatrix type="matrix" values="0 0 0 0 0 0 0 0 0 0.146513 0 0 0 0 0.558333 0 0 0 1 0"/>
<feBlend mode="normal" in2="shape" result="effect1_innerShadow_14_1684"/>
</filter>
<filter id="filter4_i_14_1684" x="695.01" y="145.619" width="64.7694" height="27.1332" filterUnits="userSpaceOnUse" color-interpolation-filters="sRGB">
<feFlood flood-opacity="0" result="BackgroundImageFix"/>
<feBlend mode="normal" in="SourceGraphic" in2="BackgroundImageFix" result="shape"/>
<feColorMatrix in="SourceAlpha" type="matrix" values="0 0 0 0 0 0 0 0 0 0 0 0 0 0 0 0 0 0 127 0" result="hardAlpha"/>
<feOffset dx="1.59607" dy="-1.59607"/>
<feGaussianBlur stdDeviation="1.59607"/>
<feComposite in2="hardAlpha" operator="arithmetic" k2="-1" k3="1"/>
<feColorMatrix type="matrix" values="0 0 0 0 0.972549 0 0 0 0 0.427451 0 0 0 0 0.45098 0 0 0 1 0"/>
<feBlend mode="normal" in2="shape" result="effect1_innerShadow_14_1684"/>
</filter>
<filter id="filter5_i_14_1684" x="706.183" y="79.5415" width="28.0908" height="16.5991" filterUnits="userSpaceOnUse" color-interpolation-filters="sRGB">
<feFlood flood-opacity="0" result="BackgroundImageFix"/>
<feBlend mode="normal" in="SourceGraphic" in2="BackgroundImageFix" result="shape"/>
<feColorMatrix in="SourceAlpha" type="matrix" values="0 0 0 0 0 0 0 0 0 0 0 0 0 0 0 0 0 0 127 0" result="hardAlpha"/>
<feOffset dx="2.55372" dy="-3.83058"/>
<feGaussianBlur stdDeviation="2.55372"/>
<feComposite in2="hardAlpha" operator="arithmetic" k2="-1" k3="1"/>
<feColorMatrix type="matrix" values="0 0 0 0 0.447059 0 0 0 0 0.192157 0 0 0 0 0.34902 0 0 0 1 0"/>
<feBlend mode="normal" in2="shape" result="effect1_innerShadow_14_1684"/>
</filter>
<filter id="filter6_f_14_1684" x="712.707" y="83.731" width="19.2725" height="7.66115" filterUnits="userSpaceOnUse" color-interpolation-filters="sRGB">
<feFlood flood-opacity="0" result="BackgroundImageFix"/>
<feBlend mode="normal" in="SourceGraphic" in2="BackgroundImageFix" result="shape"/>
<feGaussianBlur stdDeviation="1.27686" result="effect1_foregroundBlur_14_1684"/>
</filter>
<filter id="filter7_i_14_1684" x="327.626" y="254.626" width="16.3443" height="58.4962" filterUnits="userSpaceOnUse" color-interpolation-filters="sRGB">
<feFlood flood-opacity="0" result="BackgroundImageFix"/>
<feBlend mode="normal" in="SourceGraphic" in2="BackgroundImageFix" result="shape"/>
<feColorMatrix in="SourceAlpha" type="matrix" values="0 0 0 0 0 0 0 0 0 0 0 0 0 0 0 0 0 0 127 0" result="hardAlpha"/>
<feOffset dx="1.89436"/>
<feGaussianBlur stdDeviation="2.52581"/>
<feComposite in2="hardAlpha" operator="arithmetic" k2="-1" k3="1"/>
<feColorMatrix type="matrix" values="0 0 0 0 0.130556 0 0 0 0 0.277334 0 0 0 0 0.783333 0 0 0 1 0"/>
<feBlend mode="normal" in2="shape" result="effect1_innerShadow_14_1684"/>
</filter>
<filter id="filter8_i_14_1684" x="324.099" y="227.412" width="22.1421" height="25.9156" filterUnits="userSpaceOnUse" color-interpolation-filters="sRGB">
<feFlood flood-opacity="0" result="BackgroundImageFix"/>
<feBlend mode="normal" in="SourceGraphic" in2="BackgroundImageFix" result="shape"/>
<feColorMatrix in="SourceAlpha" type="matrix" values="0 0 0 0 0 0 0 0 0 0 0 0 0 0 0 0 0 0 127 0" result="hardAlpha"/>
<feOffset dx="1.2629"/>
<feGaussianBlur stdDeviation="1.89436"/>
<feComposite in2="hardAlpha" operator="arithmetic" k2="-1" k3="1"/>
<feColorMatrix type="matrix" values="0 0 0 0 0.839216 0 0 0 0 0.466667 0 0 0 0 0.262745 0 0 0 1 0"/>
<feBlend mode="normal" in2="shape" result="effect1_innerShadow_14_1684"/>
</filter>
<linearGradient id="paint0_linear_14_1684" x1="666.281" y1="64.2192" x2="666.281" y2="109.336" gradientUnits="userSpaceOnUse">
<stop stop-color="#B5A5C6"/>
<stop offset="1" stop-color="#D1BBE7"/>
</linearGradient>
<radialGradient id="paint1_radial_14_1684" cx="0" cy="0" r="1" gradientUnits="userSpaceOnUse" gradientTransform="translate(680.148 91.6321) rotate(155.462) scale(5.41387 4.47591)">
<stop stop-color="#FFFBFF"/>
<stop offset="1" stop-color="#FFFBFF" stop-opacity="0"/>
</radialGradient>
<radialGradient id="paint2_radial_14_1684" cx="0" cy="0" r="1" gradientUnits="userSpaceOnUse" gradientTransform="translate(663.787 104.421) rotate(-65.9798) scale(10.0475 2.73031)">
<stop stop-color="#7F7987"/>
<stop offset="1" stop-color="#7F7987" stop-opacity="0"/>
</radialGradient>
<radialGradient id="paint3_radial_14_1684" cx="0" cy="0" r="1" gradientUnits="userSpaceOnUse" gradientTransform="translate(682.241 90.9184) rotate(-144.06) scale(38.0387 26.9134)">
<stop offset="0.819127" stop-color="#7C7B7D" stop-opacity="0"/>
<stop offset="0.949105" stop-color="#7C7B7D"/>
</radialGradient>
<radialGradient id="paint4_radial_14_1684" cx="0" cy="0" r="1" gradientUnits="userSpaceOnUse" gradientTransform="translate(667.159 84.663) rotate(120.399) scale(8.67568 12.7651)">
<stop offset="0.325017" stop-color="#B7B5BB"/>
<stop offset="1" stop-color="#B7B5BB" stop-opacity="0"/>
</radialGradient>
<radialGradient id="paint5_radial_14_1684" cx="0" cy="0" r="1" gradientUnits="userSpaceOnUse" gradientTransform="translate(670.029 69.8339) rotate(143.842) scale(11.4592 4.01679)">
<stop stop-color="#A972D4"/>
<stop offset="1" stop-color="#A972D4" stop-opacity="0"/>
</radialGradient>
<radialGradient id="paint6_radial_14_1684" cx="0" cy="0" r="1" gradientUnits="userSpaceOnUse" gradientTransform="translate(672.786 62.628) rotate(161.565) scale(11.5343 1.69662)">
<stop stop-color="#BDB6C2"/>
<stop offset="1" stop-color="#BDB6C2" stop-opacity="0"/>
</radialGradient>
<radialGradient id="paint7_radial_14_1684" cx="0" cy="0" r="1" gradientUnits="userSpaceOnUse" gradientTransform="translate(668.483 104.194) rotate(-71.2001) scale(10.496 2.61229)">
<stop stop-color="#E1C9F8"/>
<stop offset="1" stop-color="#E1C9F8" stop-opacity="0"/>
</radialGradient>
<radialGradient id="paint8_radial_14_1684" cx="0" cy="0" r="1" gradientUnits="userSpaceOnUse" gradientTransform="translate(720.334 104.022) rotate(180) scale(5.95933 11.7529)">
<stop stop-color="#E6D6F2"/>
<stop offset="1" stop-color="#7B6787"/>
</radialGradient>
<linearGradient id="paint9_linear_14_1684" x1="660.133" y1="141.158" x2="611.712" y2="188.977" gradientUnits="userSpaceOnUse">
<stop offset="0.00558659" stop-color="#2E2060"/>
<stop offset="1" stop-color="#411461"/>
</linearGradient>
<linearGradient id="paint10_linear_14_1684" x1="768.666" y1="141.158" x2="720.245" y2="188.977" gradientUnits="userSpaceOnUse">
<stop offset="0.00558659" stop-color="#2E2060"/>
<stop offset="1" stop-color="#411461"/>
</linearGradient>
<radialGradient id="paint11_radial_14_1684" cx="0" cy="0" r="1" gradientUnits="userSpaceOnUse" gradientTransform="translate(714.163 155.738) rotate(-11.2812) scale(35.8054 29.7689)">
<stop stop-color="#291C31"/>
<stop offset="1" stop-color="#291C31" stop-opacity="0"/>
</radialGradient>
<linearGradient id="paint12_linear_14_1684" x1="773.274" y1="137.067" x2="731.472" y2="194.537" gradientUnits="userSpaceOnUse">
<stop stop-color="#3C4372"/>
<stop offset="0.258913" stop-color="#472E57" stop-opacity="0"/>
<stop offset="0.759234" stop-color="#472E57" stop-opacity="0"/>
<stop offset="1" stop-color="#472E57"/>
</linearGradient>
<linearGradient id="paint13_linear_14_1684" x1="664.049" y1="137.067" x2="622.247" y2="194.537" gradientUnits="userSpaceOnUse">
<stop stop-color="#3C4372"/>
<stop offset="0.258913" stop-color="#472E57" stop-opacity="0"/>
<stop offset="0.759234" stop-color="#472E57" stop-opacity="0"/>
<stop offset="1" stop-color="#472E57"/>
</linearGradient>
<linearGradient id="paint14_linear_14_1684" x1="649.659" y1="135.474" x2="740.099" y2="135.474" gradientUnits="userSpaceOnUse">
<stop stop-color="#DF3C6D"/>
<stop offset="1" stop-color="#FF4C65"/>
</linearGradient>
<radialGradient id="paint15_radial_14_1684" cx="0" cy="0" r="1" gradientUnits="userSpaceOnUse" gradientTransform="translate(721.944 123.075) rotate(-109.799) scale(13.2527 2.63569)">
<stop offset="0.285151" stop-color="#9E4049"/>
<stop offset="1" stop-color="#9E4049" stop-opacity="0"/>
</radialGradient>
<radialGradient id="paint16_radial_14_1684" cx="0" cy="0" r="1" gradientUnits="userSpaceOnUse" gradientTransform="translate(757.257 158.088) rotate(163.578) scale(9.87976 18.5196)">
<stop stop-color="#FFED66"/>
<stop offset="1" stop-color="#FFED66" stop-opacity="0"/>
</radialGradient>
<linearGradient id="paint17_linear_14_1684" x1="728.61" y1="150.167" x2="726.597" y2="159.984" gradientUnits="userSpaceOnUse">
<stop stop-color="#FFCA44"/>
<stop offset="1" stop-color="#FFCA44" stop-opacity="0"/>
</linearGradient>
<radialGradient id="paint18_radial_14_1684" cx="0" cy="0" r="1" gradientUnits="userSpaceOnUse" gradientTransform="translate(732.917 172.752) rotate(-143.817) scale(43.2567 43.4441)">
<stop offset="0.799663" stop-color="#C28849" stop-opacity="0"/>
<stop offset="0.951574" stop-color="#C28849"/>
</radialGradient>
<radialGradient id="paint19_radial_14_1684" cx="0" cy="0" r="1" gradientUnits="userSpaceOnUse" gradientTransform="translate(730.722 84.5691) rotate(130.972) scale(10.0411 8.40633)">
<stop stop-color="#C4877A"/>
<stop offset="1" stop-color="#C4877A" stop-opacity="0"/>
</radialGradient>
<linearGradient id="paint20_linear_14_1684" x1="679.049" y1="68.6258" x2="679.049" y2="70.6035" gradientUnits="userSpaceOnUse">
<stop stop-color="#3B2E4C"/>
<stop offset="1" stop-color="#47265F"/>
</linearGradient>
<radialGradient id="paint21_radial_14_1684" cx="0" cy="0" r="1" gradientUnits="userSpaceOnUse" gradientTransform="translate(684.814 67.0931) rotate(180) scale(12.4201 2.21976)">
<stop stop-color="#423E47"/>
<stop offset="1" stop-color="#423E47" stop-opacity="0"/>
</radialGradient>
<radialGradient id="paint22_radial_14_1684" cx="0" cy="0" r="1" gradientUnits="userSpaceOnUse" gradientTransform="translate(689.095 67.4114) rotate(180) scale(5.60224 5.28627)">
<stop stop-color="#575657"/>
<stop offset="1" stop-color="#575657" stop-opacity="0"/>
</radialGradient>
<radialGradient id="paint23_radial_14_1684" cx="0" cy="0" r="1" gradientUnits="userSpaceOnUse" gradientTransform="translate(704.305 163.458) rotate(-35.0738) scale(10.7835)">
<stop stop-color="#E7E4EA"/>
<stop offset="1" stop-color="#CDC3D9"/>
</radialGradient>
<linearGradient id="paint24_linear_14_1684" x1="nan" y1="nan" x2="nan" y2="nan" gradientUnits="userSpaceOnUse">
<stop stop-color="#C58677"/>
<stop offset="1" stop-color="#C58677" stop-opacity="0"/>
</linearGradient>
<radialGradient id="paint25_radial_14_1684" cx="0" cy="0" r="1" gradientUnits="userSpaceOnUse" gradientTransform="translate(333.949 248.377) rotate(-88.2769) scale(16.0073 13.6051)">
<stop offset="0.169422" stop-color="#FFD060"/>
<stop offset="1" stop-color="#FF9452"/>
</radialGradient>
<radialGradient id="paint26_radial_14_1684" cx="0" cy="0" r="1" gradientUnits="userSpaceOnUse" gradientTransform="translate(339.186 244.651) rotate(-132.341) scale(15.966 22.4786)">
<stop offset="0.723529" stop-color="#FF836A" stop-opacity="0"/>
<stop offset="1" stop-color="#FF6677"/>
</radialGradient>
<linearGradient id="paint27_linear_14_1684" x1="334.074" y1="252.324" x2="333.905" y2="249.35" gradientUnits="userSpaceOnUse">
<stop offset="0.245714" stop-color="#FCA94C"/>
<stop offset="1" stop-color="#FCA94C" stop-opacity="0"/>
</linearGradient>
<linearGradient id="paint28_linear_14_1684" x1="334.909" y1="250.171" x2="334.903" y2="253.58" gradientUnits="userSpaceOnUse">
<stop offset="0.0865052" stop-color="#9A7F86"/>
<stop offset="1" stop-color="#9A7F86" stop-opacity="0"/>
</linearGradient>
<linearGradient id="paint29_linear_14_1684" x1="342.847" y1="255.652" x2="334.376" y2="255.787" gradientUnits="userSpaceOnUse">
<stop offset="0.12496" stop-color="#7F7D80"/>
<stop offset="1" stop-color="#7F7D80" stop-opacity="0"/>
</linearGradient>
<linearGradient id="paint30_linear_14_1684" x1="325.029" y1="253.752" x2="331.908" y2="254.16" gradientUnits="userSpaceOnUse">
<stop stop-color="#AE7FCD"/>
<stop offset="1" stop-color="#AE7FCD" stop-opacity="0"/>
</linearGradient>
<radialGradient id="paint31_radial_14_1684" cx="0" cy="0" r="1" gradientUnits="userSpaceOnUse" gradientTransform="translate(333.865 261.123) rotate(-85.3536) scale(9.41456 8.49131)">
<stop stop-color="#B9B0C3"/>
<stop offset="1" stop-color="#A199A9" stop-opacity="0"/>
</radialGradient>
<radialGradient id="paint32_radial_14_1684" cx="0" cy="0" r="1" gradientUnits="userSpaceOnUse" gradientTransform="translate(333.555 260.684) rotate(-87.0259) scale(3.76775 6.99505)">
<stop offset="0.174504" stop-color="#B9B0C3"/>
<stop offset="1" stop-color="#B9B0C3" stop-opacity="0"/>
</radialGradient>
<radialGradient id="paint33_radial_14_1684" cx="0" cy="0" r="1" gradientUnits="userSpaceOnUse" gradientTransform="translate(576.529 43.7255) rotate(138.325) scale(44.4125 50.2364)">
<stop offset="0.0190182" stop-color="#7CB1E6"/>
<stop offset="1" stop-color="#426BBE"/>
</radialGradient>
<radialGradient id="paint34_radial_14_1684" cx="0" cy="0" r="1" gradientUnits="userSpaceOnUse" gradientTransform="translate(557.146 83.9231) rotate(-90) scale(30.9613 67.6626)">
<stop stop-color="#5963EE"/>
<stop offset="1" stop-color="#5963EE" stop-opacity="0"/>
</radialGradient>
<radialGradient id="paint35_radial_14_1684" cx="0" cy="0" r="1" gradientUnits="userSpaceOnUse" gradientTransform="translate(555.454 48.929) rotate(90) scale(33.1728)">
<stop offset="0.92549" stop-color="#7160EE" stop-opacity="0"/>
<stop offset="1" stop-color="#7160EE"/>
</radialGradient>
<radialGradient id="paint36_radial_14_1684" cx="0" cy="0" r="1" gradientUnits="userSpaceOnUse" gradientTransform="translate(560.918 58.4256) rotate(-135) scale(40.3823 40.1886)">
<stop offset="0.8041" stop-color="#516B97" stop-opacity="0"/>
<stop offset="1" stop-color="#516B97"/>
</radialGradient>
<radialGradient id="paint37_radial_14_1684" cx="0" cy="0" r="1" gradientUnits="userSpaceOnUse" gradientTransform="translate(554.544 55.3035) rotate(123.996) scale(13.4942 15.0813)">
<stop offset="0.49368" stop-color="#D5A8FE"/>
<stop offset="1" stop-color="#D5A8FE" stop-opacity="0"/>
</radialGradient>
<radialGradient id="paint38_radial_14_1684" cx="0" cy="0" r="1" gradientUnits="userSpaceOnUse" gradientTransform="translate(553.178 50.4902) rotate(-133.949) scale(10.0283 10.7556)">
<stop offset="0.498277" stop-color="#BFB6C9"/>
<stop offset="1" stop-color="#BFB6C9" stop-opacity="0"/>
</radialGradient>
<radialGradient id="paint39_radial_14_1684" cx="0" cy="0" r="1" gradientUnits="userSpaceOnUse" gradientTransform="translate(556.756 51.4009) rotate(-47.0902) scale(12.6106 12.7988)">
<stop offset="0.554219" stop-color="#F9F2FF"/>
<stop offset="1" stop-color="#F9F2FF" stop-opacity="0"/>
</radialGradient>
<radialGradient id="paint40_radial_14_1684" cx="0" cy="0" r="1" gradientUnits="userSpaceOnUse" gradientTransform="translate(560.138 48.5388) rotate(130.079) scale(13.9414 17.3182)">
<stop stop-color="#5ED3FF"/>
<stop offset="1" stop-color="#53B6FF"/>
</radialGradient>
<radialGradient id="paint41_radial_14_1684" cx="0" cy="0" r="1" gradientUnits="userSpaceOnUse" gradientTransform="translate(551.487 56.1489) rotate(-39.1032) scale(10.0034 7.81511)">
<stop stop-color="#59545E"/>
<stop offset="0.764654" stop-color="#312939"/>
</radialGradient>
<radialGradient id="paint42_radial_14_1684" cx="0" cy="0" r="1" gradientUnits="userSpaceOnUse" gradientTransform="translate(555.871 47.1728) rotate(90) scale(8.06554 7.7663)">
<stop stop-color="#422559"/>
<stop offset="1" stop-color="#422559" stop-opacity="0"/>
</radialGradient>
</defs>
</svg>
