<svg width="296" height="96" viewBox="0 0 296 96" fill="none" xmlns="http://www.w3.org/2000/svg">
<path d="M13.7642 2.78133V16.168C13.7642 18.2404 13.1761 19.8367 11.9999 20.9569C10.8423 22.0771 9.27399 22.6372 7.29494 22.6372C5.22253 22.6372 3.56087 22.0491 2.30996 20.8729C1.05905 19.6967 0.433594 18.0257 0.433594 15.8599H5.19453C5.19453 16.6814 5.36256 17.3069 5.69863 17.7363C6.03469 18.147 6.52012 18.3524 7.15491 18.3524C7.73369 18.3524 8.18178 18.1657 8.49918 17.7923C8.81657 17.4189 8.97527 16.8774 8.97527 16.168V2.78133H13.7642Z" fill="#283146"/>
<path d="M33.0635 6.81413V22.4412H28.2746V20.3128C27.7891 21.0036 27.1263 21.5637 26.2862 21.9931C25.4647 22.4039 24.5498 22.6092 23.5416 22.6092C22.3467 22.6092 21.2919 22.3478 20.377 21.8251C19.4622 21.2836 18.7527 20.5088 18.2486 19.5006C17.7445 18.4924 17.4924 17.3069 17.4924 15.9439V6.81413H22.2534V15.2998C22.2534 16.3453 22.5241 17.1575 23.0655 17.7363C23.607 18.315 24.3351 18.6044 25.25 18.6044C26.1835 18.6044 26.921 18.315 27.4624 17.7363C28.0038 17.1575 28.2746 16.3453 28.2746 15.2998V6.81413H33.0635Z" fill="#283146"/>
<path d="M42.8606 22.6652C41.4977 22.6652 40.2841 22.4319 39.2199 21.9651C38.1557 21.4983 37.3155 20.8636 36.6994 20.0607C36.0833 19.2392 35.7379 18.3244 35.6632 17.3162H40.3961C40.4521 17.8576 40.7042 18.2964 41.1523 18.6324C41.6004 18.9685 42.1511 19.1365 42.8046 19.1365C43.402 19.1365 43.8595 19.0245 44.1769 18.8005C44.5129 18.5578 44.681 18.2497 44.681 17.8763C44.681 17.4282 44.4476 17.1015 43.9808 16.8961C43.5141 16.6721 42.7579 16.4293 41.7124 16.168C40.5922 15.9066 39.6586 15.6359 38.9118 15.3558C38.165 15.0571 37.5209 14.5997 36.9795 13.9835C36.438 13.3487 36.1673 12.4992 36.1673 11.435C36.1673 10.5389 36.41 9.7267 36.8954 8.99855C37.3995 8.25174 38.1277 7.66362 39.0799 7.23421C40.0507 6.80479 41.1989 6.59008 42.5245 6.59008C44.4849 6.59008 46.0252 7.07551 47.1454 8.04637C48.2843 9.01723 48.9378 10.3055 49.1058 11.9111H44.681C44.6063 11.3697 44.3636 10.9403 43.9528 10.6229C43.5607 10.3055 43.038 10.1468 42.3845 10.1468C41.8244 10.1468 41.395 10.2588 41.0963 10.4828C40.7975 10.6882 40.6482 10.9776 40.6482 11.351C40.6482 11.7991 40.8815 12.1352 41.3483 12.3592C41.8337 12.5833 42.5806 12.8073 43.5887 13.0313C44.7463 13.3301 45.6892 13.6288 46.4173 13.9275C47.1454 14.2076 47.7802 14.6743 48.3217 15.3278C48.8818 15.9626 49.1712 16.8214 49.1898 17.9043C49.1898 18.8191 48.9285 19.6406 48.4057 20.3688C47.9016 21.0783 47.1641 21.6384 46.1933 22.0491C45.2411 22.4599 44.1302 22.6652 42.8606 22.6652Z" fill="#283146"/>
<path d="M60.8294 18.3804V22.4412H58.3929C56.6566 22.4412 55.303 22.0211 54.3321 21.1809C53.3613 20.3221 52.8759 18.9312 52.8759 17.0081V10.7909H50.9715V6.81413H52.8759V3.00538H57.6648V6.81413H60.8014V10.7909H57.6648V17.0641C57.6648 17.5309 57.7768 17.867 58.0009 18.0723C58.2249 18.2777 58.5983 18.3804 59.1211 18.3804H60.8294Z" fill="#283146"/>
<path d="M68.4795 14.5997C68.4795 12.994 68.7782 11.5844 69.3757 10.3708C69.9918 9.15725 70.8226 8.22374 71.8682 7.57027C72.9137 6.91681 74.0806 6.59008 75.3689 6.59008C76.4704 6.59008 77.4319 6.81412 78.2534 7.26221C79.0936 7.7103 79.7377 8.29842 80.1858 9.02656V6.81413H84.9747V22.4412H80.1858V20.2288C79.719 20.9569 79.0656 21.545 78.2254 21.9931C77.4039 22.4412 76.4424 22.6652 75.3409 22.6652C74.0713 22.6652 72.9137 22.3385 71.8682 21.685C70.8226 21.0129 69.9918 20.0701 69.3757 18.8565C68.7782 17.6242 68.4795 16.2053 68.4795 14.5997ZM80.1858 14.6277C80.1858 13.4328 79.8497 12.4899 79.1776 11.7991C78.5241 11.1083 77.7213 10.7629 76.7691 10.7629C75.8169 10.7629 75.0048 11.1083 74.3326 11.7991C73.6792 12.4712 73.3525 13.4048 73.3525 14.5997C73.3525 15.7946 73.6792 16.7467 74.3326 17.4562C75.0048 18.147 75.8169 18.4924 76.7691 18.4924C77.7213 18.4924 78.5241 18.147 79.1776 17.4562C79.8497 16.7654 80.1858 15.8226 80.1858 14.6277Z" fill="#283146"/>
<path d="M96.7545 5.18981C95.9144 5.18981 95.2236 4.94709 94.6821 4.46166C94.1594 3.95756 93.898 3.34144 93.898 2.6133C93.898 1.86649 94.1594 1.25037 94.6821 0.764938C95.2236 0.260839 95.9144 0.00878906 96.7545 0.00878906C97.576 0.00878906 98.2482 0.260839 98.7709 0.764938C99.3124 1.25037 99.5831 1.86649 99.5831 2.6133C99.5831 3.34144 99.3124 3.95756 98.7709 4.46166C98.2482 4.94709 97.576 5.18981 96.7545 5.18981ZM99.163 24.4576C99.163 26.3806 98.6776 27.7622 97.7067 28.6024C96.7359 29.4612 95.3823 29.8907 93.6459 29.8907H91.7696V25.8299H92.9178C93.4406 25.8299 93.814 25.7272 94.038 25.5218C94.2621 25.3164 94.3741 24.9804 94.3741 24.5136V6.81413H99.163V24.4576Z" fill="#283146"/>
<path d="M118.037 6.81413V22.4412H113.248V20.3128C112.763 21.0036 112.1 21.5637 111.26 21.9931C110.438 22.4039 109.524 22.6092 108.515 22.6092C107.32 22.6092 106.266 22.3478 105.351 21.8251C104.436 21.2836 103.726 20.5088 103.222 19.5006C102.718 18.4924 102.466 17.3069 102.466 15.9439V6.81413H107.227V15.2998C107.227 16.3453 107.498 17.1575 108.039 17.7363C108.581 18.315 109.309 18.6044 110.224 18.6044C111.157 18.6044 111.895 18.315 112.436 17.7363C112.978 17.1575 113.248 16.3453 113.248 15.2998V6.81413H118.037Z" fill="#283146"/>
<path d="M130.999 6.64609C132.829 6.64609 134.285 7.24354 135.368 8.43845C136.469 9.61468 137.02 11.239 137.02 13.3114V22.4412H132.259V13.9555C132.259 12.91 131.988 12.0978 131.447 11.519C130.906 10.9403 130.177 10.6509 129.263 10.6509C128.348 10.6509 127.62 10.9403 127.078 11.519C126.537 12.0978 126.266 12.91 126.266 13.9555V22.4412H121.477V6.81413H126.266V8.88653C126.751 8.19573 127.405 7.65429 128.226 7.26221C129.048 6.85147 129.972 6.64609 130.999 6.64609Z" fill="#283146"/>
<path d="M142.756 5.18981C141.916 5.18981 141.225 4.94709 140.684 4.46166C140.161 3.95756 139.9 3.34144 139.9 2.6133C139.9 1.86649 140.161 1.25037 140.684 0.764938C141.225 0.260839 141.916 0.00878906 142.756 0.00878906C143.578 0.00878906 144.25 0.260839 144.773 0.764938C145.314 1.25037 145.585 1.86649 145.585 2.6133C145.585 3.34144 145.314 3.95756 144.773 4.46166C144.25 4.94709 143.578 5.18981 142.756 5.18981ZM145.137 6.81413V22.4412H140.348V6.81413H145.137Z" fill="#283146"/>
<path d="M171.228 9.41864C171.788 8.5598 172.488 7.88767 173.328 7.40224C174.169 6.89814 175.102 6.64609 176.129 6.64609V11.7151H174.813C173.618 11.7151 172.722 11.9765 172.124 12.4992C171.527 13.0033 171.228 13.8995 171.228 15.1878V22.4412H166.439V6.81413H171.228V9.41864Z" fill="#283146"/>
<path d="M151.074 47.086C151.074 45.4804 151.373 44.0708 151.97 42.8572C152.586 41.6436 153.417 40.7101 154.462 40.0566C155.508 39.4032 156.675 39.0765 157.963 39.0765C158.99 39.0765 159.924 39.2912 160.764 39.7206C161.623 40.15 162.295 40.7288 162.78 41.4569V34.2035H167.569V54.9276H162.78V52.6871C162.332 53.4339 161.688 54.0314 160.848 54.4795C160.026 54.9276 159.065 55.1516 157.963 55.1516C156.675 55.1516 155.508 54.8249 154.462 54.1714C153.417 53.4993 152.586 52.5564 151.97 51.3429C151.373 50.1106 151.074 48.6917 151.074 47.086ZM162.78 47.114C162.78 45.9191 162.444 44.9763 161.772 44.2855C161.118 43.5947 160.316 43.2493 159.363 43.2493C158.411 43.2493 157.599 43.5947 156.927 44.2855C156.274 44.9576 155.947 45.8911 155.947 47.086C155.947 48.2809 156.274 49.2331 156.927 49.9426C157.599 50.6334 158.411 50.9788 159.363 50.9788C160.316 50.9788 161.118 50.6334 161.772 49.9426C162.444 49.2518 162.78 48.3089 162.78 47.114Z" fill="#283146"/>
<path d="M220.868 34.2035V54.9276H216.079V34.2035H220.868Z" fill="#283146"/>
<path d="M231.452 55.1516C229.921 55.1516 228.539 54.8249 227.307 54.1714C226.093 53.518 225.132 52.5844 224.422 51.3709C223.732 50.1573 223.386 48.7384 223.386 47.114C223.386 45.5084 223.741 44.0988 224.45 42.8852C225.16 41.653 226.131 40.7101 227.363 40.0566C228.595 39.4032 229.977 39.0765 231.508 39.0765C233.039 39.0765 234.42 39.4032 235.653 40.0566C236.885 40.7101 237.856 41.653 238.565 42.8852C239.275 44.0988 239.629 45.5084 239.629 47.114C239.629 48.7197 239.265 50.1386 238.537 51.3709C237.828 52.5844 236.848 53.518 235.597 54.1714C234.364 54.8249 232.983 55.1516 231.452 55.1516ZM231.452 51.0068C232.367 51.0068 233.141 50.6707 233.776 49.9986C234.43 49.3265 234.756 48.3649 234.756 47.114C234.756 45.8631 234.439 44.9016 233.804 44.2295C233.188 43.5573 232.423 43.2213 231.508 43.2213C230.574 43.2213 229.8 43.5573 229.183 44.2295C228.567 44.8829 228.259 45.8445 228.259 47.114C228.259 48.3649 228.558 49.3265 229.155 49.9986C229.772 50.6707 230.537 51.0068 231.452 51.0068Z" fill="#283146"/>
<path d="M246.959 41.5129C247.426 40.7848 248.07 40.1967 248.891 39.7486C249.713 39.3005 250.674 39.0765 251.776 39.0765C253.064 39.0765 254.231 39.4032 255.277 40.0566C256.322 40.7101 257.144 41.6436 257.741 42.8572C258.357 44.0708 258.665 45.4804 258.665 47.086C258.665 48.6917 258.357 50.1106 257.741 51.3429C257.144 52.5564 256.322 53.4993 255.277 54.1714C254.231 54.8249 253.064 55.1516 251.776 55.1516C250.693 55.1516 249.732 54.9276 248.891 54.4795C248.07 54.0314 247.426 53.4526 246.959 52.7431V62.377H242.17V39.3005H246.959V41.5129ZM253.792 47.086C253.792 45.8911 253.456 44.9576 252.784 44.2855C252.131 43.5947 251.319 43.2493 250.348 43.2493C249.395 43.2493 248.583 43.5947 247.911 44.2855C247.258 44.9763 246.931 45.9191 246.931 47.114C246.931 48.3089 247.258 49.2518 247.911 49.9426C248.583 50.6334 249.395 50.9788 250.348 50.9788C251.3 50.9788 252.112 50.6334 252.784 49.9426C253.456 49.2331 253.792 48.2809 253.792 47.086Z" fill="#283146"/>
<path d="M275.909 46.862C275.909 47.3101 275.881 47.7768 275.825 48.2623H264.986C265.061 49.2331 265.369 49.9799 265.911 50.5027C266.471 51.0068 267.152 51.2588 267.955 51.2588C269.15 51.2588 269.981 50.7547 270.448 49.7466H275.545C275.283 50.7734 274.807 51.6976 274.116 52.5191C273.444 53.3406 272.595 53.9847 271.568 54.4515C270.541 54.9182 269.393 55.1516 268.123 55.1516C266.592 55.1516 265.229 54.8249 264.034 54.1714C262.839 53.518 261.906 52.5844 261.234 51.3709C260.562 50.1573 260.226 48.7384 260.226 47.114C260.226 45.4897 260.552 44.0708 261.206 42.8572C261.878 41.6436 262.811 40.7101 264.006 40.0566C265.201 39.4032 266.573 39.0765 268.123 39.0765C269.635 39.0765 270.98 39.3939 272.156 40.0286C273.332 40.6634 274.247 41.5689 274.9 42.7452C275.573 43.9214 275.909 45.2937 275.909 46.862ZM271.008 45.6017C271.008 44.7802 270.728 44.1268 270.167 43.6414C269.607 43.1559 268.907 42.9132 268.067 42.9132C267.264 42.9132 266.583 43.1466 266.023 43.6133C265.481 44.0801 265.145 44.7429 265.014 45.6017H271.008Z" fill="#283146"/>
<path d="M283.224 41.905C283.784 41.0462 284.484 40.374 285.324 39.8886C286.165 39.3845 287.098 39.1325 288.125 39.1325V44.2015H286.809C285.614 44.2015 284.718 44.4628 284.12 44.9856C283.523 45.4897 283.224 46.3859 283.224 47.6741V54.9276H278.435V39.3005H283.224V41.905Z" fill="#283146"/>
<path d="M295.567 50.5027L292.458 58.5403H289.406L291.03 50.5027H295.567Z" fill="#283146"/>
<path d="M14.4924 73.9713C14.1376 73.3178 13.6242 72.8231 12.952 72.487C12.2986 72.1323 11.5238 71.9549 10.6276 71.9549C9.07796 71.9549 7.83638 72.4683 6.90286 73.4952C5.96935 74.5034 5.50259 75.857 5.50259 77.556C5.50259 79.367 5.98802 80.786 6.95887 81.8128C7.9484 82.821 9.302 83.3251 11.0197 83.3251C12.1959 83.3251 13.1854 83.0264 13.9883 82.429C14.8097 81.8315 15.4072 80.9727 15.7806 79.8525H9.70341V76.3238H20.1215V80.7766C19.7667 81.9715 19.1599 83.0824 18.3011 84.1093C17.4609 85.1362 16.3874 85.967 15.0805 86.6018C13.7735 87.2366 12.2986 87.554 10.6556 87.554C8.71388 87.554 6.97754 87.1339 5.44658 86.2937C3.93428 85.4349 2.74871 84.2493 1.88988 82.737C1.04971 81.2247 0.629632 79.4977 0.629632 77.556C0.629632 75.6143 1.04971 73.8873 1.88988 72.375C2.74871 70.844 3.93428 69.6585 5.44658 68.8183C6.95887 67.9595 8.68588 67.53 10.6276 67.53C12.9801 67.53 14.9591 68.0995 16.5648 69.2384C18.1891 70.3773 19.2626 71.9549 19.7854 73.9713H14.4924Z" fill="#283146"/>
<path d="M27.563 74.3914C28.1232 73.5326 28.8233 72.8604 29.6635 72.375C30.5036 71.8709 31.4371 71.6188 32.464 71.6188V76.6878H31.1477C29.9528 76.6878 29.0567 76.9492 28.4592 77.472C27.8618 77.9761 27.563 78.8723 27.563 80.1605V87.4139H22.7741V71.7869H27.563V74.3914Z" fill="#283146"/>
<path d="M33.8008 79.5724C33.8008 77.9668 34.0996 76.5571 34.697 75.3436C35.3131 74.13 36.144 73.1965 37.1895 72.543C38.235 71.8896 39.4019 71.5628 40.6902 71.5628C41.7917 71.5628 42.7533 71.7869 43.5747 72.235C44.4149 72.6831 45.059 73.2712 45.5071 73.9993V71.7869H50.2961V87.4139H45.5071V85.2015C45.0404 85.9297 44.3869 86.5178 43.5467 86.9659C42.7252 87.4139 41.7637 87.638 40.6622 87.638C39.3926 87.638 38.235 87.3113 37.1895 86.6578C36.144 85.9857 35.3131 85.0428 34.697 83.8292C34.0996 82.597 33.8008 81.1781 33.8008 79.5724ZM45.5071 79.6004C45.5071 78.4055 45.1711 77.4627 44.4989 76.7719C43.8455 76.081 43.0426 75.7356 42.0905 75.7356C41.1383 75.7356 40.3261 76.081 39.654 76.7719C39.0005 77.444 38.6738 78.3775 38.6738 79.5724C38.6738 80.7673 39.0005 81.7195 39.654 82.429C40.3261 83.1198 41.1383 83.4652 42.0905 83.4652C43.0426 83.4652 43.8455 83.1198 44.4989 82.429C45.1711 81.7382 45.5071 80.7953 45.5071 79.6004Z" fill="#283146"/>
<path d="M58.5496 73.9993C59.0163 73.2712 59.6605 72.6831 60.482 72.235C61.3035 71.7869 62.265 71.5628 63.3665 71.5628C64.6548 71.5628 65.8217 71.8896 66.8672 72.543C67.9128 73.1965 68.7343 74.13 69.3317 75.3436C69.9478 76.5571 70.2559 77.9668 70.2559 79.5724C70.2559 81.1781 69.9478 82.597 69.3317 83.8292C68.7343 85.0428 67.9128 85.9857 66.8672 86.6578C65.8217 87.3113 64.6548 87.638 63.3665 87.638C62.2837 87.638 61.3221 87.4139 60.482 86.9659C59.6605 86.5178 59.0163 85.939 58.5496 85.2295V94.8634H53.7606V71.7869H58.5496V73.9993ZM65.3829 79.5724C65.3829 78.3775 65.0469 77.444 64.3747 76.7719C63.7213 76.081 62.9091 75.7356 61.9383 75.7356C60.9861 75.7356 60.1739 76.081 59.5018 76.7719C58.8483 77.4627 58.5216 78.4055 58.5216 79.6004C58.5216 80.7953 58.8483 81.7382 59.5018 82.429C60.1739 83.1198 60.9861 83.4652 61.9383 83.4652C62.8904 83.4652 63.7026 83.1198 64.3747 82.429C65.0469 81.7195 65.3829 80.7673 65.3829 79.5724Z" fill="#283146"/>
<path d="M82.3742 71.6188C84.1665 71.6188 85.6041 72.2163 86.687 73.4112C87.7699 74.5874 88.3113 76.2117 88.3113 78.2841V87.4139H83.5504V78.9283C83.5504 77.8827 83.2797 77.0706 82.7382 76.4918C82.1968 75.913 81.4686 75.6236 80.5538 75.6236C79.639 75.6236 78.9108 75.913 78.3694 76.4918C77.8279 77.0706 77.5572 77.8827 77.5572 78.9283V87.4139H72.7683V66.6899H77.5572V73.8873C78.0426 73.1965 78.7054 72.6457 79.5456 72.235C80.3858 71.8242 81.3286 71.6188 82.3742 71.6188Z" fill="#283146"/>
<path d="M98.9464 79.6004C98.9464 77.9761 99.2732 76.5571 99.9266 75.3436C100.599 74.13 101.523 73.1965 102.699 72.543C103.894 71.8896 105.257 71.5628 106.788 71.5628C108.748 71.5628 110.382 72.0763 111.689 73.1031C113.015 74.13 113.883 75.577 114.293 77.444H109.196C108.767 76.2491 107.936 75.6516 106.704 75.6516C105.826 75.6516 105.126 75.997 104.604 76.6878C104.081 77.36 103.819 78.3308 103.819 79.6004C103.819 80.87 104.081 81.8502 104.604 82.541C105.126 83.2131 105.826 83.5492 106.704 83.5492C107.936 83.5492 108.767 82.9517 109.196 81.7568H114.293C113.883 83.5865 113.015 85.0241 111.689 86.0697C110.363 87.1152 108.73 87.638 106.788 87.638C105.257 87.638 103.894 87.3113 102.699 86.6578C101.523 86.0043 100.599 85.0708 99.9266 83.8572C99.2732 82.6437 98.9464 81.2247 98.9464 79.6004Z" fill="#283146"/>
<path d="M14.2404 35.2676V39.1043H6.23083V43.2491H12.224V46.9739H6.23083V54.9274H1.44189V35.2676H14.2404Z" fill="#283146"/>
<path d="M21.5463 41.9049C22.1065 41.046 22.8066 40.3739 23.6468 39.8885C24.4869 39.3844 25.4204 39.1323 26.4473 39.1323V44.2013H25.131C23.9361 44.2013 23.04 44.4627 22.4425 44.9855C21.8451 45.4896 21.5463 46.3858 21.5463 47.674V54.9274H16.7574V39.3004H21.5463V41.9049Z" fill="#283146"/>
<path d="M35.8497 55.1515C34.3187 55.1515 32.9371 54.8248 31.7049 54.1713C30.4913 53.5178 29.5298 52.5843 28.8203 51.3707C28.1295 50.1572 27.7841 48.7382 27.7841 47.1139C27.7841 45.5083 28.1389 44.0986 28.8483 42.8851C29.5578 41.6528 30.5287 40.71 31.7609 40.0565C32.9931 39.4031 34.3748 39.0763 35.9057 39.0763C37.4367 39.0763 38.8183 39.4031 40.0505 40.0565C41.2828 40.71 42.2536 41.6528 42.9631 42.8851C43.6726 44.0986 44.0273 45.5083 44.0273 47.1139C44.0273 48.7195 43.6632 50.1385 42.9351 51.3707C42.2256 52.5843 41.2454 53.5178 39.9945 54.1713C38.7623 54.8248 37.3807 55.1515 35.8497 55.1515ZM35.8497 51.0067C36.7646 51.0067 37.5394 50.6706 38.1742 49.9985C38.8276 49.3263 39.1544 48.3648 39.1544 47.1139C39.1544 45.863 38.837 44.9015 38.2022 44.2293C37.586 43.5572 36.8206 43.2211 35.9057 43.2211C34.9722 43.2211 34.1974 43.5572 33.5813 44.2293C32.9651 44.8828 32.6571 45.8443 32.6571 47.1139C32.6571 48.3648 32.9558 49.3263 33.5533 49.9985C34.1694 50.6706 34.9349 51.0067 35.8497 51.0067Z" fill="#283146"/>
<path d="M56.0898 39.1323C57.9195 39.1323 59.3758 39.7298 60.4587 40.9247C61.5602 42.1009 62.111 43.7252 62.111 45.7976V54.9274H57.3501V46.4418C57.3501 45.3962 57.0793 44.5841 56.5379 44.0053C55.9965 43.4265 55.2683 43.1371 54.3535 43.1371C53.4386 43.1371 52.7105 43.4265 52.169 44.0053C51.6276 44.5841 51.3569 45.3962 51.3569 46.4418V54.9274H46.5679V39.3004H51.3569V41.3728C51.8423 40.682 52.4958 40.1405 53.3173 39.7485C54.1388 39.3377 55.0629 39.1323 56.0898 39.1323Z" fill="#283146"/>
<path d="M74.1485 50.8666V54.9274H71.7121C69.9757 54.9274 68.6221 54.5074 67.6513 53.6672C66.6804 52.8084 66.195 51.4174 66.195 49.4944V43.2771H64.2906V39.3004H66.195V35.4916H70.9839V39.3004H74.1205V43.2771H70.9839V49.5504C70.9839 50.0171 71.0959 50.3532 71.32 50.5586C71.544 50.764 71.9174 50.8666 72.4402 50.8666H74.1485Z" fill="#283146"/>
<path d="M88.8584 43.1091V47.0859H76.536V43.1091H88.8584Z" fill="#283146"/>
<path d="M97.8504 39.1043V43.0811H104.264V46.7778H97.8504V51.0907H105.104V54.9274H93.0614V35.2676H105.104V39.1043H97.8504Z" fill="#283146"/>
<path d="M117.735 39.1323C119.564 39.1323 121.021 39.7298 122.104 40.9247C123.205 42.1009 123.756 43.7252 123.756 45.7976V54.9274H118.995V46.4418C118.995 45.3962 118.724 44.5841 118.183 44.0053C117.641 43.4265 116.913 43.1371 115.998 43.1371C115.084 43.1371 114.355 43.4265 113.814 44.0053C113.273 44.5841 113.002 45.3962 113.002 46.4418V54.9274H108.213V39.3004H113.002V41.3728C113.487 40.682 114.141 40.1405 114.962 39.7485C115.784 39.3377 116.708 39.1323 117.735 39.1323Z" fill="#283146"/>
<path d="M126.132 47.0859C126.132 45.4802 126.43 44.0706 127.028 42.8571C127.644 41.6435 128.475 40.71 129.52 40.0565C130.566 39.4031 131.733 39.0763 133.021 39.0763C134.048 39.0763 134.981 39.291 135.821 39.7205C136.68 40.1499 137.352 40.7286 137.838 41.4568V34.2034H142.627V54.9274H137.838V52.687C137.39 53.4338 136.746 54.0313 135.905 54.4793C135.084 54.9274 134.122 55.1515 133.021 55.1515C131.733 55.1515 130.566 54.8248 129.52 54.1713C128.475 53.4992 127.644 52.5563 127.028 51.3427C126.43 50.1105 126.132 48.6915 126.132 47.0859ZM137.838 47.1139C137.838 45.919 137.502 44.9761 136.83 44.2853C136.176 43.5945 135.373 43.2491 134.421 43.2491C133.469 43.2491 132.657 43.5945 131.985 44.2853C131.331 44.9575 131.005 45.891 131.005 47.0859C131.005 48.2808 131.331 49.233 131.985 49.9425C132.657 50.6333 133.469 50.9787 134.421 50.9787C135.373 50.9787 136.176 50.6333 136.83 49.9425C137.502 49.2517 137.838 48.3088 137.838 47.1139Z" fill="#283146"/>
<path d="M130.155 67.754C132.228 67.754 134.039 68.1647 135.589 68.9862C137.138 69.8077 138.333 70.9653 139.173 72.4589C140.032 73.9339 140.462 75.6422 140.462 77.5839C140.462 79.507 140.032 81.2153 139.173 82.7089C138.333 84.2026 137.129 85.3601 135.561 86.1816C134.011 87.0031 132.209 87.4138 130.155 87.4138H122.79V67.754H130.155ZM129.847 83.269C131.658 83.269 133.068 82.7743 134.076 81.7847C135.084 80.7952 135.589 79.3949 135.589 77.5839C135.589 75.7729 135.084 74.3633 134.076 73.3551C133.068 72.3469 131.658 71.8428 129.847 71.8428H127.579V83.269H129.847Z" fill="#283146"/>
<path d="M157.869 79.3483C157.869 79.7964 157.841 80.2631 157.785 80.7485H146.947C147.021 81.7194 147.329 82.4662 147.871 82.989C148.431 83.4931 149.112 83.7451 149.915 83.7451C151.11 83.7451 151.941 83.241 152.408 82.2328H157.505C157.243 83.2597 156.767 84.1839 156.076 85.0054C155.404 85.8269 154.555 86.471 153.528 86.9378C152.501 87.4045 151.353 87.6379 150.083 87.6379C148.552 87.6379 147.189 87.3112 145.994 86.6577C144.799 86.0042 143.866 85.0707 143.194 83.8571C142.522 82.6436 142.186 81.2246 142.186 79.6003C142.186 77.976 142.512 76.5571 143.166 75.3435C143.838 74.1299 144.771 73.1964 145.966 72.5429C147.161 71.8895 148.534 71.5627 150.083 71.5627C151.595 71.5627 152.94 71.8801 154.116 72.5149C155.292 73.1497 156.207 74.0552 156.86 75.2315C157.533 76.4077 157.869 77.78 157.869 79.3483ZM152.968 78.088C152.968 77.2665 152.688 76.6131 152.128 76.1276C151.567 75.6422 150.867 75.3995 150.027 75.3995C149.224 75.3995 148.543 75.6329 147.983 76.0996C147.441 76.5664 147.105 77.2292 146.975 78.088H152.968Z" fill="#283146"/>
<path d="M166.752 87.6379C165.389 87.6379 164.176 87.4045 163.112 86.9378C162.047 86.471 161.207 85.8362 160.591 85.0334C159.975 84.2119 159.63 83.297 159.555 82.2888H164.288C164.344 82.8303 164.596 83.269 165.044 83.6051C165.492 83.9412 166.043 84.1092 166.696 84.1092C167.294 84.1092 167.751 83.9972 168.069 83.7731C168.405 83.5304 168.573 83.2224 168.573 82.849C168.573 82.4009 168.339 82.0741 167.873 81.8688C167.406 81.6447 166.65 81.402 165.604 81.1406C164.484 80.8792 163.55 80.6085 162.804 80.3285C162.057 80.0297 161.413 79.5723 160.871 78.9562C160.33 78.3214 160.059 77.4719 160.059 76.4077C160.059 75.5115 160.302 74.6994 160.787 73.9712C161.291 73.2244 162.019 72.6363 162.972 72.2069C163.942 71.7774 165.091 71.5627 166.416 71.5627C168.377 71.5627 169.917 72.0482 171.037 73.019C172.176 73.9899 172.83 75.2781 172.998 76.8838H168.573C168.498 76.3423 168.255 75.9129 167.845 75.5955C167.452 75.2781 166.93 75.1194 166.276 75.1194C165.716 75.1194 165.287 75.2315 164.988 75.4555C164.689 75.6609 164.54 75.9503 164.54 76.3237C164.54 76.7718 164.773 77.1078 165.24 77.3319C165.725 77.5559 166.472 77.78 167.48 78.004C168.638 78.3027 169.581 78.6015 170.309 78.9002C171.037 79.1802 171.672 79.647 172.213 80.3005C172.773 80.9352 173.063 81.7941 173.082 82.877C173.082 83.7918 172.82 84.6133 172.297 85.3414C171.793 86.0509 171.056 86.611 170.085 87.0218C169.133 87.4325 168.022 87.6379 166.752 87.6379Z" fill="#283146"/>
<path d="M178.42 70.1625C177.58 70.1625 176.889 69.9197 176.347 69.4343C175.825 68.9302 175.563 68.3141 175.563 67.586C175.563 66.8391 175.825 66.223 176.347 65.7376C176.889 65.2335 177.58 64.9814 178.42 64.9814C179.241 64.9814 179.914 65.2335 180.436 65.7376C180.978 66.223 181.248 66.8391 181.248 67.586C181.248 68.3141 180.978 68.9302 180.436 69.4343C179.914 69.9197 179.241 70.1625 178.42 70.1625ZM180.8 71.7868V87.4138H176.011V71.7868H180.8Z" fill="#283146"/>
<path d="M190.208 71.5627C191.31 71.5627 192.271 71.7868 193.093 72.2349C193.933 72.683 194.577 73.2711 195.025 73.9992V71.7868H199.814V87.3858C199.814 88.8235 199.525 90.121 198.946 91.2786C198.386 92.4548 197.517 93.3884 196.341 94.0792C195.184 94.77 193.737 95.1154 192 95.1154C189.685 95.1154 187.809 94.5646 186.371 93.463C184.934 92.3802 184.112 90.9052 183.907 89.0382H188.64C188.789 89.6356 189.144 90.1024 189.704 90.4384C190.264 90.7932 190.955 90.9706 191.776 90.9706C192.766 90.9706 193.55 90.6812 194.129 90.1024C194.726 89.5423 195.025 88.6368 195.025 87.3858V85.1734C194.558 85.9016 193.914 86.499 193.093 86.9658C192.271 87.4138 191.31 87.6379 190.208 87.6379C188.92 87.6379 187.753 87.3112 186.707 86.6577C185.662 85.9856 184.831 85.0427 184.215 83.8291C183.617 82.5969 183.319 81.178 183.319 79.5723C183.319 77.9667 183.617 76.5571 184.215 75.3435C184.831 74.1299 185.662 73.1964 186.707 72.5429C187.753 71.8895 188.92 71.5627 190.208 71.5627ZM195.025 79.6003C195.025 78.4054 194.689 77.4626 194.017 76.7718C193.363 76.081 192.56 75.7356 191.608 75.7356C190.656 75.7356 189.844 76.081 189.172 76.7718C188.518 77.4439 188.192 78.3774 188.192 79.5723C188.192 80.7672 188.518 81.7194 189.172 82.4289C189.844 83.1197 190.656 83.4651 191.608 83.4651C192.56 83.4651 193.363 83.1197 194.017 82.4289C194.689 81.7381 195.025 80.7952 195.025 79.6003Z" fill="#283146"/>
<path d="M212.8 71.6188C214.63 71.6188 216.086 72.2162 217.169 73.4111C218.271 74.5873 218.822 76.2116 218.822 78.2841V87.4138H214.061V78.9282C214.061 77.8826 213.79 77.0705 213.248 76.4917C212.707 75.9129 211.979 75.6235 211.064 75.6235C210.149 75.6235 209.421 75.9129 208.88 76.4917C208.338 77.0705 208.067 77.8826 208.067 78.9282V87.4138H203.278V71.7868H208.067V73.8592C208.553 73.1684 209.206 72.6269 210.028 72.2349C210.849 71.8241 211.773 71.6188 212.8 71.6188Z" fill="#283146"/>
<path d="M236.88 79.3483C236.88 79.7964 236.852 80.2631 236.796 80.7485H225.958C226.033 81.7194 226.341 82.4662 226.882 82.989C227.442 83.4931 228.124 83.7451 228.927 83.7451C230.122 83.7451 230.952 83.241 231.419 82.2328H236.516C236.255 83.2597 235.779 84.1839 235.088 85.0054C234.416 85.8269 233.566 86.471 232.539 86.9378C231.513 87.4045 230.364 87.6379 229.095 87.6379C227.564 87.6379 226.201 87.3112 225.006 86.6577C223.811 86.0042 222.878 85.0707 222.205 83.8571C221.533 82.6436 221.197 81.2246 221.197 79.6003C221.197 77.976 221.524 76.5571 222.177 75.3435C222.85 74.1299 223.783 73.1964 224.978 72.5429C226.173 71.8895 227.545 71.5627 229.095 71.5627C230.607 71.5627 231.951 71.8801 233.128 72.5149C234.304 73.1497 235.219 74.0552 235.872 75.2315C236.544 76.4077 236.88 77.78 236.88 79.3483ZM231.979 78.088C231.979 77.2665 231.699 76.6131 231.139 76.1276C230.579 75.6422 229.879 75.3995 229.039 75.3995C228.236 75.3995 227.554 75.6329 226.994 76.0996C226.453 76.5664 226.117 77.2292 225.986 78.088H231.979Z" fill="#283146"/>
<path d="M244.196 74.3913C244.756 73.5325 245.456 72.8603 246.296 72.3749C247.136 71.8708 248.07 71.6188 249.097 71.6188V76.6877H247.78C246.585 76.6877 245.689 76.9491 245.092 77.4719C244.494 77.976 244.196 78.8722 244.196 80.1604V87.4138H239.407V71.7868H244.196V74.3913Z" fill="#283146"/>
<g filter="url(#filter0_i_35_3)">
<path d="M194.711 24.6739C194.711 24.2567 195.049 23.9185 195.466 23.9185H198.488C200.574 23.9185 202.265 25.6095 202.265 27.6955C202.265 29.7657 200.602 31.3528 198.602 31.466C198.494 31.4722 198.42 31.5832 198.463 31.683L199.233 33.4843C199.406 33.8892 199.218 34.3577 198.813 34.5308C198.408 34.7038 197.94 34.5159 197.767 34.111L196.835 31.931C196.716 31.6529 196.443 31.4725 196.14 31.4725H196.065C195.648 31.4725 195.309 31.1342 195.309 30.7171C195.309 30.3 195.648 29.9617 196.065 29.9617H198.488C199.74 29.9617 200.754 28.947 200.754 27.6955C200.754 26.4439 199.74 25.4293 198.488 25.4293H195.466C195.049 25.4293 194.711 25.0911 194.711 24.6739Z" fill="url(#paint0_linear_35_3)"/>
</g>
<path d="M194.711 24.6739C194.711 24.2567 195.049 23.9185 195.466 23.9185H198.488C200.574 23.9185 202.265 25.6095 202.265 27.6955C202.265 29.7657 200.602 31.3528 198.602 31.466C198.494 31.4722 198.42 31.5832 198.463 31.683L199.233 33.4843C199.406 33.8892 199.218 34.3577 198.813 34.5308C198.408 34.7038 197.94 34.5159 197.767 34.111L196.835 31.931C196.716 31.6529 196.443 31.4725 196.14 31.4725H196.065C195.648 31.4725 195.309 31.1342 195.309 30.7171C195.309 30.3 195.648 29.9617 196.065 29.9617H198.488C199.74 29.9617 200.754 28.947 200.754 27.6955C200.754 26.4439 199.74 25.4293 198.488 25.4293H195.466C195.049 25.4293 194.711 25.0911 194.711 24.6739Z" fill="url(#paint1_radial_35_3)"/>
<path d="M194.711 24.6739C194.711 24.2567 195.049 23.9185 195.466 23.9185H198.488C200.574 23.9185 202.265 25.6095 202.265 27.6955C202.265 29.7657 200.602 31.3528 198.602 31.466C198.494 31.4722 198.42 31.5832 198.463 31.683L199.233 33.4843C199.406 33.8892 199.218 34.3577 198.813 34.5308C198.408 34.7038 197.94 34.5159 197.767 34.111L196.835 31.931C196.716 31.6529 196.443 31.4725 196.14 31.4725H196.065C195.648 31.4725 195.309 31.1342 195.309 30.7171C195.309 30.3 195.648 29.9617 196.065 29.9617H198.488C199.74 29.9617 200.754 28.947 200.754 27.6955C200.754 26.4439 199.74 25.4293 198.488 25.4293H195.466C195.049 25.4293 194.711 25.0911 194.711 24.6739Z" fill="url(#paint2_radial_35_3)"/>
<path d="M194.711 24.6739C194.711 24.2567 195.049 23.9185 195.466 23.9185H198.488C200.574 23.9185 202.265 25.6095 202.265 27.6955C202.265 29.7657 200.602 31.3528 198.602 31.466C198.494 31.4722 198.42 31.5832 198.463 31.683L199.233 33.4843C199.406 33.8892 199.218 34.3577 198.813 34.5308C198.408 34.7038 197.94 34.5159 197.767 34.111L196.835 31.931C196.716 31.6529 196.443 31.4725 196.14 31.4725H196.065C195.648 31.4725 195.309 31.1342 195.309 30.7171C195.309 30.3 195.648 29.9617 196.065 29.9617H198.488C199.74 29.9617 200.754 28.947 200.754 27.6955C200.754 26.4439 199.74 25.4293 198.488 25.4293H195.466C195.049 25.4293 194.711 25.0911 194.711 24.6739Z" fill="url(#paint3_radial_35_3)"/>
<path d="M194.711 24.6739C194.711 24.2567 195.049 23.9185 195.466 23.9185H198.488C200.574 23.9185 202.265 25.6095 202.265 27.6955C202.265 29.7657 200.602 31.3528 198.602 31.466C198.494 31.4722 198.42 31.5832 198.463 31.683L199.233 33.4843C199.406 33.8892 199.218 34.3577 198.813 34.5308C198.408 34.7038 197.94 34.5159 197.767 34.111L196.835 31.931C196.716 31.6529 196.443 31.4725 196.14 31.4725H196.065C195.648 31.4725 195.309 31.1342 195.309 30.7171C195.309 30.3 195.648 29.9617 196.065 29.9617H198.488C199.74 29.9617 200.754 28.947 200.754 27.6955C200.754 26.4439 199.74 25.4293 198.488 25.4293H195.466C195.049 25.4293 194.711 25.0911 194.711 24.6739Z" fill="url(#paint4_radial_35_3)"/>
<path d="M194.711 24.6739C194.711 24.2567 195.049 23.9185 195.466 23.9185H198.488C200.574 23.9185 202.265 25.6095 202.265 27.6955C202.265 29.7657 200.602 31.3528 198.602 31.466C198.494 31.4722 198.42 31.5832 198.463 31.683L199.233 33.4843C199.406 33.8892 199.218 34.3577 198.813 34.5308C198.408 34.7038 197.94 34.5159 197.767 34.111L196.835 31.931C196.716 31.6529 196.443 31.4725 196.14 31.4725H196.065C195.648 31.4725 195.309 31.1342 195.309 30.7171C195.309 30.3 195.648 29.9617 196.065 29.9617H198.488C199.74 29.9617 200.754 28.947 200.754 27.6955C200.754 26.4439 199.74 25.4293 198.488 25.4293H195.466C195.049 25.4293 194.711 25.0911 194.711 24.6739Z" fill="url(#paint5_radial_35_3)"/>
<path d="M194.711 24.6739C194.711 24.2567 195.049 23.9185 195.466 23.9185H198.488C200.574 23.9185 202.265 25.6095 202.265 27.6955C202.265 29.7657 200.602 31.3528 198.602 31.466C198.494 31.4722 198.42 31.5832 198.463 31.683L199.233 33.4843C199.406 33.8892 199.218 34.3577 198.813 34.5308C198.408 34.7038 197.94 34.5159 197.767 34.111L196.835 31.931C196.716 31.6529 196.443 31.4725 196.14 31.4725H196.065C195.648 31.4725 195.309 31.1342 195.309 30.7171C195.309 30.3 195.648 29.9617 196.065 29.9617H198.488C199.74 29.9617 200.754 28.947 200.754 27.6955C200.754 26.4439 199.74 25.4293 198.488 25.4293H195.466C195.049 25.4293 194.711 25.0911 194.711 24.6739Z" fill="url(#paint6_radial_35_3)"/>
<path d="M194.711 24.6739C194.711 24.2567 195.049 23.9185 195.466 23.9185H198.488C200.574 23.9185 202.265 25.6095 202.265 27.6955C202.265 29.7657 200.602 31.3528 198.602 31.466C198.494 31.4722 198.42 31.5832 198.463 31.683L199.233 33.4843C199.406 33.8892 199.218 34.3577 198.813 34.5308C198.408 34.7038 197.94 34.5159 197.767 34.111L196.835 31.931C196.716 31.6529 196.443 31.4725 196.14 31.4725H196.065C195.648 31.4725 195.309 31.1342 195.309 30.7171C195.309 30.3 195.648 29.9617 196.065 29.9617H198.488C199.74 29.9617 200.754 28.947 200.754 27.6955C200.754 26.4439 199.74 25.4293 198.488 25.4293H195.466C195.049 25.4293 194.711 25.0911 194.711 24.6739Z" fill="url(#paint7_radial_35_3)"/>
<path d="M186.755 35.6037L186.024 31.0713" stroke="url(#paint8_radial_35_3)" stroke-width="1.51081" stroke-miterlimit="10" stroke-linecap="round" stroke-linejoin="round"/>
<path d="M198.03 47.3362C198.03 50.9266 200.941 53.8372 204.531 53.8372C208.122 53.8372 211.032 50.9266 211.032 47.3362C211.032 43.7459 208.122 40.8352 204.531 40.8352C200.941 40.8352 198.03 43.7459 198.03 47.3362Z" stroke="#283146" stroke-width="3.37997" stroke-miterlimit="10" stroke-linecap="round" stroke-linejoin="round"/>
<path d="M172.347 47.3361C172.347 50.9265 175.257 53.837 178.848 53.837C182.438 53.837 185.349 50.9265 185.349 47.3361C185.349 43.7458 182.438 40.8352 178.848 40.8352C175.257 40.8352 172.347 43.7458 172.347 47.3361Z" stroke="#283146" stroke-width="3.37997" stroke-miterlimit="10" stroke-linecap="round" stroke-linejoin="round"/>
<g filter="url(#filter1_f_35_3)">
<path d="M204.531 54.7577C200.342 54.7577 196.946 51.3617 196.946 47.1727C196.946 42.9836 200.342 39.5876 204.531 39.5876C208.72 39.5876 212.116 42.9836 212.116 47.1727C212.116 51.3617 208.72 54.7577 204.531 54.7577Z" stroke="url(#paint9_linear_35_3)" stroke-width="0.377702" stroke-miterlimit="10" stroke-linecap="round" stroke-linejoin="round"/>
</g>
<g filter="url(#filter2_i_35_3)">
<path d="M197.687 34.095C197.49 33.6523 197.69 33.1341 198.132 32.9374C198.575 32.7407 199.093 32.94 199.29 33.3826L205.333 46.9799C205.53 47.4224 205.33 47.9408 204.888 48.1375C204.445 48.334 203.927 48.1348 203.73 47.6922L199.863 38.9904C199.823 38.8999 199.708 38.872 199.63 38.9339L192.216 47.2654C191.974 47.4588 191.648 47.5105 191.359 47.4011C191.069 47.2919 190.858 47.0379 190.805 46.733L185.996 36.4872C185.984 36.4175 185.891 36.4014 185.856 36.4629L179.503 47.5895C179.263 48.0101 178.728 48.1564 178.307 47.9163C177.887 47.6761 177.74 47.1405 177.98 46.7199L185.64 33.3039C185.823 32.9832 186.188 32.8115 186.552 32.8747C186.916 32.938 187.201 33.2226 187.265 33.5864L192.275 44.9722L198.865 37.3003C198.972 37.2145 199.008 37.067 198.952 36.9416L197.687 34.095Z" fill="url(#paint10_linear_35_3)"/>
<path d="M197.687 34.095C197.49 33.6523 197.69 33.1341 198.132 32.9374C198.575 32.7407 199.093 32.94 199.29 33.3826L205.333 46.9799C205.53 47.4224 205.33 47.9408 204.888 48.1375C204.445 48.334 203.927 48.1348 203.73 47.6922L199.863 38.9904C199.823 38.8999 199.708 38.872 199.63 38.9339L192.216 47.2654C191.974 47.4588 191.648 47.5105 191.359 47.4011C191.069 47.2919 190.858 47.0379 190.805 46.733L185.996 36.4872C185.984 36.4175 185.891 36.4014 185.856 36.4629L179.503 47.5895C179.263 48.0101 178.728 48.1564 178.307 47.9163C177.887 47.6761 177.74 47.1405 177.98 46.7199L185.64 33.3039C185.823 32.9832 186.188 32.8115 186.552 32.8747C186.916 32.938 187.201 33.2226 187.265 33.5864L192.216 44.7361L198.865 37.3003C198.972 37.2145 199.008 37.067 198.952 36.9416L197.687 34.095Z" fill="#3E6EFF"/>
</g>
<g filter="url(#filter3_i_35_3)">
<path d="M179.219 45.441L190.806 43.5429C192.787 43.3248 194.351 44.6148 194.351 46.273C194.351 47.9311 192.805 49.2008 190.806 48.9826L179.219 48.3209C178.342 48.2191 177.694 47.6082 177.694 46.881C177.694 46.1537 178.36 45.5283 179.219 45.441Z" fill="#FFB650"/>
<path d="M179.219 45.441L190.806 43.5429C192.787 43.3248 194.339 44.6146 194.339 46.2727C194.339 47.9309 192.805 49.2008 190.806 48.9826L179.219 48.3209C178.343 48.2191 177.694 47.6082 177.694 46.881C177.694 46.1537 178.36 45.5283 179.219 45.441Z" fill="url(#paint11_radial_35_3)"/>
<path d="M179.219 45.4411L190.806 43.543C192.787 43.3248 194.345 44.6272 194.345 46.2854C194.345 47.9435 192.805 49.2008 190.806 48.9827L179.219 48.3209C178.342 48.2191 177.693 47.6083 177.693 46.8811C177.693 46.1537 178.36 45.5284 179.219 45.4411Z" fill="url(#paint12_linear_35_3)"/>
<path d="M179.219 45.4411L190.806 43.543C192.787 43.3249 194.353 44.6085 194.353 46.2666C194.353 47.9248 192.805 49.2009 190.806 48.9827L179.219 48.321C178.342 48.2192 177.694 47.6083 177.694 46.8811C177.694 46.1538 178.36 45.5284 179.219 45.4411Z" fill="url(#paint13_radial_35_3)"/>
</g>
<g filter="url(#filter4_i_35_3)">
<path d="M184.513 28.4509H187.535C188.369 28.4509 189.045 29.1273 189.045 29.9617C189.045 30.7961 188.369 31.4725 187.535 31.4725H184.513C183.679 31.4725 183.002 30.7961 183.002 29.9617C183.002 29.1273 183.679 28.4509 184.513 28.4509Z" fill="#A86F5F"/>
<path d="M184.513 28.4509H187.535C188.369 28.4509 189.045 29.1273 189.045 29.9617C189.045 30.7961 188.369 31.4725 187.535 31.4725H184.513C183.679 31.4725 183.002 30.7961 183.002 29.9617C183.002 29.1273 183.679 28.4509 184.513 28.4509Z" fill="url(#paint14_radial_35_3)"/>
</g>
<path d="M193.955 23.9185H196.977C197.394 23.9185 197.732 24.2567 197.732 24.6739C197.732 25.0911 197.394 25.4293 196.977 25.4293H193.955C193.538 25.4293 193.2 25.0911 193.2 24.6739C193.2 24.2567 193.538 23.9185 193.955 23.9185Z" fill="url(#paint15_linear_35_3)"/>
<path d="M193.955 23.9185H196.977C197.394 23.9185 197.732 24.2567 197.732 24.6739C197.732 25.0911 197.394 25.4293 196.977 25.4293H193.955C193.538 25.4293 193.2 25.0911 193.2 24.6739C193.2 24.2567 193.538 23.9185 193.955 23.9185Z" fill="url(#paint16_radial_35_3)"/>
<path d="M193.955 23.9185H196.977C197.394 23.9185 197.732 24.2567 197.732 24.6739C197.732 25.0911 197.394 25.4293 196.977 25.4293H193.955C193.538 25.4293 193.2 25.0911 193.2 24.6739C193.2 24.2567 193.538 23.9185 193.955 23.9185Z" fill="url(#paint17_radial_35_3)"/>
<path d="M191.636 47.9675C190.695 47.9675 189.932 47.2045 189.932 46.2632C189.932 45.3219 190.695 44.5588 191.636 44.5588C192.578 44.5588 193.341 45.3219 193.341 46.2632C193.341 47.2045 192.578 47.9675 191.636 47.9675Z" fill="url(#paint18_radial_35_3)"/>
<g filter="url(#filter5_f_35_3)">
<path d="M186.897 29.4424H183.545" stroke="url(#paint19_linear_35_3)" stroke-width="0.604323"/>
</g>
<g filter="url(#filter6_i_35_3)">
<path d="M95.627 85.9107C95.6007 86.7909 94.8631 87.4816 93.983 87.45C93.1465 87.4201 92.4769 86.7458 92.4527 85.9091L92.0245 71.1048L96.0713 71.0689L95.627 85.9107Z" fill="#3E6EFF"/>
</g>
<g filter="url(#filter7_i_35_3)">
<path d="M91.361 66.4422C90.8784 67.3803 90.9217 68.5484 91.573 69.4695C92.505 70.7879 94.3293 71.101 95.6477 70.169C96.966 69.2369 97.2792 67.4126 96.3471 66.0942C96.18 65.8579 95.9843 65.6539 95.768 65.4836C95.4331 65.1709 95.0098 64.5739 95.1788 63.9301C95.2093 63.814 95.2004 63.6873 95.1311 63.5892C95.0425 63.4639 94.8813 63.4128 94.7401 63.4727C93.2956 64.0859 92.0138 64.9707 91.361 66.4422Z" fill="url(#paint20_radial_35_3)"/>
</g>
<path d="M91.361 66.4422C90.8784 67.3803 90.9217 68.5484 91.573 69.4695C92.505 70.7879 94.3293 71.101 95.6477 70.169C96.966 69.2369 97.2792 67.4126 96.3471 66.0942C96.18 65.8579 95.9843 65.6539 95.768 65.4836C95.4331 65.1709 95.0098 64.5739 95.1788 63.9301C95.2093 63.814 95.2004 63.6873 95.1311 63.5892C95.0425 63.4639 94.8813 63.4128 94.7401 63.4727C93.2956 64.0859 92.0138 64.9707 91.361 66.4422Z" fill="url(#paint21_radial_35_3)"/>
<path d="M91.361 66.4422C90.8784 67.3803 90.9217 68.5484 91.573 69.4695C92.505 70.7879 94.3293 71.101 95.6477 70.169C96.966 69.2369 97.2792 67.4126 96.3471 66.0942C96.18 65.8579 95.9843 65.6539 95.768 65.4836C95.4331 65.1709 95.0098 64.5739 95.1788 63.9301C95.2093 63.814 95.2004 63.6873 95.1311 63.5892C95.0425 63.4639 94.8813 63.4128 94.7401 63.4727C93.2956 64.0859 92.0138 64.9707 91.361 66.4422Z" fill="url(#paint22_linear_35_3)"/>
<path d="M96.1766 72.0707C96.1754 72.227 96.0478 72.3527 95.8915 72.3516L92.2023 72.324C92.046 72.3228 91.9203 72.1952 91.9214 72.0389L91.9312 70.7364C91.9341 70.3457 92.2532 70.0314 92.6438 70.0343L95.4842 70.0555C95.8749 70.0585 96.1892 70.3775 96.1863 70.7682L96.1766 72.0707Z" fill="#9E98A3"/>
<path d="M96.1766 72.0707C96.1754 72.227 96.0478 72.3527 95.8915 72.3516L92.2023 72.324C92.046 72.3228 91.9203 72.1952 91.9214 72.0389L91.9312 70.7364C91.9341 70.3457 92.2532 70.0314 92.6438 70.0343L95.4842 70.0555C95.8749 70.0585 96.1892 70.3775 96.1863 70.7682L96.1766 72.0707Z" fill="url(#paint23_linear_35_3)"/>
<path d="M96.1766 72.0707C96.1754 72.227 96.0478 72.3527 95.8915 72.3516L92.2023 72.324C92.046 72.3228 91.9203 72.1952 91.9214 72.0389L91.9312 70.7364C91.9341 70.3457 92.2532 70.0314 92.6438 70.0343L95.4842 70.0555C95.8749 70.0585 96.1892 70.3775 96.1863 70.7682L96.1766 72.0707Z" fill="url(#paint24_linear_35_3)"/>
<path d="M96.1766 72.0707C96.1754 72.227 96.0478 72.3527 95.8915 72.3516L92.2023 72.324C92.046 72.3228 91.9203 72.1952 91.9214 72.0389L91.9312 70.7364C91.9341 70.3457 92.2532 70.0314 92.6438 70.0343L95.4842 70.0555C95.8749 70.0585 96.1892 70.3775 96.1863 70.7682L96.1766 72.0707Z" fill="url(#paint25_linear_35_3)"/>
<path d="M96.1766 72.0707C96.1754 72.227 96.0478 72.3527 95.8915 72.3516L92.2023 72.324C92.046 72.3228 91.9203 72.1952 91.9214 72.0389L91.9312 70.7364C91.9341 70.3457 92.2532 70.0314 92.6438 70.0343L95.4842 70.0555C95.8749 70.0585 96.1892 70.3775 96.1863 70.7682L96.1766 72.0707Z" fill="url(#paint26_radial_35_3)"/>
<path d="M96.1766 72.0707C96.1754 72.227 96.0478 72.3527 95.8915 72.3516L92.2023 72.324C92.046 72.3228 91.9203 72.1952 91.9214 72.0389L91.9312 70.7364C91.9341 70.3457 92.2532 70.0314 92.6438 70.0343L95.4842 70.0555C95.8749 70.0585 96.1892 70.3775 96.1863 70.7682L96.1766 72.0707Z" fill="url(#paint27_radial_35_3)"/>
<path d="M155.828 22.7528C160.335 22.7528 163.989 19.099 163.989 14.592C163.989 10.0849 160.335 6.43115 155.828 6.43115C151.321 6.43115 147.667 10.0849 147.667 14.592C147.667 19.099 151.321 22.7528 155.828 22.7528Z" fill="url(#paint28_radial_35_3)"/>
<path d="M155.828 22.7528C160.335 22.7528 163.989 19.099 163.989 14.592C163.989 10.0849 160.335 6.43115 155.828 6.43115C151.321 6.43115 147.667 10.0849 147.667 14.592C147.667 19.099 151.321 22.7528 155.828 22.7528Z" fill="url(#paint29_radial_35_3)"/>
<path d="M155.828 22.7528C160.335 22.7528 163.989 19.099 163.989 14.592C163.989 10.0849 160.335 6.43115 155.828 6.43115C151.321 6.43115 147.667 10.0849 147.667 14.592C147.667 19.099 151.321 22.7528 155.828 22.7528Z" fill="url(#paint30_radial_35_3)"/>
<path d="M155.828 22.7528C160.335 22.7528 163.989 19.099 163.989 14.592C163.989 10.0849 160.335 6.43115 155.828 6.43115C151.321 6.43115 147.667 10.0849 147.667 14.592C147.667 19.099 151.321 22.7528 155.828 22.7528Z" fill="url(#paint31_radial_35_3)"/>
<path d="M155.945 19.1386C158.418 19.1386 160.422 17.1343 160.422 14.6618C160.422 12.1894 158.418 10.1851 155.945 10.1851C153.473 10.1851 151.468 12.1894 151.468 14.6618C151.468 17.1343 153.473 19.1386 155.945 19.1386Z" fill="#E1D3F1"/>
<path d="M155.945 19.1386C158.418 19.1386 160.422 17.1343 160.422 14.6618C160.422 12.1894 158.418 10.1851 155.945 10.1851C153.473 10.1851 151.468 12.1894 151.468 14.6618C151.468 17.1343 153.473 19.1386 155.945 19.1386Z" fill="url(#paint32_radial_35_3)"/>
<path d="M155.945 19.1386C158.418 19.1386 160.422 17.1343 160.422 14.6618C160.422 12.1894 158.418 10.1851 155.945 10.1851C153.473 10.1851 151.468 12.1894 151.468 14.6618C151.468 17.1343 153.473 19.1386 155.945 19.1386Z" fill="url(#paint33_radial_35_3)"/>
<path d="M155.945 19.1386C158.418 19.1386 160.422 17.1343 160.422 14.6618C160.422 12.1894 158.418 10.1851 155.945 10.1851C153.473 10.1851 151.468 12.1894 151.468 14.6618C151.468 17.1343 153.473 19.1386 155.945 19.1386Z" fill="url(#paint34_radial_35_3)"/>
<path d="M155.945 17.6463C157.593 17.6463 158.929 16.3101 158.929 14.6618C158.929 13.0135 157.593 11.6772 155.945 11.6772C154.297 11.6772 152.96 13.0135 152.96 14.6618C152.96 16.3101 154.297 17.6463 155.945 17.6463Z" fill="url(#paint35_radial_35_3)"/>
<path d="M155.945 16.1542C156.769 16.1542 157.437 15.4861 157.437 14.6619C157.437 13.8378 156.769 13.1697 155.945 13.1697C155.121 13.1697 154.453 13.8378 154.453 14.6619C154.453 15.4861 155.121 16.1542 155.945 16.1542Z" fill="url(#paint36_radial_35_3)"/>
<path d="M155.945 16.1542C156.769 16.1542 157.437 15.4861 157.437 14.6619C157.437 13.8378 156.769 13.1697 155.945 13.1697C155.121 13.1697 154.453 13.8378 154.453 14.6619C154.453 15.4861 155.121 16.1542 155.945 16.1542Z" fill="url(#paint37_radial_35_3)"/>
<defs>
<filter id="filter0_i_35_3" x="194.711" y="23.6163" width="7.85636" height="10.9789" filterUnits="userSpaceOnUse" color-interpolation-filters="sRGB">
<feFlood flood-opacity="0" result="BackgroundImageFix"/>
<feBlend mode="normal" in="SourceGraphic" in2="BackgroundImageFix" result="shape"/>
<feColorMatrix in="SourceAlpha" type="matrix" values="0 0 0 0 0 0 0 0 0 0 0 0 0 0 0 0 0 0 127 0" result="hardAlpha"/>
<feOffset dx="0.302162" dy="-0.302162"/>
<feGaussianBlur stdDeviation="0.377702"/>
<feComposite in2="hardAlpha" operator="arithmetic" k2="-1" k3="1"/>
<feColorMatrix type="matrix" values="0 0 0 0 0.603922 0 0 0 0 0.407843 0 0 0 0 0.74902 0 0 0 1 0"/>
<feBlend mode="normal" in2="shape" result="effect1_innerShadow_35_3"/>
</filter>
<filter id="filter1_f_35_3" x="196.38" y="39.021" width="16.3033" height="16.3033" filterUnits="userSpaceOnUse" color-interpolation-filters="sRGB">
<feFlood flood-opacity="0" result="BackgroundImageFix"/>
<feBlend mode="normal" in="SourceGraphic" in2="BackgroundImageFix" result="shape"/>
<feGaussianBlur stdDeviation="0.188851" result="effect1_foregroundBlur_35_3"/>
</filter>
<filter id="filter2_i_35_3" x="177.865" y="32.8616" width="27.9972" height="15.3516" filterUnits="userSpaceOnUse" color-interpolation-filters="sRGB">
<feFlood flood-opacity="0" result="BackgroundImageFix"/>
<feBlend mode="normal" in="SourceGraphic" in2="BackgroundImageFix" result="shape"/>
<feColorMatrix in="SourceAlpha" type="matrix" values="0 0 0 0 0 0 0 0 0 0 0 0 0 0 0 0 0 0 127 0" result="hardAlpha"/>
<feOffset dx="0.453242"/>
<feGaussianBlur stdDeviation="0.377702"/>
<feComposite in2="hardAlpha" operator="arithmetic" k2="-1" k3="1"/>
<feColorMatrix type="matrix" values="0 0 0 0 0 0 0 0 0 0.146513 0 0 0 0 0.558333 0 0 0 1 0"/>
<feBlend mode="normal" in2="shape" result="effect1_innerShadow_35_3"/>
</filter>
<filter id="filter3_i_35_3" x="177.693" y="43.0927" width="17.0858" height="5.91461" filterUnits="userSpaceOnUse" color-interpolation-filters="sRGB">
<feFlood flood-opacity="0" result="BackgroundImageFix"/>
<feBlend mode="normal" in="SourceGraphic" in2="BackgroundImageFix" result="shape"/>
<feColorMatrix in="SourceAlpha" type="matrix" values="0 0 0 0 0 0 0 0 0 0 0 0 0 0 0 0 0 0 127 0" result="hardAlpha"/>
<feOffset dx="0.426085" dy="-0.426085"/>
<feGaussianBlur stdDeviation="0.426085"/>
<feComposite in2="hardAlpha" operator="arithmetic" k2="-1" k3="1"/>
<feColorMatrix type="matrix" values="0 0 0 0 0.972549 0 0 0 0 0.427451 0 0 0 0 0.45098 0 0 0 1 0"/>
<feBlend mode="normal" in2="shape" result="effect1_innerShadow_35_3"/>
</filter>
<filter id="filter4_i_35_3" x="183.002" y="27.5444" width="6.64778" height="3.92821" filterUnits="userSpaceOnUse" color-interpolation-filters="sRGB">
<feFlood flood-opacity="0" result="BackgroundImageFix"/>
<feBlend mode="normal" in="SourceGraphic" in2="BackgroundImageFix" result="shape"/>
<feColorMatrix in="SourceAlpha" type="matrix" values="0 0 0 0 0 0 0 0 0 0 0 0 0 0 0 0 0 0 127 0" result="hardAlpha"/>
<feOffset dx="0.604323" dy="-0.906485"/>
<feGaussianBlur stdDeviation="0.604323"/>
<feComposite in2="hardAlpha" operator="arithmetic" k2="-1" k3="1"/>
<feColorMatrix type="matrix" values="0 0 0 0 0.447059 0 0 0 0 0.192157 0 0 0 0 0.34902 0 0 0 1 0"/>
<feBlend mode="normal" in2="shape" result="effect1_innerShadow_35_3"/>
</filter>
<filter id="filter5_f_35_3" x="182.941" y="28.5358" width="4.5607" height="1.81314" filterUnits="userSpaceOnUse" color-interpolation-filters="sRGB">
<feFlood flood-opacity="0" result="BackgroundImageFix"/>
<feBlend mode="normal" in="SourceGraphic" in2="BackgroundImageFix" result="shape"/>
<feGaussianBlur stdDeviation="0.302162" result="effect1_foregroundBlur_35_3"/>
</filter>
<filter id="filter6_i_35_3" x="92.0244" y="71.0688" width="4.5774" height="16.3823" filterUnits="userSpaceOnUse" color-interpolation-filters="sRGB">
<feFlood flood-opacity="0" result="BackgroundImageFix"/>
<feBlend mode="normal" in="SourceGraphic" in2="BackgroundImageFix" result="shape"/>
<feColorMatrix in="SourceAlpha" type="matrix" values="0 0 0 0 0 0 0 0 0 0 0 0 0 0 0 0 0 0 127 0" result="hardAlpha"/>
<feOffset dx="0.530524"/>
<feGaussianBlur stdDeviation="0.707365"/>
<feComposite in2="hardAlpha" operator="arithmetic" k2="-1" k3="1"/>
<feColorMatrix type="matrix" values="0 0 0 0 0.130556 0 0 0 0 0.277334 0 0 0 0 0.783333 0 0 0 1 0"/>
<feBlend mode="normal" in2="shape" result="effect1_innerShadow_35_3"/>
</filter>
<filter id="filter7_i_35_3" x="91.0366" y="63.4478" width="6.20085" height="7.25781" filterUnits="userSpaceOnUse" color-interpolation-filters="sRGB">
<feFlood flood-opacity="0" result="BackgroundImageFix"/>
<feBlend mode="normal" in="SourceGraphic" in2="BackgroundImageFix" result="shape"/>
<feColorMatrix in="SourceAlpha" type="matrix" values="0 0 0 0 0 0 0 0 0 0 0 0 0 0 0 0 0 0 127 0" result="hardAlpha"/>
<feOffset dx="0.353682"/>
<feGaussianBlur stdDeviation="0.530524"/>
<feComposite in2="hardAlpha" operator="arithmetic" k2="-1" k3="1"/>
<feColorMatrix type="matrix" values="0 0 0 0 0.839216 0 0 0 0 0.466667 0 0 0 0 0.262745 0 0 0 1 0"/>
<feBlend mode="normal" in2="shape" result="effect1_innerShadow_35_3"/>
</filter>
<linearGradient id="paint0_linear_35_3" x1="198.488" y1="23.9185" x2="198.488" y2="34.5952" gradientUnits="userSpaceOnUse">
<stop stop-color="#B5A5C6"/>
<stop offset="1" stop-color="#D1BBE7"/>
</linearGradient>
<radialGradient id="paint1_radial_35_3" cx="0" cy="0" r="1" gradientUnits="userSpaceOnUse" gradientTransform="translate(195.206 30.4056) rotate(24.538) scale(1.28116 1.0592)">
<stop stop-color="#FFFBFF"/>
<stop offset="1" stop-color="#FFFBFF" stop-opacity="0"/>
</radialGradient>
<radialGradient id="paint2_radial_35_3" cx="0" cy="0" r="1" gradientUnits="userSpaceOnUse" gradientTransform="translate(199.078 33.4319) rotate(-114.02) scale(2.37769 0.646112)">
<stop stop-color="#7F7987"/>
<stop offset="1" stop-color="#7F7987" stop-opacity="0"/>
</radialGradient>
<radialGradient id="paint3_radial_35_3" cx="0" cy="0" r="1" gradientUnits="userSpaceOnUse" gradientTransform="translate(194.711 30.2367) rotate(-35.94) scale(9.00165 6.3689)">
<stop offset="0.819127" stop-color="#7C7B7D" stop-opacity="0"/>
<stop offset="0.949105" stop-color="#7C7B7D"/>
</radialGradient>
<radialGradient id="paint4_radial_35_3" cx="0" cy="0" r="1" gradientUnits="userSpaceOnUse" gradientTransform="translate(198.28 28.7564) rotate(59.601) scale(2.05305 3.0208)">
<stop offset="0.325017" stop-color="#B7B5BB"/>
<stop offset="1" stop-color="#B7B5BB" stop-opacity="0"/>
</radialGradient>
<radialGradient id="paint5_radial_35_3" cx="0" cy="0" r="1" gradientUnits="userSpaceOnUse" gradientTransform="translate(197.601 25.2471) rotate(36.158) scale(2.71175 0.950552)">
<stop stop-color="#A972D4"/>
<stop offset="1" stop-color="#A972D4" stop-opacity="0"/>
</radialGradient>
<radialGradient id="paint6_radial_35_3" cx="0" cy="0" r="1" gradientUnits="userSpaceOnUse" gradientTransform="translate(196.949 23.5419) rotate(18.435) scale(2.72952 0.401496)">
<stop stop-color="#BDB6C2"/>
<stop offset="1" stop-color="#BDB6C2" stop-opacity="0"/>
</radialGradient>
<radialGradient id="paint7_radial_35_3" cx="0" cy="0" r="1" gradientUnits="userSpaceOnUse" gradientTransform="translate(197.967 33.3784) rotate(-108.8) scale(2.48381 0.618184)">
<stop stop-color="#E1C9F8"/>
<stop offset="1" stop-color="#E1C9F8" stop-opacity="0"/>
</radialGradient>
<radialGradient id="paint8_radial_35_3" cx="0" cy="0" r="1" gradientUnits="userSpaceOnUse" gradientTransform="translate(185.696 33.3375) scale(1.41024 2.78126)">
<stop stop-color="#E6D6F2"/>
<stop offset="1" stop-color="#7B6787"/>
</radialGradient>
<linearGradient id="paint9_linear_35_3" x1="199.016" y1="41.1578" x2="208.908" y2="54.7577" gradientUnits="userSpaceOnUse">
<stop stop-color="#3C4372"/>
<stop offset="0.258913" stop-color="#472E57" stop-opacity="0"/>
<stop offset="0.759234" stop-color="#472E57" stop-opacity="0"/>
<stop offset="1" stop-color="#472E57"/>
</linearGradient>
<linearGradient id="paint10_linear_35_3" x1="202.422" y1="40.7806" x2="181.02" y2="40.7806" gradientUnits="userSpaceOnUse">
<stop stop-color="#DF3C6D"/>
<stop offset="1" stop-color="#FF4C65"/>
</linearGradient>
<radialGradient id="paint11_radial_35_3" cx="0" cy="0" r="1" gradientUnits="userSpaceOnUse" gradientTransform="translate(177.941 45.8553) rotate(13.348) scale(2.60013 4.03729)">
<stop stop-color="#FFED66"/>
<stop offset="1" stop-color="#FFED66" stop-opacity="0"/>
</radialGradient>
<linearGradient id="paint12_linear_35_3" x1="185.588" y1="44.1531" x2="185.942" y2="46.2933" gradientUnits="userSpaceOnUse">
<stop stop-color="#FFCA44"/>
<stop offset="1" stop-color="#FFCA44" stop-opacity="0"/>
</linearGradient>
<radialGradient id="paint13_radial_35_3" cx="0" cy="0" r="1" gradientUnits="userSpaceOnUse" gradientTransform="translate(184.439 49.0071) rotate(-30.4912) scale(10.8164 9.96801)">
<stop offset="0.799663" stop-color="#C28849" stop-opacity="0"/>
<stop offset="0.951574" stop-color="#C28849"/>
</radialGradient>
<radialGradient id="paint14_radial_35_3" cx="0" cy="0" r="1" gradientUnits="userSpaceOnUse" gradientTransform="translate(183.238 28.7342) rotate(49.028) scale(2.37617 1.98931)">
<stop stop-color="#C4877A"/>
<stop offset="1" stop-color="#C4877A" stop-opacity="0"/>
</radialGradient>
<linearGradient id="paint15_linear_35_3" x1="195.466" y1="24.9612" x2="195.466" y2="25.4293" gradientUnits="userSpaceOnUse">
<stop stop-color="#3B2E4C"/>
<stop offset="1" stop-color="#47265F"/>
</linearGradient>
<radialGradient id="paint16_radial_35_3" cx="0" cy="0" r="1" gradientUnits="userSpaceOnUse" gradientTransform="translate(194.102 24.5985) scale(2.93914 0.525293)">
<stop stop-color="#423E47"/>
<stop offset="1" stop-color="#423E47" stop-opacity="0"/>
</radialGradient>
<radialGradient id="paint17_radial_35_3" cx="0" cy="0" r="1" gradientUnits="userSpaceOnUse" gradientTransform="translate(193.089 24.6739) scale(1.32574 1.25097)">
<stop stop-color="#575657"/>
<stop offset="1" stop-color="#575657" stop-opacity="0"/>
</radialGradient>
<radialGradient id="paint18_radial_35_3" cx="0" cy="0" r="1" gradientUnits="userSpaceOnUse" gradientTransform="translate(192.564 47.1905) rotate(-144.926) scale(2.87875)">
<stop stop-color="#E7E4EA"/>
<stop offset="1" stop-color="#CDC3D9"/>
</radialGradient>
<linearGradient id="paint19_linear_35_3" x1="nan" y1="nan" x2="nan" y2="nan" gradientUnits="userSpaceOnUse">
<stop stop-color="#C58677"/>
<stop offset="1" stop-color="#C58677" stop-opacity="0"/>
</linearGradient>
<radialGradient id="paint20_radial_35_3" cx="0" cy="0" r="1" gradientUnits="userSpaceOnUse" gradientTransform="translate(93.7948 69.3191) rotate(-88.2769) scale(4.48293 3.81019)">
<stop offset="0.169422" stop-color="#FFD060"/>
<stop offset="1" stop-color="#FF9452"/>
</radialGradient>
<radialGradient id="paint21_radial_35_3" cx="0" cy="0" r="1" gradientUnits="userSpaceOnUse" gradientTransform="translate(95.2615 68.2754) rotate(-132.341) scale(4.47137 6.29524)">
<stop offset="0.723529" stop-color="#FF836A" stop-opacity="0"/>
<stop offset="1" stop-color="#FF6677"/>
</radialGradient>
<linearGradient id="paint22_linear_35_3" x1="93.83" y1="70.4245" x2="93.7827" y2="69.5917" gradientUnits="userSpaceOnUse">
<stop offset="0.245714" stop-color="#FCA94C"/>
<stop offset="1" stop-color="#FCA94C" stop-opacity="0"/>
</linearGradient>
<linearGradient id="paint23_linear_35_3" x1="94.0636" y1="69.821" x2="94.0619" y2="70.7758" gradientUnits="userSpaceOnUse">
<stop offset="0.0865052" stop-color="#9A7F86"/>
<stop offset="1" stop-color="#9A7F86" stop-opacity="0"/>
</linearGradient>
<linearGradient id="paint24_linear_35_3" x1="96.2868" y1="71.3559" x2="93.9145" y2="71.3938" gradientUnits="userSpaceOnUse">
<stop offset="0.12496" stop-color="#7F7D80"/>
<stop offset="1" stop-color="#7F7D80" stop-opacity="0"/>
</linearGradient>
<linearGradient id="paint25_linear_35_3" x1="91.2968" y1="70.8239" x2="93.2232" y2="70.9381" gradientUnits="userSpaceOnUse">
<stop stop-color="#AE7FCD"/>
<stop offset="1" stop-color="#AE7FCD" stop-opacity="0"/>
</linearGradient>
<radialGradient id="paint26_radial_35_3" cx="0" cy="0" r="1" gradientUnits="userSpaceOnUse" gradientTransform="translate(93.7714 72.8882) rotate(-85.3536) scale(2.63659 2.37803)">
<stop stop-color="#B9B0C3"/>
<stop offset="1" stop-color="#A199A9" stop-opacity="0"/>
</radialGradient>
<radialGradient id="paint27_radial_35_3" cx="0" cy="0" r="1" gradientUnits="userSpaceOnUse" gradientTransform="translate(93.6844 72.7652) rotate(-87.0259) scale(1.05518 1.959)">
<stop offset="0.174504" stop-color="#B9B0C3"/>
<stop offset="1" stop-color="#B9B0C3" stop-opacity="0"/>
</radialGradient>
<radialGradient id="paint28_radial_35_3" cx="0" cy="0" r="1" gradientUnits="userSpaceOnUse" gradientTransform="translate(161.73 12.0053) rotate(138.325) scale(12.4379 14.069)">
<stop offset="0.0190182" stop-color="#7CB1E6"/>
<stop offset="1" stop-color="#426BBE"/>
</radialGradient>
<radialGradient id="paint29_radial_35_3" cx="0" cy="0" r="1" gradientUnits="userSpaceOnUse" gradientTransform="translate(156.302 23.2628) rotate(-90) scale(8.67086 18.9492)">
<stop stop-color="#5963EE"/>
<stop offset="1" stop-color="#5963EE" stop-opacity="0"/>
</radialGradient>
<radialGradient id="paint30_radial_35_3" cx="0" cy="0" r="1" gradientUnits="userSpaceOnUse" gradientTransform="translate(155.828 13.4626) rotate(90) scale(9.2902)">
<stop offset="0.92549" stop-color="#7160EE" stop-opacity="0"/>
<stop offset="1" stop-color="#7160EE"/>
</radialGradient>
<radialGradient id="paint31_radial_35_3" cx="0" cy="0" r="1" gradientUnits="userSpaceOnUse" gradientTransform="translate(157.358 16.1221) rotate(-135) scale(11.3093 11.255)">
<stop offset="0.8041" stop-color="#516B97" stop-opacity="0"/>
<stop offset="1" stop-color="#516B97"/>
</radialGradient>
<radialGradient id="paint32_radial_35_3" cx="0" cy="0" r="1" gradientUnits="userSpaceOnUse" gradientTransform="translate(155.573 15.2477) rotate(123.996) scale(3.77912 4.22359)">
<stop offset="0.49368" stop-color="#D5A8FE"/>
<stop offset="1" stop-color="#D5A8FE" stop-opacity="0"/>
</radialGradient>
<radialGradient id="paint33_radial_35_3" cx="0" cy="0" r="1" gradientUnits="userSpaceOnUse" gradientTransform="translate(155.191 13.8997) rotate(-133.949) scale(2.80847 3.01216)">
<stop offset="0.498277" stop-color="#BFB6C9"/>
<stop offset="1" stop-color="#BFB6C9" stop-opacity="0"/>
</radialGradient>
<radialGradient id="paint34_radial_35_3" cx="0" cy="0" r="1" gradientUnits="userSpaceOnUse" gradientTransform="translate(156.193 14.1547) rotate(-47.0902) scale(3.53167 3.58437)">
<stop offset="0.554219" stop-color="#F9F2FF"/>
<stop offset="1" stop-color="#F9F2FF" stop-opacity="0"/>
</radialGradient>
<radialGradient id="paint35_radial_35_3" cx="0" cy="0" r="1" gradientUnits="userSpaceOnUse" gradientTransform="translate(157.14 13.3531) rotate(130.079) scale(3.90437 4.85006)">
<stop stop-color="#5ED3FF"/>
<stop offset="1" stop-color="#53B6FF"/>
</radialGradient>
<radialGradient id="paint36_radial_35_3" cx="0" cy="0" r="1" gradientUnits="userSpaceOnUse" gradientTransform="translate(154.717 15.4846) rotate(-39.1032) scale(2.8015 2.18866)">
<stop stop-color="#59545E"/>
<stop offset="0.764654" stop-color="#312939"/>
</radialGradient>
<radialGradient id="paint37_radial_35_3" cx="0" cy="0" r="1" gradientUnits="userSpaceOnUse" gradientTransform="translate(155.945 12.9708) rotate(90) scale(2.2588 2.17499)">
<stop stop-color="#422559"/>
<stop offset="1" stop-color="#422559" stop-opacity="0"/>
</radialGradient>
</defs>
</svg>
