<svg width="320" height="321" viewBox="0 0 320 321" fill="none" xmlns="http://www.w3.org/2000/svg">
<path d="M305.521 228.142C224.492 268.437 88.771 260.032 42.7889 171.971C24.5843 137.123 17.1797 65.9142 70.1006 65.9142C105.088 65.9142 127.132 107.149 103.497 150.054C123.075 162.696 165.583 139.132 165.583 139.132C203.15 202.565 232.339 213.143 236.328 115.191C236.328 115.191 309.175 153.77 320 145.473C312.565 63.9953 243.919 0.167969 160.334 0.167969C71.7838 0.167969 0 71.8024 0 160.168C0 248.534 71.7838 320.168 160.334 320.168C224.528 320.168 279.911 282.52 305.521 228.142Z" fill="#3F6CFF"/>
<path d="M305.521 228.142C224.492 268.437 88.771 260.032 42.7889 171.971C24.5843 137.123 17.1797 65.9142 70.1006 65.9142C105.088 65.9142 127.132 107.149 103.497 150.054C123.075 162.696 165.583 139.132 165.583 139.132C203.15 202.565 232.339 213.143 236.328 115.191C236.328 115.191 309.175 153.77 320 145.473C312.565 63.9953 243.919 0.167969 160.334 0.167969C71.7838 0.167969 0 71.8024 0 160.168C0 248.534 71.7838 320.168 160.334 320.168C224.528 320.168 279.911 282.52 305.521 228.142Z" fill="url(#paint0_radial_83_345)" fill-opacity="0.2"/>
<mask id="mask0_83_345" style="mask-type:alpha" maskUnits="userSpaceOnUse" x="0" y="0" width="320" height="321">
<path d="M305.521 228.142C224.492 268.437 88.771 260.032 42.7889 171.971C24.5843 137.123 17.1797 65.9142 70.1006 65.9142C105.088 65.9142 127.132 107.149 103.497 150.054C123.075 162.696 165.583 139.132 165.583 139.132C203.15 202.565 232.339 213.143 236.328 115.191C236.328 115.191 309.175 153.77 320 145.473C312.565 63.9953 243.919 0.167969 160.334 0.167969C71.7838 0.167969 0 71.8024 0 160.168C0 248.534 71.7838 320.168 160.334 320.168C224.528 320.168 279.911 282.52 305.521 228.142Z" fill="#3D6DFF"/>
</mask>
<g mask="url(#mask0_83_345)">
<g filter="url(#filter0_d_83_345)">
<path d="M48.3947 181.64C50.5412 185.264 52.8512 188.822 55.3194 192.302H56.0361C110.961 261.093 231.229 265.086 305.521 228.142C279.911 282.52 224.528 320.168 160.334 320.168C71.7838 320.168 0 248.534 0 160.168C0 98.059 21.1387 44.2155 74.5153 17.7014C56.9454 31.964 43.3194 50.4916 35.5817 72.5166C27.7385 94.8417 26.8688 118.13 31.892 140.495C34.3163 152.146 38.2114 163.208 42.7891 171.971C44.5314 175.308 46.4024 178.53 48.3947 181.64Z" fill="#3F6CFF"/>
<path d="M48.3947 181.64C50.5412 185.264 52.8512 188.822 55.3194 192.302H56.0361C110.961 261.093 231.229 265.086 305.521 228.142C279.911 282.52 224.528 320.168 160.334 320.168C71.7838 320.168 0 248.534 0 160.168C0 98.059 21.1387 44.2155 74.5153 17.7014C56.9454 31.964 43.3194 50.4916 35.5817 72.5166C27.7385 94.8417 26.8688 118.13 31.892 140.495C34.3163 152.146 38.2114 163.208 42.7891 171.971C44.5314 175.308 46.4024 178.53 48.3947 181.64Z" fill="url(#paint1_linear_83_345)" fill-opacity="0.2"/>
</g>
</g>
<defs>
<filter id="filter0_d_83_345" x="-5" y="9.70142" width="325.521" height="322.467" filterUnits="userSpaceOnUse" color-interpolation-filters="sRGB">
<feFlood flood-opacity="0" result="BackgroundImageFix"/>
<feColorMatrix in="SourceAlpha" type="matrix" values="0 0 0 0 0 0 0 0 0 0 0 0 0 0 0 0 0 0 127 0" result="hardAlpha"/>
<feOffset dx="5" dy="2"/>
<feGaussianBlur stdDeviation="5"/>
<feComposite in2="hardAlpha" operator="out"/>
<feColorMatrix type="matrix" values="0 0 0 0 0 0 0 0 0 0 0 0 0 0 0 0 0 0 0.25 0"/>
<feBlend mode="normal" in2="BackgroundImageFix" result="effect1_dropShadow_83_345"/>
<feBlend mode="normal" in="SourceGraphic" in2="effect1_dropShadow_83_345" result="shape"/>
</filter>
<radialGradient id="paint0_radial_83_345" cx="0" cy="0" r="1" gradientUnits="userSpaceOnUse" gradientTransform="translate(204.5 22.5) rotate(106.771) scale(114.365 193.888)">
<stop stop-color="white"/>
<stop offset="1"/>
</radialGradient>
<linearGradient id="paint1_linear_83_345" x1="152.76" y1="17.7014" x2="152.76" y2="320.168" gradientUnits="userSpaceOnUse">
<stop stop-color="white"/>
<stop offset="1"/>
</linearGradient>
</defs>
</svg>
