<svg width="13" height="14" viewBox="0 0 13 14" fill="none" xmlns="http://www.w3.org/2000/svg">
<path d="M10.8354 0.64917H9.60043C8.18344 0.64917 7.43595 1.39666 7.43595 2.81365V4.04865C7.43595 5.46564 8.18344 6.21313 9.60043 6.21313H10.8354C12.2524 6.21313 12.9999 5.46564 12.9999 4.04865V2.81365C12.9999 1.39666 12.2524 0.64917 10.8354 0.64917Z" fill="#283146"/>
<path d="M3.40566 8.07882H2.17067C0.747178 8.07882 -0.000317033 8.82632 -0.000317033 10.2433V11.4783C-0.000317033 12.9018 0.747178 13.6493 2.16417 13.6493H3.39916C4.81615 13.6493 5.56364 12.9018 5.56364 11.4848V10.2498C5.57014 8.82632 4.82265 8.07882 3.40566 8.07882Z" fill="#283146"/>
<path d="M2.78799 6.22613C4.32803 6.22613 5.57647 4.97769 5.57647 3.43765C5.57647 1.89762 4.32803 0.64917 2.78799 0.64917C1.24796 0.64917 -0.000488281 1.89762 -0.000488281 3.43765C-0.000488281 4.97769 1.24796 6.22613 2.78799 6.22613Z" fill="#283146"/>
<path d="M10.2105 13.6492C11.7506 13.6492 12.999 12.4007 12.999 10.8607C12.999 9.32066 11.7506 8.07221 10.2105 8.07221C8.67051 8.07221 7.42206 9.32066 7.42206 10.8607C7.42206 12.4007 8.67051 13.6492 10.2105 13.6492Z" fill="#283146"/>
</svg>
