<svg width="432" height="400" viewBox="0 0 432 400" fill="none" xmlns="http://www.w3.org/2000/svg">
<g filter="url(#filter0_ii_80_261)">
<path d="M390.735 249.231C392.427 249.692 394.119 250.154 395.966 250.923C414.273 258.461 423.042 279.538 415.35 297.846C407.812 316.154 386.735 324.923 368.427 317.231C366.119 316.308 363.965 315.077 361.965 313.692L216.273 215.384L387.042 248.461C388.273 248.615 389.504 248.923 390.735 249.231Z" fill="url(#paint0_radial_80_261)"/>
</g>
<g filter="url(#filter1_ii_80_261)">
<path d="M431.655 215.385C431.655 235.231 415.655 251.231 395.809 251.231C393.348 251.231 390.886 250.923 388.424 250.462L216.27 215.385L386.732 180.616C387.963 180.308 389.04 180 390.271 179.846C391.963 179.539 393.809 179.385 395.655 179.385C415.655 179.539 431.655 195.539 431.655 215.385Z" fill="url(#paint1_radial_80_261)"/>
</g>
<g filter="url(#filter2_ii_80_261)">
<path d="M363.504 116C365.043 115.077 366.581 114.308 368.273 113.539C386.735 106 407.658 114.616 415.196 132.923C422.735 151.231 414.12 172.308 395.812 179.846C393.504 180.77 391.043 181.539 388.735 182L216.273 215.385L360.427 118C361.504 117.231 362.427 116.616 363.504 116Z" fill="url(#paint2_radial_80_261)"/>
</g>
<g filter="url(#filter3_ii_80_261)">
<path d="M314.271 67.2305C315.348 65.6921 316.579 64.4613 317.81 63.0767C331.81 49.0767 354.579 49.0767 368.579 63.0767C382.579 77.0767 382.579 99.8459 368.579 113.846C366.733 115.692 364.887 117.231 362.887 118.461L216.271 215.385L312.271 70.3075C312.887 69.2305 313.502 68.1536 314.271 67.2305Z" fill="url(#paint3_radial_80_261)"/>
</g>
<g filter="url(#filter4_ii_80_261)">
<path d="M250.119 40.9234C250.58 39.2311 251.042 37.5388 251.811 35.6926C259.35 17.5388 280.426 8.76952 298.734 16.4618C317.042 24.1542 325.657 44.9234 318.119 63.2311C317.196 65.5388 315.965 67.6927 314.58 69.6927L216.273 215.385L249.349 44.6157C249.503 43.3849 249.811 42.1542 250.119 40.9234Z" fill="url(#paint4_radial_80_261)"/>
</g>
<g filter="url(#filter5_ii_80_261)">
<path d="M180.733 41.3847C180.425 39.6924 180.271 37.8462 180.271 36C180.425 16 196.425 0 216.271 0C236.118 0 252.118 16 252.118 35.8462C252.118 38.3077 251.81 40.7693 251.348 43.2308L216.271 215.385L181.502 44.9231C181.195 43.6924 181.041 42.4616 180.733 41.3847Z" fill="url(#paint5_radial_80_261)"/>
</g>
<g filter="url(#filter6_ii_80_261)">
<path d="M116.886 68.1532C115.963 66.6147 115.193 65.0762 114.424 63.3839C106.886 45.0762 115.501 23.9993 133.809 16.4608C152.117 8.92232 173.194 17.5377 180.732 35.8454C181.655 38.1531 182.424 40.6147 182.886 42.9224L216.271 215.384L118.886 71.2301C118.117 70.1532 117.501 69.2301 116.886 68.1532Z" fill="url(#paint6_radial_80_261)"/>
</g>
<g filter="url(#filter7_ii_80_261)">
<path d="M68.1165 117.384C66.7319 116.307 65.3473 115.077 63.9626 113.846C49.9626 99.8459 49.9626 77.0767 63.9626 63.0767C77.9627 49.0767 100.732 49.0767 114.732 63.0767C116.578 64.9228 118.117 66.769 119.347 68.769L216.271 215.385L71.1934 119.384C70.1165 118.769 69.0396 118.154 68.1165 117.384Z" fill="url(#paint7_radial_80_261)"/>
</g>
<g filter="url(#filter8_ii_80_261)">
<path d="M41.8088 181.539C40.1165 181.078 38.4241 180.616 36.578 179.847C18.2703 172.309 9.50104 151.232 17.1933 132.924C24.8857 114.616 45.8088 105.847 64.1165 113.539C66.4242 114.462 68.578 115.693 70.578 117.078L216.271 215.386L45.5011 182.309C44.2703 182.155 43.0395 181.847 41.8088 181.539Z" fill="url(#paint8_radial_80_261)"/>
</g>
<g filter="url(#filter9_ii_80_261)">
<path d="M0.885651 215.385C0.885651 195.539 16.8857 179.539 36.7318 179.539C39.1934 179.539 41.6549 179.847 44.1165 180.308L216.271 215.385L45.8088 250.154C44.578 250.462 43.5011 250.77 42.2703 250.924C40.578 251.231 38.7318 251.385 36.8857 251.385C16.8857 251.231 0.885651 235.231 0.885651 215.385Z" fill="url(#paint9_radial_80_261)"/>
</g>
<g filter="url(#filter10_ii_80_261)">
<path d="M17.3472 297.846C9.80873 279.538 18.4241 258.461 36.7318 250.923C39.0395 250 41.5011 249.231 43.8088 248.769L216.271 215.384L73.3617 312.5C54.6034 325.899 26.4934 320.058 17.3472 297.846Z" fill="url(#paint10_radial_80_261)"/>
</g>
<path d="M216.27 215.384L361.962 313.693C363.963 315.077 366.117 316.308 368.424 317.231C386.732 324.923 407.809 316.154 415.347 297.846C422.94 279.775 414.494 259.005 396.666 251.222C416.114 250.769 431.655 234.945 431.655 215.385C431.655 195.926 416.272 180.164 396.819 179.412C414.431 171.526 422.592 150.891 415.194 132.923C407.789 114.939 387.468 106.308 369.252 113.154C382.575 99.1055 382.35 76.8483 368.578 63.0767C354.778 49.2769 332.458 49.0796 318.414 62.4848C325.419 44.3624 316.791 24.0498 298.732 16.4619C280.66 8.86854 259.889 17.3159 252.107 34.9966C251.658 15.5454 235.832 0 216.27 0C196.811 0 181.05 15.3813 180.297 34.8333C172.41 17.2226 151.775 9.06262 133.809 16.4608C115.829 23.8643 107.197 44.326 114.035 62.3983C99.9861 49.0805 77.7327 49.3066 63.9626 63.0767C50.1649 76.8743 49.9654 99.1893 63.364 113.233C45.2394 106.088 24.7804 114.867 17.1932 132.924C9.59998 150.996 18.0472 171.766 35.8756 179.549C16.4275 180.001 0.885559 195.825 0.885559 215.386C0.885559 234.844 16.2669 250.606 35.7188 251.359C18.1088 259.246 9.94882 279.88 17.3472 297.846C26.4931 320.059 54.6031 325.899 73.3616 312.5L216.27 215.384Z" fill="url(#paint11_radial_80_261)" fill-opacity="0.75"/>
<path d="M382.12 301.693C372.348 301.693 364.427 293.772 364.427 284.001C364.427 274.23 372.348 266.308 382.12 266.308C391.891 266.308 399.812 274.23 399.812 284.001C399.812 293.772 391.891 301.693 382.12 301.693Z" fill="#FED548"/>
<path d="M395.814 233.076C386.043 233.076 378.122 225.155 378.122 215.384C378.122 205.613 386.043 197.692 395.814 197.692C405.585 197.692 413.506 205.613 413.506 215.384C413.506 225.155 405.585 233.076 395.814 233.076Z" fill="#FFD847"/>
<path d="M382.12 164.462C372.348 164.462 364.427 156.541 364.427 146.77C364.427 136.999 372.348 129.077 382.12 129.077C391.891 129.077 399.812 136.999 399.812 146.77C399.812 156.541 391.891 164.462 382.12 164.462Z" fill="#FFDE47"/>
<path d="M343.2 106.154C333.429 106.154 325.507 98.2325 325.507 88.4613C325.507 78.69 333.429 70.7689 343.2 70.7689C352.971 70.7689 360.892 78.69 360.892 88.4613C360.892 98.2325 352.971 106.154 343.2 106.154Z" fill="#FFE546"/>
<path d="M284.891 67.23C275.12 67.23 267.199 59.3089 267.199 49.5377C267.199 39.7665 275.12 31.8453 284.891 31.8453C294.662 31.8453 302.583 39.7665 302.583 49.5377C302.583 59.3089 294.662 67.23 284.891 67.23Z" fill="#FFE946"/>
<path d="M216.276 53.5393C206.505 53.5393 198.584 45.6182 198.584 35.847C198.584 26.0758 206.505 18.1547 216.276 18.1547C226.048 18.1547 233.969 26.0758 233.969 35.847C233.969 45.6182 226.048 53.5393 216.276 53.5393Z" fill="#FFED4B"/>
<path d="M147.654 67.23C137.883 67.23 129.962 59.3089 129.962 49.5377C129.962 39.7665 137.883 31.8453 147.654 31.8453C157.426 31.8453 165.347 39.7665 165.347 49.5377C165.347 59.3089 157.426 67.23 147.654 67.23Z" fill="#FFF154"/>
<path d="M89.3531 106.154C79.5819 106.154 71.6608 98.2325 71.6608 88.4613C71.6608 78.69 79.5819 70.7689 89.3531 70.7689C99.1243 70.7689 107.045 78.69 107.045 88.4613C107.045 98.2325 99.1243 106.154 89.3531 106.154Z" fill="#FFF45D"/>
<path d="M50.4258 164.462C40.6546 164.462 32.7335 156.541 32.7335 146.77C32.7335 136.998 40.6546 129.077 50.4258 129.077C60.197 129.077 68.1182 136.998 68.1182 146.77C68.1182 156.541 60.197 164.462 50.4258 164.462Z" fill="#FFF764"/>
<path d="M36.731 233.076C26.9598 233.076 19.0387 225.155 19.0387 215.384C19.0387 205.613 26.9598 197.692 36.731 197.692C46.5022 197.692 54.4233 205.613 54.4233 215.384C54.4233 225.155 46.5022 233.076 36.731 233.076Z" fill="#FFF864"/>
<path d="M50.4258 301.693C40.6546 301.693 32.7335 293.772 32.7335 284.001C32.7335 274.229 40.6546 266.308 50.4258 266.308C60.197 266.308 68.1182 274.229 68.1182 284.001C68.1182 293.772 60.197 301.693 50.4258 301.693Z" fill="#FFF664"/>
<path d="M385.81 285.693C383.04 292.462 376.425 296.616 369.502 296.616C364.579 291.693 362.887 284.155 365.656 277.232C368.425 270.462 375.04 266.308 381.964 266.308C386.887 271.232 388.733 278.77 385.81 285.693Z" fill="#3E99FA"/>
<path d="M399.812 215.384C399.812 222.769 395.35 229.076 388.889 231.692C382.427 229.076 377.966 222.615 377.966 215.384C377.966 208.153 382.427 201.692 388.889 199.076C395.35 201.692 399.812 207.999 399.812 215.384Z" fill="#3E9AF8"/>
<path d="M385.811 145.077C388.58 151.846 386.888 159.384 381.965 164.461C375.041 164.461 368.426 160.307 365.657 153.538C362.888 146.769 364.58 139.23 369.503 134.154C376.426 134.154 383.041 138.307 385.811 145.077Z" fill="#3D9CF9"/>
<path d="M346.117 85.537C351.348 90.7678 352.579 98.4601 349.964 104.922C343.502 107.537 335.81 106.306 330.733 101.076C325.502 95.8447 324.271 88.1524 326.887 81.8447C333.194 79.0755 340.887 80.3063 346.117 85.537Z" fill="#3CA3FC"/>
<path d="M286.582 45.8456C293.352 48.6148 297.505 55.2302 297.505 62.1533C292.582 67.0764 285.044 68.7687 278.121 65.9994C271.352 63.2302 267.198 56.6148 267.198 49.6917C272.121 44.7687 279.659 42.9225 286.582 45.8456Z" fill="#3EA6F9"/>
<path d="M216.271 31.8463C223.656 31.8463 229.963 36.3079 232.579 42.7694C229.963 49.2309 223.502 53.6925 216.271 53.6925C209.04 53.6925 202.579 49.2309 199.963 42.7694C202.579 36.3079 208.886 31.8463 216.271 31.8463Z" fill="#43A9FC"/>
<path d="M145.962 45.8447C152.731 43.0755 160.27 44.7678 165.347 49.6909C165.347 56.614 161.193 63.2294 154.424 65.9986C147.654 68.7678 140.116 67.0755 135.039 62.1524C135.039 55.2294 139.193 48.614 145.962 45.8447Z" fill="#4DAEFF"/>
<path d="M86.4267 85.5377C91.6575 80.3069 99.3498 79.0761 105.657 81.6915C108.273 88.1531 107.042 95.8454 101.811 100.922C96.5806 106.153 88.8882 107.384 82.5805 104.768C79.9652 98.4608 81.1959 90.7684 86.4267 85.5377Z" fill="#53B1FF"/>
<path d="M46.7334 145.077C49.5027 138.307 56.1181 134.154 63.0412 134.154C67.9642 139.077 69.6566 146.615 66.8873 153.538C64.1181 160.461 57.5027 164.461 50.5796 164.461C45.6565 159.538 43.8103 152 46.7334 145.077Z" fill="#5AB5FF"/>
<path d="M32.7354 215.384C32.7354 207.999 37.1969 201.692 43.6585 199.076C50.12 201.692 54.5815 208.153 54.5815 215.384C54.5815 222.615 50.12 229.076 43.6585 231.692C37.1969 229.076 32.7354 222.769 32.7354 215.384Z" fill="#5DB7FF"/>
<path d="M46.7334 285.693C43.9642 278.924 45.6565 271.385 50.5796 266.308C57.5027 266.308 64.1181 270.462 66.8873 277.232C69.6566 284.001 67.9642 291.539 63.0412 296.616C56.1181 296.616 49.5027 292.462 46.7334 285.693Z" fill="#5FB9FF"/>
<path d="M212.271 124.462C267.501 122.308 313.963 165.231 316.117 220.462C316.886 240 311.963 258.308 303.04 274.154L216.271 215.385V324.308C162.886 324.308 118.578 282.154 116.424 228.308C114.117 173.231 157.04 126.616 212.271 124.462Z" fill="url(#paint12_linear_80_261)"/>
<path d="M267.237 138.36C278.062 144.791 287.587 153.214 295.289 163.146L216.269 215.384L267.237 138.36Z" fill="url(#paint13_linear_80_261)"/>
<path d="M294.709 162.398C302.656 172.448 308.72 184.082 312.349 196.787L216.275 215.385L294.709 162.398Z" fill="url(#paint14_linear_80_261)"/>
<path d="M216.27 215.384L312.071 195.844C314.391 203.675 315.784 211.921 316.117 220.461C316.319 225.606 316.127 230.666 315.571 235.618L216.27 215.384Z" fill="url(#paint15_linear_80_261)"/>
<path fill-rule="evenodd" clip-rule="evenodd" d="M303.13 273.993L216.272 215.384L315.676 234.638C314.228 248.794 309.808 262.086 303.13 273.993Z" fill="url(#paint16_linear_80_261)"/>
<path d="M165.429 138.281C175.794 132.003 186.494 128.033 198.942 125.87L217.472 218.99L165.429 138.281Z" fill="url(#paint17_linear_80_261)"/>
<path d="M165.429 138.281C175.794 132.003 186.494 128.033 198.942 125.87L217.472 218.99L165.429 138.281Z" fill="url(#paint18_linear_80_261)"/>
<path d="M137.724 162.439C145.407 152.532 154.434 144.734 165.304 138.287L216.751 217.608L137.724 162.439Z" fill="url(#paint19_linear_80_261)"/>
<path d="M137.724 162.439C145.407 152.532 154.434 144.734 165.304 138.287L216.751 217.608L137.724 162.439Z" fill="url(#paint20_linear_80_261)"/>
<path d="M120.477 195.853C124.083 183.227 129.797 172.498 137.76 162.409L216.872 217.428L120.477 195.853Z" fill="url(#paint21_linear_80_261)"/>
<path d="M120.477 195.853C124.083 183.227 129.797 172.498 137.76 162.409L216.872 217.428L120.477 195.853Z" fill="url(#paint22_linear_80_261)"/>
<path d="M120.412 195.854L219.275 217.788L116.811 234.435C116.539 232.018 116.523 230.776 116.424 228.308C115.952 217.032 117.375 206.111 120.412 195.854Z" fill="url(#paint23_linear_80_261)"/>
<path d="M120.412 195.854L219.275 217.788L116.811 234.435C116.539 232.018 116.523 230.776 116.424 228.308C115.952 217.032 117.375 206.111 120.412 195.854Z" fill="url(#paint24_linear_80_261)"/>
<path d="M116.865 234.535L216.271 217.954V249.032L156.196 304.208C134.626 287.954 119.775 263.126 116.865 234.535Z" fill="url(#paint25_linear_80_261)"/>
<path d="M116.865 234.535L216.271 217.954V249.032L156.196 304.208C134.626 287.954 119.775 263.126 116.865 234.535Z" fill="url(#paint26_linear_80_261)"/>
<path d="M237.356 229.666L219.315 217.446L257.617 211.057L237.356 229.666Z" fill="url(#paint27_linear_80_261)"/>
<path d="M237.356 229.666L219.315 217.446L257.617 211.057L237.356 229.666Z" fill="url(#paint28_linear_80_261)"/>
<path d="M221.056 396.394H237.703L220.876 318.75H204.229L221.056 396.394Z" fill="url(#paint29_linear_80_261)"/>
<path d="M174.902 396.394H191.549L174.722 318.75H158.075L174.902 396.394Z" fill="url(#paint30_linear_80_261)"/>
<path d="M210.617 383.774H253.185C259.646 383.774 267.195 389.453 267.195 396.43C267.195 398.402 265.596 400 263.625 400H199.283C197.312 400 195.714 398.402 195.714 396.43C195.714 389.453 204.002 383.774 210.617 383.774Z" fill="#F1A237"/>
<path d="M210.617 383.774H253.185C259.646 383.774 267.195 389.453 267.195 396.43C267.195 398.402 265.596 400 263.625 400H199.283C197.312 400 195.714 398.402 195.714 396.43C195.714 389.453 204.002 383.774 210.617 383.774Z" fill="url(#paint31_linear_80_261)"/>
<path d="M210.617 383.774H253.185C259.646 383.774 267.195 389.453 267.195 396.43C267.195 398.402 265.596 400 263.625 400H199.283C197.312 400 195.714 398.402 195.714 396.43C195.714 389.453 204.002 383.774 210.617 383.774Z" fill="url(#paint32_radial_80_261)" fill-opacity="0.5"/>
<path d="M210.617 383.774H253.185C259.646 383.774 267.195 389.453 267.195 396.43C267.195 398.402 265.596 400 263.625 400H199.283C197.312 400 195.714 398.402 195.714 396.43C195.714 389.453 204.002 383.774 210.617 383.774Z" fill="url(#paint33_radial_80_261)"/>
<path d="M159.655 383.774H202.223C208.685 383.774 216.233 389.453 216.233 396.43C216.233 398.402 214.634 400 212.663 400H148.321C146.35 400 144.752 398.402 144.752 396.43C144.752 389.453 153.04 383.774 159.655 383.774Z" fill="#FAAA3C"/>
<path d="M159.655 383.774H202.223C208.685 383.774 216.233 389.453 216.233 396.43C216.233 398.402 214.634 400 212.663 400H148.321C146.35 400 144.752 398.402 144.752 396.43C144.752 389.453 153.04 383.774 159.655 383.774Z" fill="url(#paint34_linear_80_261)"/>
<path d="M159.655 383.774H202.223C208.685 383.774 216.233 389.453 216.233 396.43C216.233 398.402 214.634 400 212.663 400H148.321C146.35 400 144.752 398.402 144.752 396.43C144.752 389.453 153.04 383.774 159.655 383.774Z" fill="url(#paint35_radial_80_261)"/>
<path d="M227.5 83.0771V105.539C227.5 107.846 225.654 109.693 223.347 109.693H200.885C198.424 109.693 196.577 107.539 197.039 105.077C199.039 91.6925 209.5 81.2309 222.885 79.2309C225.347 78.7694 227.5 80.6156 227.5 83.0771Z" fill="url(#paint36_linear_80_261)"/>
<path d="M227.5 83.0771V105.539C227.5 107.846 225.654 109.693 223.347 109.693H200.885C198.424 109.693 196.577 107.539 197.039 105.077C199.039 91.6925 209.5 81.2309 222.885 79.2309C225.347 78.7694 227.5 80.6156 227.5 83.0771Z" fill="url(#paint37_radial_80_261)"/>
<path d="M227.5 83.0771V105.539C227.5 107.846 225.654 109.693 223.347 109.693H200.885C198.424 109.693 196.577 107.539 197.039 105.077C199.039 91.6925 209.5 81.2309 222.885 79.2309C225.347 78.7694 227.5 80.6156 227.5 83.0771Z" fill="url(#paint38_radial_80_261)"/>
<path d="M96.2734 314.154C98.8456 300.361 99.687 293.029 124.273 277.846L203.043 225.693C203.197 225.693 203.197 225.539 203.35 225.539C211.197 220.154 216.427 211.077 216.427 200.923V128.615C216.274 108.615 232.581 92.3077 252.581 92.3077H297.043C301.504 92.3077 303.658 97.5385 300.735 100.769L276.12 127.077C269.351 134.308 266.274 144.154 267.812 153.846L284.735 266.769C289.197 296.462 266.274 323.077 236.274 323.077H102.581C97.9657 323.077 95.2925 319.414 96.2734 314.154Z" fill="url(#paint39_linear_80_261)"/>
<path d="M96.2734 314.154C98.8456 300.361 99.687 293.029 124.273 277.846L203.043 225.693C203.197 225.693 203.197 225.539 203.35 225.539C211.197 220.154 216.427 211.077 216.427 200.923V128.615C216.274 108.615 232.581 92.3077 252.581 92.3077H297.043C301.504 92.3077 303.658 97.5385 300.735 100.769L276.12 127.077C269.351 134.308 266.274 144.154 267.812 153.846L284.735 266.769C289.197 296.462 266.274 323.077 236.274 323.077H102.581C97.9657 323.077 95.2925 319.414 96.2734 314.154Z" fill="url(#paint40_linear_80_261)"/>
<path d="M96.2734 314.154C98.8456 300.361 99.687 293.029 124.273 277.846L203.043 225.693C203.197 225.693 203.197 225.539 203.35 225.539C211.197 220.154 216.427 211.077 216.427 200.923V128.615C216.274 108.615 232.581 92.3077 252.581 92.3077H297.043C301.504 92.3077 303.658 97.5385 300.735 100.769L276.12 127.077C269.351 134.308 266.274 144.154 267.812 153.846L284.735 266.769C289.197 296.462 266.274 323.077 236.274 323.077H102.581C97.9657 323.077 95.2925 319.414 96.2734 314.154Z" fill="url(#paint41_radial_80_261)"/>
<path d="M96.2734 314.154C98.8456 300.361 99.687 293.029 124.273 277.846L203.043 225.693C203.197 225.693 203.197 225.539 203.35 225.539C211.197 220.154 216.427 211.077 216.427 200.923V128.615C216.274 108.615 232.581 92.3077 252.581 92.3077H297.043C301.504 92.3077 303.658 97.5385 300.735 100.769L276.12 127.077C269.351 134.308 266.274 144.154 267.812 153.846L284.735 266.769C289.197 296.462 266.274 323.077 236.274 323.077H102.581C97.9657 323.077 95.2925 319.414 96.2734 314.154Z" fill="url(#paint42_linear_80_261)"/>
<g filter="url(#filter11_f_80_261)">
<path d="M228.177 112.771L230.328 256.001C230.414 261.739 235.091 266.346 240.83 266.346C246.928 266.346 251.745 261.17 251.306 255.088L241.009 112.213C240.767 108.853 237.97 106.25 234.601 106.25C231.015 106.25 228.123 109.186 228.177 112.771Z" fill="#52A6FF"/>
</g>
<path d="M268.581 158.923L256.889 92.3077H297.043C301.504 92.3077 303.658 97.5385 300.735 100.769L276.12 127.077C269.351 134.308 266.274 144.154 267.812 153.846L268.581 158.923Z" fill="url(#paint43_linear_80_261)"/>
<path d="M268.581 158.923L256.889 92.3077H297.043C301.504 92.3077 303.658 97.5385 300.735 100.769L276.12 127.077C269.351 134.308 266.274 144.154 267.812 153.846L268.581 158.923Z" fill="url(#paint44_linear_80_261)"/>
<path d="M239.347 123.317C235.099 123.317 231.655 119.874 231.655 115.625C231.655 111.377 235.099 107.933 239.347 107.933C243.596 107.933 247.04 111.377 247.04 115.625C247.04 119.874 243.596 123.317 239.347 123.317Z" fill="url(#paint45_radial_80_261)"/>
<path d="M239.347 123.317C235.099 123.317 231.655 119.874 231.655 115.625C231.655 111.377 235.099 107.933 239.347 107.933C243.596 107.933 247.04 111.377 247.04 115.625C247.04 119.874 243.596 123.317 239.347 123.317Z" fill="url(#paint46_radial_80_261)"/>
<path d="M239.347 123.317C235.099 123.317 231.655 119.874 231.655 115.625C231.655 111.377 235.099 107.933 239.347 107.933C243.596 107.933 247.04 111.377 247.04 115.625C247.04 119.874 243.596 123.317 239.347 123.317Z" fill="url(#paint47_linear_80_261)"/>
<g filter="url(#filter12_f_80_261)">
<path d="M135.531 283.836L204.679 238.052C204.814 238.052 204.814 237.917 204.949 237.917C211.837 233.19 216.429 225.222 216.429 216.308V271.411C216.429 289.913 201.438 304.905 182.935 304.905L100.77 301.562C113.991 294.254 127.292 289.238 135.531 283.836Z" fill="#2A6DFE"/>
</g>
<g filter="url(#filter13_i_80_261)">
<path d="M124.275 277.847L203.044 225.693C203.198 225.693 203.198 225.539 203.352 225.539C211.198 220.154 216.429 211.078 216.429 200.924V263.693C216.429 284.77 199.352 301.847 178.275 301.847H99.3275C102.452 291.827 114.89 284.001 124.275 277.847Z" fill="#6775C4"/>
</g>
<g filter="url(#filter14_f_80_261)">
<path d="M297.04 97.3558L270.717 117.789L263.386 97.3558H297.04Z" fill="url(#paint48_radial_80_261)"/>
</g>
<g filter="url(#filter15_f_80_261)">
<path d="M115.789 290.784L202.568 236.298V260.015C202.568 277.008 188.793 290.784 171.799 290.784H115.789Z" fill="url(#paint49_linear_80_261)"/>
</g>
<defs>
<filter id="filter0_ii_80_261" x="216.273" y="212.307" width="201.869" height="107.715" filterUnits="userSpaceOnUse" color-interpolation-filters="sRGB">
<feFlood flood-opacity="0" result="BackgroundImageFix"/>
<feBlend mode="normal" in="SourceGraphic" in2="BackgroundImageFix" result="shape"/>
<feColorMatrix in="SourceAlpha" type="matrix" values="0 0 0 0 0 0 0 0 0 0 0 0 0 0 0 0 0 0 127 0" result="hardAlpha"/>
<feOffset/>
<feGaussianBlur stdDeviation="7.69232"/>
<feComposite in2="hardAlpha" operator="arithmetic" k2="-1" k3="1"/>
<feColorMatrix type="matrix" values="0 0 0 0 0.184314 0 0 0 0 0.839216 0 0 0 0 0.490196 0 0 0 1 0"/>
<feBlend mode="normal" in2="shape" result="effect1_innerShadow_80_261"/>
<feColorMatrix in="SourceAlpha" type="matrix" values="0 0 0 0 0 0 0 0 0 0 0 0 0 0 0 0 0 0 127 0" result="hardAlpha"/>
<feOffset dy="-3.07693"/>
<feGaussianBlur stdDeviation="3.84616"/>
<feComposite in2="hardAlpha" operator="arithmetic" k2="-1" k3="1"/>
<feColorMatrix type="matrix" values="0 0 0 0 0.286275 0 0 0 0 0.682353 0 0 0 0 0.623529 0 0 0 0.5 0"/>
<feBlend mode="normal" in2="effect1_innerShadow_80_261" result="effect2_innerShadow_80_261"/>
</filter>
<filter id="filter1_ii_80_261" x="216.271" y="176.308" width="215.385" height="74.9231" filterUnits="userSpaceOnUse" color-interpolation-filters="sRGB">
<feFlood flood-opacity="0" result="BackgroundImageFix"/>
<feBlend mode="normal" in="SourceGraphic" in2="BackgroundImageFix" result="shape"/>
<feColorMatrix in="SourceAlpha" type="matrix" values="0 0 0 0 0 0 0 0 0 0 0 0 0 0 0 0 0 0 127 0" result="hardAlpha"/>
<feOffset/>
<feGaussianBlur stdDeviation="7.69232"/>
<feComposite in2="hardAlpha" operator="arithmetic" k2="-1" k3="1"/>
<feColorMatrix type="matrix" values="0 0 0 0 0.184314 0 0 0 0 0.839216 0 0 0 0 0.490196 0 0 0 1 0"/>
<feBlend mode="normal" in2="shape" result="effect1_innerShadow_80_261"/>
<feColorMatrix in="SourceAlpha" type="matrix" values="0 0 0 0 0 0 0 0 0 0 0 0 0 0 0 0 0 0 127 0" result="hardAlpha"/>
<feOffset dy="-3.07693"/>
<feGaussianBlur stdDeviation="3.84616"/>
<feComposite in2="hardAlpha" operator="arithmetic" k2="-1" k3="1"/>
<feColorMatrix type="matrix" values="0 0 0 0 0.286275 0 0 0 0 0.682353 0 0 0 0 0.623529 0 0 0 0.5 0"/>
<feBlend mode="normal" in2="effect1_innerShadow_80_261" result="effect2_innerShadow_80_261"/>
</filter>
<filter id="filter2_ii_80_261" x="216.273" y="107.735" width="201.65" height="107.65" filterUnits="userSpaceOnUse" color-interpolation-filters="sRGB">
<feFlood flood-opacity="0" result="BackgroundImageFix"/>
<feBlend mode="normal" in="SourceGraphic" in2="BackgroundImageFix" result="shape"/>
<feColorMatrix in="SourceAlpha" type="matrix" values="0 0 0 0 0 0 0 0 0 0 0 0 0 0 0 0 0 0 127 0" result="hardAlpha"/>
<feOffset/>
<feGaussianBlur stdDeviation="7.69232"/>
<feComposite in2="hardAlpha" operator="arithmetic" k2="-1" k3="1"/>
<feColorMatrix type="matrix" values="0 0 0 0 0.184314 0 0 0 0 0.839216 0 0 0 0 0.490196 0 0 0 1 0"/>
<feBlend mode="normal" in2="shape" result="effect1_innerShadow_80_261"/>
<feColorMatrix in="SourceAlpha" type="matrix" values="0 0 0 0 0 0 0 0 0 0 0 0 0 0 0 0 0 0 127 0" result="hardAlpha"/>
<feOffset dy="-3.07693"/>
<feGaussianBlur stdDeviation="3.84616"/>
<feComposite in2="hardAlpha" operator="arithmetic" k2="-1" k3="1"/>
<feColorMatrix type="matrix" values="0 0 0 0 0.286275 0 0 0 0 0.682353 0 0 0 0 0.623529 0 0 0 0.5 0"/>
<feBlend mode="normal" in2="effect1_innerShadow_80_261" result="effect2_innerShadow_80_261"/>
</filter>
<filter id="filter3_ii_80_261" x="216.271" y="49.4997" width="162.808" height="165.885" filterUnits="userSpaceOnUse" color-interpolation-filters="sRGB">
<feFlood flood-opacity="0" result="BackgroundImageFix"/>
<feBlend mode="normal" in="SourceGraphic" in2="BackgroundImageFix" result="shape"/>
<feColorMatrix in="SourceAlpha" type="matrix" values="0 0 0 0 0 0 0 0 0 0 0 0 0 0 0 0 0 0 127 0" result="hardAlpha"/>
<feOffset/>
<feGaussianBlur stdDeviation="7.69232"/>
<feComposite in2="hardAlpha" operator="arithmetic" k2="-1" k3="1"/>
<feColorMatrix type="matrix" values="0 0 0 0 0.184314 0 0 0 0 0.839216 0 0 0 0 0.490196 0 0 0 1 0"/>
<feBlend mode="normal" in2="shape" result="effect1_innerShadow_80_261"/>
<feColorMatrix in="SourceAlpha" type="matrix" values="0 0 0 0 0 0 0 0 0 0 0 0 0 0 0 0 0 0 127 0" result="hardAlpha"/>
<feOffset dy="-3.07693"/>
<feGaussianBlur stdDeviation="3.84616"/>
<feComposite in2="hardAlpha" operator="arithmetic" k2="-1" k3="1"/>
<feColorMatrix type="matrix" values="0 0 0 0 0.286275 0 0 0 0 0.682353 0 0 0 0 0.623529 0 0 0 0.5 0"/>
<feBlend mode="normal" in2="effect1_innerShadow_80_261" result="effect2_innerShadow_80_261"/>
</filter>
<filter id="filter4_ii_80_261" x="216.272" y="10.5912" width="104.573" height="204.794" filterUnits="userSpaceOnUse" color-interpolation-filters="sRGB">
<feFlood flood-opacity="0" result="BackgroundImageFix"/>
<feBlend mode="normal" in="SourceGraphic" in2="BackgroundImageFix" result="shape"/>
<feColorMatrix in="SourceAlpha" type="matrix" values="0 0 0 0 0 0 0 0 0 0 0 0 0 0 0 0 0 0 127 0" result="hardAlpha"/>
<feOffset/>
<feGaussianBlur stdDeviation="7.69232"/>
<feComposite in2="hardAlpha" operator="arithmetic" k2="-1" k3="1"/>
<feColorMatrix type="matrix" values="0 0 0 0 0.184314 0 0 0 0 0.839216 0 0 0 0 0.490196 0 0 0 1 0"/>
<feBlend mode="normal" in2="shape" result="effect1_innerShadow_80_261"/>
<feColorMatrix in="SourceAlpha" type="matrix" values="0 0 0 0 0 0 0 0 0 0 0 0 0 0 0 0 0 0 127 0" result="hardAlpha"/>
<feOffset dy="-3.07693"/>
<feGaussianBlur stdDeviation="3.84616"/>
<feComposite in2="hardAlpha" operator="arithmetic" k2="-1" k3="1"/>
<feColorMatrix type="matrix" values="0 0 0 0 0.286275 0 0 0 0 0.682353 0 0 0 0 0.623529 0 0 0 0.5 0"/>
<feBlend mode="normal" in2="effect1_innerShadow_80_261" result="effect2_innerShadow_80_261"/>
</filter>
<filter id="filter5_ii_80_261" x="180.271" y="-3.07693" width="71.8462" height="218.462" filterUnits="userSpaceOnUse" color-interpolation-filters="sRGB">
<feFlood flood-opacity="0" result="BackgroundImageFix"/>
<feBlend mode="normal" in="SourceGraphic" in2="BackgroundImageFix" result="shape"/>
<feColorMatrix in="SourceAlpha" type="matrix" values="0 0 0 0 0 0 0 0 0 0 0 0 0 0 0 0 0 0 127 0" result="hardAlpha"/>
<feOffset/>
<feGaussianBlur stdDeviation="7.69232"/>
<feComposite in2="hardAlpha" operator="arithmetic" k2="-1" k3="1"/>
<feColorMatrix type="matrix" values="0 0 0 0 0.184314 0 0 0 0 0.839216 0 0 0 0 0.490196 0 0 0 1 0"/>
<feBlend mode="normal" in2="shape" result="effect1_innerShadow_80_261"/>
<feColorMatrix in="SourceAlpha" type="matrix" values="0 0 0 0 0 0 0 0 0 0 0 0 0 0 0 0 0 0 127 0" result="hardAlpha"/>
<feOffset dy="-3.07693"/>
<feGaussianBlur stdDeviation="3.84616"/>
<feComposite in2="hardAlpha" operator="arithmetic" k2="-1" k3="1"/>
<feColorMatrix type="matrix" values="0 0 0 0 0.286275 0 0 0 0 0.682353 0 0 0 0 0.623529 0 0 0 0.5 0"/>
<feBlend mode="normal" in2="effect1_innerShadow_80_261" result="effect2_innerShadow_80_261"/>
</filter>
<filter id="filter6_ii_80_261" x="111.697" y="10.657" width="104.573" height="204.727" filterUnits="userSpaceOnUse" color-interpolation-filters="sRGB">
<feFlood flood-opacity="0" result="BackgroundImageFix"/>
<feBlend mode="normal" in="SourceGraphic" in2="BackgroundImageFix" result="shape"/>
<feColorMatrix in="SourceAlpha" type="matrix" values="0 0 0 0 0 0 0 0 0 0 0 0 0 0 0 0 0 0 127 0" result="hardAlpha"/>
<feOffset/>
<feGaussianBlur stdDeviation="7.69232"/>
<feComposite in2="hardAlpha" operator="arithmetic" k2="-1" k3="1"/>
<feColorMatrix type="matrix" values="0 0 0 0 0.184314 0 0 0 0 0.839216 0 0 0 0 0.490196 0 0 0 1 0"/>
<feBlend mode="normal" in2="shape" result="effect1_innerShadow_80_261"/>
<feColorMatrix in="SourceAlpha" type="matrix" values="0 0 0 0 0 0 0 0 0 0 0 0 0 0 0 0 0 0 127 0" result="hardAlpha"/>
<feOffset dy="-3.07693"/>
<feGaussianBlur stdDeviation="3.84616"/>
<feComposite in2="hardAlpha" operator="arithmetic" k2="-1" k3="1"/>
<feColorMatrix type="matrix" values="0 0 0 0 0.286275 0 0 0 0 0.682353 0 0 0 0 0.623529 0 0 0 0.5 0"/>
<feBlend mode="normal" in2="effect1_innerShadow_80_261" result="effect2_innerShadow_80_261"/>
</filter>
<filter id="filter7_ii_80_261" x="53.4624" y="49.4997" width="162.808" height="165.885" filterUnits="userSpaceOnUse" color-interpolation-filters="sRGB">
<feFlood flood-opacity="0" result="BackgroundImageFix"/>
<feBlend mode="normal" in="SourceGraphic" in2="BackgroundImageFix" result="shape"/>
<feColorMatrix in="SourceAlpha" type="matrix" values="0 0 0 0 0 0 0 0 0 0 0 0 0 0 0 0 0 0 127 0" result="hardAlpha"/>
<feOffset/>
<feGaussianBlur stdDeviation="7.69232"/>
<feComposite in2="hardAlpha" operator="arithmetic" k2="-1" k3="1"/>
<feColorMatrix type="matrix" values="0 0 0 0 0.184314 0 0 0 0 0.839216 0 0 0 0 0.490196 0 0 0 1 0"/>
<feBlend mode="normal" in2="shape" result="effect1_innerShadow_80_261"/>
<feColorMatrix in="SourceAlpha" type="matrix" values="0 0 0 0 0 0 0 0 0 0 0 0 0 0 0 0 0 0 127 0" result="hardAlpha"/>
<feOffset dy="-3.07693"/>
<feGaussianBlur stdDeviation="3.84616"/>
<feComposite in2="hardAlpha" operator="arithmetic" k2="-1" k3="1"/>
<feColorMatrix type="matrix" values="0 0 0 0 0.286275 0 0 0 0 0.682353 0 0 0 0 0.623529 0 0 0 0.5 0"/>
<feBlend mode="normal" in2="effect1_innerShadow_80_261" result="effect2_innerShadow_80_261"/>
</filter>
<filter id="filter8_ii_80_261" x="14.4019" y="107.671" width="201.869" height="107.715" filterUnits="userSpaceOnUse" color-interpolation-filters="sRGB">
<feFlood flood-opacity="0" result="BackgroundImageFix"/>
<feBlend mode="normal" in="SourceGraphic" in2="BackgroundImageFix" result="shape"/>
<feColorMatrix in="SourceAlpha" type="matrix" values="0 0 0 0 0 0 0 0 0 0 0 0 0 0 0 0 0 0 127 0" result="hardAlpha"/>
<feOffset/>
<feGaussianBlur stdDeviation="7.69232"/>
<feComposite in2="hardAlpha" operator="arithmetic" k2="-1" k3="1"/>
<feColorMatrix type="matrix" values="0 0 0 0 0.184314 0 0 0 0 0.839216 0 0 0 0 0.490196 0 0 0 1 0"/>
<feBlend mode="normal" in2="shape" result="effect1_innerShadow_80_261"/>
<feColorMatrix in="SourceAlpha" type="matrix" values="0 0 0 0 0 0 0 0 0 0 0 0 0 0 0 0 0 0 127 0" result="hardAlpha"/>
<feOffset dy="-3.07693"/>
<feGaussianBlur stdDeviation="3.84616"/>
<feComposite in2="hardAlpha" operator="arithmetic" k2="-1" k3="1"/>
<feColorMatrix type="matrix" values="0 0 0 0 0.286275 0 0 0 0 0.682353 0 0 0 0 0.623529 0 0 0 0.5 0"/>
<feBlend mode="normal" in2="effect1_innerShadow_80_261" result="effect2_innerShadow_80_261"/>
</filter>
<filter id="filter9_ii_80_261" x="0.885742" y="176.462" width="215.385" height="74.9231" filterUnits="userSpaceOnUse" color-interpolation-filters="sRGB">
<feFlood flood-opacity="0" result="BackgroundImageFix"/>
<feBlend mode="normal" in="SourceGraphic" in2="BackgroundImageFix" result="shape"/>
<feColorMatrix in="SourceAlpha" type="matrix" values="0 0 0 0 0 0 0 0 0 0 0 0 0 0 0 0 0 0 127 0" result="hardAlpha"/>
<feOffset/>
<feGaussianBlur stdDeviation="7.69232"/>
<feComposite in2="hardAlpha" operator="arithmetic" k2="-1" k3="1"/>
<feColorMatrix type="matrix" values="0 0 0 0 0.184314 0 0 0 0 0.839216 0 0 0 0 0.490196 0 0 0 1 0"/>
<feBlend mode="normal" in2="shape" result="effect1_innerShadow_80_261"/>
<feColorMatrix in="SourceAlpha" type="matrix" values="0 0 0 0 0 0 0 0 0 0 0 0 0 0 0 0 0 0 127 0" result="hardAlpha"/>
<feOffset dy="-3.07693"/>
<feGaussianBlur stdDeviation="3.84616"/>
<feComposite in2="hardAlpha" operator="arithmetic" k2="-1" k3="1"/>
<feColorMatrix type="matrix" values="0 0 0 0 0.286275 0 0 0 0 0.682353 0 0 0 0 0.623529 0 0 0 0.5 0"/>
<feBlend mode="normal" in2="effect1_innerShadow_80_261" result="effect2_innerShadow_80_261"/>
</filter>
<filter id="filter10_ii_80_261" x="14.6201" y="212.307" width="201.65" height="107.317" filterUnits="userSpaceOnUse" color-interpolation-filters="sRGB">
<feFlood flood-opacity="0" result="BackgroundImageFix"/>
<feBlend mode="normal" in="SourceGraphic" in2="BackgroundImageFix" result="shape"/>
<feColorMatrix in="SourceAlpha" type="matrix" values="0 0 0 0 0 0 0 0 0 0 0 0 0 0 0 0 0 0 127 0" result="hardAlpha"/>
<feOffset/>
<feGaussianBlur stdDeviation="7.69232"/>
<feComposite in2="hardAlpha" operator="arithmetic" k2="-1" k3="1"/>
<feColorMatrix type="matrix" values="0 0 0 0 0.184314 0 0 0 0 0.839216 0 0 0 0 0.490196 0 0 0 1 0"/>
<feBlend mode="normal" in2="shape" result="effect1_innerShadow_80_261"/>
<feColorMatrix in="SourceAlpha" type="matrix" values="0 0 0 0 0 0 0 0 0 0 0 0 0 0 0 0 0 0 127 0" result="hardAlpha"/>
<feOffset dy="-3.07693"/>
<feGaussianBlur stdDeviation="3.84616"/>
<feComposite in2="hardAlpha" operator="arithmetic" k2="-1" k3="1"/>
<feColorMatrix type="matrix" values="0 0 0 0 0.286275 0 0 0 0 0.682353 0 0 0 0 0.623529 0 0 0 0.5 0"/>
<feBlend mode="normal" in2="effect1_innerShadow_80_261" result="effect2_innerShadow_80_261"/>
</filter>
<filter id="filter11_f_80_261" x="205.099" y="83.1732" width="69.3116" height="206.25" filterUnits="userSpaceOnUse" color-interpolation-filters="sRGB">
<feFlood flood-opacity="0" result="BackgroundImageFix"/>
<feBlend mode="normal" in="SourceGraphic" in2="BackgroundImageFix" result="shape"/>
<feGaussianBlur stdDeviation="11.5385" result="effect1_foregroundBlur_80_261"/>
</filter>
<filter id="filter12_f_80_261" x="96.1541" y="211.693" width="124.89" height="97.8271" filterUnits="userSpaceOnUse" color-interpolation-filters="sRGB">
<feFlood flood-opacity="0" result="BackgroundImageFix"/>
<feBlend mode="normal" in="SourceGraphic" in2="BackgroundImageFix" result="shape"/>
<feGaussianBlur stdDeviation="2.30769" result="effect1_foregroundBlur_80_261"/>
</filter>
<filter id="filter13_i_80_261" x="99.3276" y="197.078" width="120.947" height="104.769" filterUnits="userSpaceOnUse" color-interpolation-filters="sRGB">
<feFlood flood-opacity="0" result="BackgroundImageFix"/>
<feBlend mode="normal" in="SourceGraphic" in2="BackgroundImageFix" result="shape"/>
<feColorMatrix in="SourceAlpha" type="matrix" values="0 0 0 0 0 0 0 0 0 0 0 0 0 0 0 0 0 0 127 0" result="hardAlpha"/>
<feOffset dx="3.84616" dy="-3.84616"/>
<feGaussianBlur stdDeviation="4.61539"/>
<feComposite in2="hardAlpha" operator="arithmetic" k2="-1" k3="1"/>
<feColorMatrix type="matrix" values="0 0 0 0 0.352941 0 0 0 0 0.278431 0 0 0 0 0.717647 0 0 0 1 0"/>
<feBlend mode="normal" in2="shape" result="effect1_innerShadow_80_261"/>
</filter>
<filter id="filter14_f_80_261" x="255.693" y="89.6635" width="49.0384" height="35.8174" filterUnits="userSpaceOnUse" color-interpolation-filters="sRGB">
<feFlood flood-opacity="0" result="BackgroundImageFix"/>
<feBlend mode="normal" in="SourceGraphic" in2="BackgroundImageFix" result="shape"/>
<feGaussianBlur stdDeviation="3.84616" result="effect1_foregroundBlur_80_261"/>
</filter>
<filter id="filter15_f_80_261" x="109.636" y="230.144" width="99.0865" height="66.7937" filterUnits="userSpaceOnUse" color-interpolation-filters="sRGB">
<feFlood flood-opacity="0" result="BackgroundImageFix"/>
<feBlend mode="normal" in="SourceGraphic" in2="BackgroundImageFix" result="shape"/>
<feGaussianBlur stdDeviation="3.07693" result="effect1_foregroundBlur_80_261"/>
</filter>
<radialGradient id="paint0_radial_80_261" cx="0" cy="0" r="1" gradientUnits="userSpaceOnUse" gradientTransform="translate(384.543 267.703) rotate(168.292) scale(107.035 148.706)">
<stop stop-color="#42D087"/>
<stop offset="1" stop-color="#39B386"/>
</radialGradient>
<radialGradient id="paint1_radial_80_261" cx="0" cy="0" r="1" gradientUnits="userSpaceOnUse" gradientTransform="translate(398.001 206.731) rotate(168.366) scale(100.134 55.2825)">
<stop stop-color="#41D485"/>
<stop offset="1" stop-color="#3FC78D"/>
</radialGradient>
<radialGradient id="paint2_radial_80_261" cx="0" cy="0" r="1" gradientUnits="userSpaceOnUse" gradientTransform="translate(370.12 119.231) rotate(140.268) scale(96.2741 62.8391)">
<stop stop-color="#40DB87"/>
<stop offset="1" stop-color="#3ECA87"/>
</radialGradient>
<radialGradient id="paint3_radial_80_261" cx="0" cy="0" r="1" gradientUnits="userSpaceOnUse" gradientTransform="translate(330.695 60.577) rotate(115.346) scale(121.291 373.212)">
<stop stop-color="#3DE28A"/>
<stop offset="1" stop-color="#3AC581"/>
</radialGradient>
<radialGradient id="paint4_radial_80_261" cx="0" cy="0" r="1" gradientUnits="userSpaceOnUse" gradientTransform="translate(268.559 24.0384) rotate(92.607) scale(177.107 375.904)">
<stop stop-color="#3CE78A"/>
<stop offset="0.958333" stop-color="#3ED988"/>
</radialGradient>
<radialGradient id="paint5_radial_80_261" cx="0" cy="0" r="1" gradientUnits="userSpaceOnUse" gradientTransform="translate(190.31 19.7116) rotate(76.5429) scale(111.227 163.546)">
<stop stop-color="#4AEE91"/>
<stop offset="1" stop-color="#3FDF88"/>
</radialGradient>
<radialGradient id="paint6_radial_80_261" cx="0" cy="0" r="1" gradientUnits="userSpaceOnUse" gradientTransform="translate(123.001 54.8078) rotate(65.2727) scale(80.4539 159.485)">
<stop stop-color="#51F096"/>
<stop offset="1" stop-color="#42E591"/>
<stop offset="1" stop-color="#46E693"/>
</radialGradient>
<radialGradient id="paint7_radial_80_261" cx="0" cy="0" r="1" gradientUnits="userSpaceOnUse" gradientTransform="translate(67.3773 88.2166) rotate(43.7771) scale(93.4707 221.118)">
<stop stop-color="#5EF49D"/>
<stop offset="1" stop-color="#42E591"/>
</radialGradient>
<radialGradient id="paint8_radial_80_261" cx="0" cy="0" r="1" gradientUnits="userSpaceOnUse" gradientTransform="translate(31.6549 133.654) rotate(24.1378) scale(111.689 210.717)">
<stop stop-color="#5EF49D"/>
<stop offset="1" stop-color="#42E591"/>
</radialGradient>
<radialGradient id="paint9_radial_80_261" cx="0" cy="0" r="1" gradientUnits="userSpaceOnUse" gradientTransform="translate(18.1934 215.462) scale(84.6155 119.839)">
<stop stop-color="#69FCA7"/>
<stop offset="1" stop-color="#59EDA1"/>
</radialGradient>
<radialGradient id="paint10_radial_80_261" cx="0" cy="0" r="1" gradientUnits="userSpaceOnUse" gradientTransform="translate(28.7703 293.269) rotate(-18.9591) scale(79.3022 152.749)">
<stop stop-color="#69FCA7"/>
<stop offset="1" stop-color="#59EDA1"/>
</radialGradient>
<radialGradient id="paint11_radial_80_261" cx="0" cy="0" r="1" gradientUnits="userSpaceOnUse" gradientTransform="translate(274.924 160.011) rotate(-45.2667) scale(60.1127 29.8496)">
<stop stop-color="#37A06B"/>
<stop offset="1" stop-color="#37A06B" stop-opacity="0"/>
</radialGradient>
<linearGradient id="paint12_linear_80_261" x1="135.501" y1="178.846" x2="253.77" y2="251.923" gradientUnits="userSpaceOnUse">
<stop stop-color="#DEFD59"/>
<stop offset="1" stop-color="#B3CD3B"/>
</linearGradient>
<linearGradient id="paint13_linear_80_261" x1="310.019" y1="260.577" x2="240.541" y2="196.646" gradientUnits="userSpaceOnUse">
<stop stop-color="#A7AF42"/>
<stop offset="1" stop-color="#A7AF42" stop-opacity="0"/>
</linearGradient>
<linearGradient id="paint14_linear_80_261" x1="305.698" y1="252.885" x2="276.759" y2="181.727" gradientUnits="userSpaceOnUse">
<stop stop-color="#A7AF42"/>
<stop offset="1" stop-color="#A7AF42" stop-opacity="0"/>
</linearGradient>
<linearGradient id="paint15_linear_80_261" x1="274.684" y1="273.798" x2="277.494" y2="208.572" gradientUnits="userSpaceOnUse">
<stop stop-color="#A7AF42"/>
<stop offset="1" stop-color="#A7AF42" stop-opacity="0"/>
</linearGradient>
<linearGradient id="paint16_linear_80_261" x1="283.098" y1="277.403" x2="293.194" y2="239.422" gradientUnits="userSpaceOnUse">
<stop stop-color="#A7AF42"/>
<stop offset="1" stop-color="#A7AF42" stop-opacity="0"/>
</linearGradient>
<linearGradient id="paint17_linear_80_261" x1="210.261" y1="170.673" x2="202.06" y2="171.713" gradientUnits="userSpaceOnUse">
<stop stop-color="#C0DE46"/>
<stop offset="1" stop-color="#C2EC46" stop-opacity="0"/>
<stop offset="1" stop-color="#C0DE46" stop-opacity="0"/>
</linearGradient>
<linearGradient id="paint18_linear_80_261" x1="223.722" y1="139.663" x2="182.885" y2="150.842" gradientUnits="userSpaceOnUse">
<stop stop-color="#C0DE46"/>
<stop offset="1" stop-color="#C2EC46" stop-opacity="0"/>
<stop offset="1" stop-color="#C0DE46" stop-opacity="0"/>
</linearGradient>
<linearGradient id="paint19_linear_80_261" x1="194.155" y1="180.528" x2="189.828" y2="182.692" gradientUnits="userSpaceOnUse">
<stop stop-color="#C0DE46"/>
<stop offset="1" stop-color="#C2EC46" stop-opacity="0"/>
<stop offset="1" stop-color="#C0DE46" stop-opacity="0"/>
</linearGradient>
<linearGradient id="paint20_linear_80_261" x1="183.818" y1="131.009" x2="156.867" y2="142.983" gradientUnits="userSpaceOnUse">
<stop stop-color="#C0DE46"/>
<stop offset="1" stop-color="#C2EC46" stop-opacity="0"/>
<stop offset="1" stop-color="#C0DE46" stop-opacity="0"/>
</linearGradient>
<linearGradient id="paint21_linear_80_261" x1="197.28" y1="147.356" x2="152.484" y2="196.696" gradientUnits="userSpaceOnUse">
<stop stop-color="#C0DE46"/>
<stop offset="1" stop-color="#C2EC46" stop-opacity="0"/>
<stop offset="1" stop-color="#C0DE46" stop-opacity="0"/>
</linearGradient>
<linearGradient id="paint22_linear_80_261" x1="159.059" y1="168.029" x2="152.421" y2="176.872" gradientUnits="userSpaceOnUse">
<stop stop-color="#C0DE46"/>
<stop offset="1" stop-color="#C2EC46" stop-opacity="0"/>
<stop offset="1" stop-color="#C0DE46" stop-opacity="0"/>
</linearGradient>
<linearGradient id="paint23_linear_80_261" x1="174.924" y1="231.731" x2="169.895" y2="210.74" gradientUnits="userSpaceOnUse">
<stop stop-color="#C0DE46"/>
<stop offset="1" stop-color="#C2EC46" stop-opacity="0"/>
<stop offset="1" stop-color="#C0DE46" stop-opacity="0"/>
</linearGradient>
<linearGradient id="paint24_linear_80_261" x1="153.049" y1="199.159" x2="151.54" y2="206.494" gradientUnits="userSpaceOnUse">
<stop stop-color="#C0DE46"/>
<stop offset="1" stop-color="#C0DE46" stop-opacity="0"/>
<stop offset="1" stop-color="#C2EC46" stop-opacity="0"/>
</linearGradient>
<linearGradient id="paint25_linear_80_261" x1="173.001" y1="248.317" x2="168.915" y2="242.308" gradientUnits="userSpaceOnUse">
<stop stop-color="#C0DE46"/>
<stop offset="1" stop-color="#C2EC46" stop-opacity="0"/>
<stop offset="1" stop-color="#C0DE46" stop-opacity="0"/>
</linearGradient>
<linearGradient id="paint26_linear_80_261" x1="166.631" y1="222.836" x2="167.593" y2="229.207" gradientUnits="userSpaceOnUse">
<stop stop-color="#C0DE46"/>
<stop offset="1" stop-color="#C0DE46" stop-opacity="0"/>
<stop offset="1" stop-color="#C2EC46" stop-opacity="0"/>
</linearGradient>
<linearGradient id="paint27_linear_80_261" x1="173.001" y1="248.317" x2="168.915" y2="242.308" gradientUnits="userSpaceOnUse">
<stop stop-color="#C0DE46"/>
<stop offset="1" stop-color="#C2EC46" stop-opacity="0"/>
<stop offset="1" stop-color="#C0DE46" stop-opacity="0"/>
</linearGradient>
<linearGradient id="paint28_linear_80_261" x1="166.631" y1="222.836" x2="167.593" y2="229.207" gradientUnits="userSpaceOnUse">
<stop stop-color="#C0DE46"/>
<stop offset="1" stop-color="#C0DE46" stop-opacity="0"/>
<stop offset="1" stop-color="#C2EC46" stop-opacity="0"/>
</linearGradient>
<linearGradient id="paint29_linear_80_261" x1="207.135" y1="318.75" x2="220.966" y2="386.538" gradientUnits="userSpaceOnUse">
<stop stop-color="#BC6E37"/>
<stop offset="1" stop-color="#F1A237"/>
</linearGradient>
<linearGradient id="paint30_linear_80_261" x1="160.981" y1="318.75" x2="173.241" y2="383.654" gradientUnits="userSpaceOnUse">
<stop stop-color="#BC6E37"/>
<stop offset="1" stop-color="#FAAA3C"/>
</linearGradient>
<linearGradient id="paint31_linear_80_261" x1="231.454" y1="402.524" x2="231.454" y2="394.952" gradientUnits="userSpaceOnUse">
<stop stop-color="#FF884F"/>
<stop offset="1" stop-color="#FF884F" stop-opacity="0"/>
</linearGradient>
<radialGradient id="paint32_radial_80_261" cx="0" cy="0" r="1" gradientUnits="userSpaceOnUse" gradientTransform="translate(272.762 391.887) rotate(180) scale(34.1346 14.363)">
<stop stop-color="#FFC76A"/>
<stop offset="1" stop-color="#FFC76A" stop-opacity="0"/>
</radialGradient>
<radialGradient id="paint33_radial_80_261" cx="0" cy="0" r="1" gradientUnits="userSpaceOnUse" gradientTransform="translate(187.185 400) scale(35.8173 24.1261)">
<stop stop-color="#C77E33"/>
<stop offset="1" stop-color="#C77E33" stop-opacity="0"/>
</radialGradient>
<linearGradient id="paint34_linear_80_261" x1="180.492" y1="402.524" x2="180.492" y2="394.952" gradientUnits="userSpaceOnUse">
<stop stop-color="#FF884F"/>
<stop offset="1" stop-color="#FF884F" stop-opacity="0"/>
</linearGradient>
<radialGradient id="paint35_radial_80_261" cx="0" cy="0" r="1" gradientUnits="userSpaceOnUse" gradientTransform="translate(140.309 391.887) scale(26.4423 4.07174)">
<stop stop-color="#FFC76A"/>
<stop offset="1" stop-color="#FFC76A" stop-opacity="0"/>
</radialGradient>
<linearGradient id="paint36_linear_80_261" x1="222.52" y1="101.923" x2="211.771" y2="80.276" gradientUnits="userSpaceOnUse">
<stop stop-color="#493A5F"/>
<stop offset="1" stop-color="#5D4F6B"/>
</linearGradient>
<radialGradient id="paint37_radial_80_261" cx="0" cy="0" r="1" gradientUnits="userSpaceOnUse" gradientTransform="translate(199.614 83.3191) rotate(46.7282) scale(36.2217 30.0468)">
<stop stop-color="#403751" stop-opacity="0"/>
<stop offset="1" stop-color="#403751"/>
</radialGradient>
<radialGradient id="paint38_radial_80_261" cx="0" cy="0" r="1" gradientUnits="userSpaceOnUse" gradientTransform="translate(205.693 92.3078) rotate(-172.117) scale(15.7741 14.3124)">
<stop stop-color="#695F74"/>
<stop offset="1" stop-color="#695F74" stop-opacity="0"/>
</radialGradient>
<linearGradient id="paint39_linear_80_261" x1="226.851" y1="108.654" x2="226.851" y2="323.077" gradientUnits="userSpaceOnUse">
<stop stop-color="#3E93EF"/>
<stop offset="1" stop-color="#4478FF"/>
</linearGradient>
<linearGradient id="paint40_linear_80_261" x1="199.072" y1="331.25" x2="199.072" y2="304.808" gradientUnits="userSpaceOnUse">
<stop stop-color="#6263F5"/>
<stop offset="1" stop-color="#6263F5" stop-opacity="0"/>
</linearGradient>
<radialGradient id="paint41_radial_80_261" cx="0" cy="0" r="1" gradientUnits="userSpaceOnUse" gradientTransform="translate(96.0716 303.366) rotate(-11.7013) scale(68.7461 19.9256)">
<stop stop-color="#52A6FF"/>
<stop offset="1" stop-color="#52A6FF" stop-opacity="0"/>
</radialGradient>
<linearGradient id="paint42_linear_80_261" x1="276.37" y1="194.231" x2="263.629" y2="196.394" gradientUnits="userSpaceOnUse">
<stop stop-color="#378CC7"/>
<stop offset="1" stop-color="#378CC7" stop-opacity="0"/>
</linearGradient>
<linearGradient id="paint43_linear_80_261" x1="285.505" y1="129.327" x2="270.601" y2="95.1924" gradientUnits="userSpaceOnUse">
<stop stop-color="#493A5F"/>
<stop offset="1" stop-color="#5D4F6B"/>
</linearGradient>
<linearGradient id="paint44_linear_80_261" x1="255.697" y1="93.5097" x2="265.913" y2="109.255" gradientUnits="userSpaceOnUse">
<stop stop-color="#403751"/>
<stop offset="1" stop-color="#403751" stop-opacity="0"/>
</linearGradient>
<radialGradient id="paint45_radial_80_261" cx="0" cy="0" r="1" gradientUnits="userSpaceOnUse" gradientTransform="translate(237.064 113.15) rotate(54.1624) scale(10.6748 9.51703)">
<stop offset="0.00558659" stop-color="#433437"/>
<stop offset="1" stop-color="#3B2838"/>
</radialGradient>
<radialGradient id="paint46_radial_80_261" cx="0" cy="0" r="1" gradientUnits="userSpaceOnUse" gradientTransform="translate(236.472 113.702) rotate(42.3575) scale(5.53016 4.8652)">
<stop stop-color="#5C5051"/>
<stop offset="1" stop-color="#5C5051" stop-opacity="0"/>
</radialGradient>
<linearGradient id="paint47_linear_80_261" x1="240.86" y1="109.583" x2="246.148" y2="106.218" gradientUnits="userSpaceOnUse">
<stop stop-color="#5C5051" stop-opacity="0"/>
<stop offset="1" stop-color="#5C5051"/>
</linearGradient>
<radialGradient id="paint48_radial_80_261" cx="0" cy="0" r="1" gradientUnits="userSpaceOnUse" gradientTransform="translate(297.04 97.3558) rotate(162.306) scale(41.1283 8.26106)">
<stop stop-color="#776787"/>
<stop offset="1" stop-color="#776787" stop-opacity="0"/>
</radialGradient>
<linearGradient id="paint49_linear_80_261" x1="195.042" y1="256.583" x2="131.593" y2="278.99" gradientUnits="userSpaceOnUse">
<stop stop-color="#6882C3"/>
<stop offset="1" stop-color="#6882C3" stop-opacity="0"/>
</linearGradient>
</defs>
</svg>
