<svg width="196" height="134" viewBox="0 0 196 134" fill="none" xmlns="http://www.w3.org/2000/svg">
<g clip-path="url(#clip0_54_478)">
<g filter="url(#filter0_d_54_478)">
<rect width="150" height="70.333" rx="9.1" transform="matrix(-1 0 0 1 181.708 47.1499)" fill="white"/>
</g>
<path opacity="0.5" d="M148.943 71.453H146.267V74.153H145.487V71.453H142.823V70.733H145.487V68.033H146.267V70.733H148.943V71.453ZM151.706 73.241C151.794 73.761 151.994 74.161 152.306 74.441C152.618 74.721 153.046 74.861 153.59 74.861C154.342 74.861 154.898 74.569 155.258 73.985C155.626 73.393 155.794 72.417 155.762 71.057C155.61 71.497 155.318 71.845 154.886 72.101C154.462 72.349 153.974 72.473 153.422 72.473C152.582 72.473 151.906 72.221 151.394 71.717C150.89 71.213 150.638 70.513 150.638 69.617C150.638 69.081 150.742 68.597 150.95 68.165C151.158 67.733 151.474 67.393 151.898 67.145C152.322 66.897 152.842 66.773 153.458 66.773C154.594 66.773 155.386 67.145 155.834 67.889C156.282 68.625 156.506 69.685 156.506 71.069C156.506 72.565 156.282 73.689 155.834 74.441C155.394 75.193 154.634 75.569 153.554 75.569C152.762 75.569 152.146 75.357 151.706 74.933C151.266 74.501 151.006 73.937 150.926 73.241H151.706ZM153.554 71.753C153.93 71.753 154.274 71.677 154.586 71.525C154.906 71.365 155.162 71.133 155.354 70.829C155.546 70.525 155.642 70.161 155.642 69.737C155.642 69.081 155.454 68.541 155.078 68.117C154.71 67.693 154.178 67.481 153.482 67.481C152.866 67.481 152.37 67.673 151.994 68.057C151.626 68.441 151.442 68.953 151.442 69.593C151.442 70.265 151.626 70.793 151.994 71.177C152.362 71.561 152.882 71.753 153.554 71.753ZM159.758 71.069C159.262 70.909 158.882 70.657 158.618 70.313C158.362 69.969 158.234 69.553 158.234 69.065C158.234 68.633 158.342 68.249 158.558 67.913C158.782 67.569 159.106 67.301 159.53 67.109C159.954 66.909 160.462 66.809 161.054 66.809C161.646 66.809 162.154 66.909 162.578 67.109C163.002 67.301 163.322 67.569 163.538 67.913C163.762 68.249 163.874 68.633 163.874 69.065C163.874 69.545 163.742 69.961 163.478 70.313C163.222 70.665 162.846 70.917 162.35 71.069C162.894 71.205 163.322 71.465 163.634 71.849C163.946 72.233 164.102 72.701 164.102 73.253C164.102 73.765 163.974 74.213 163.718 74.597C163.47 74.973 163.114 75.265 162.65 75.473C162.194 75.681 161.662 75.785 161.054 75.785C160.446 75.785 159.91 75.681 159.446 75.473C158.99 75.265 158.634 74.973 158.378 74.597C158.13 74.213 158.006 73.765 158.006 73.253C158.006 72.701 158.162 72.233 158.474 71.849C158.786 71.465 159.214 71.205 159.758 71.069ZM163.058 69.161C163.058 68.633 162.878 68.225 162.518 67.937C162.158 67.649 161.67 67.505 161.054 67.505C160.438 67.505 159.95 67.649 159.59 67.937C159.23 68.217 159.05 68.625 159.05 69.161C159.05 69.657 159.234 70.053 159.602 70.349C159.97 70.645 160.454 70.793 161.054 70.793C161.654 70.793 162.138 70.645 162.506 70.349C162.874 70.053 163.058 69.657 163.058 69.161ZM161.054 71.441C160.398 71.441 159.862 71.589 159.446 71.885C159.03 72.181 158.822 72.629 158.822 73.229C158.822 73.805 159.022 74.257 159.422 74.585C159.822 74.913 160.366 75.077 161.054 75.077C161.734 75.077 162.274 74.913 162.674 74.585C163.074 74.249 163.274 73.797 163.274 73.229C163.274 72.637 163.066 72.193 162.65 71.897C162.242 71.593 161.71 71.441 161.054 71.441Z" fill="#283146"/>
<path d="M51.4136 96.8355C51.6191 97.9176 52.2492 98.4587 53.3039 98.4587C54.0299 98.4587 54.5435 98.1368 54.8449 97.493C55.1462 96.8492 55.2969 95.8013 55.2969 94.3494C54.9956 94.774 54.5846 95.1027 54.0641 95.3356C53.5436 95.5685 52.9615 95.6849 52.3177 95.6849C51.441 95.6849 50.6603 95.5068 49.9754 95.1507C49.2905 94.7808 48.7494 94.2398 48.3522 93.5275C47.9687 92.8015 47.7769 91.9249 47.7769 90.8976C47.7769 89.8839 47.9824 89.0004 48.3933 88.2471C48.8179 87.4937 49.4138 86.9115 50.1808 86.5006C50.9616 86.0897 51.8794 85.8842 52.9341 85.8842C54.9613 85.8842 56.379 86.5143 57.1872 87.7745C57.9953 89.0347 58.3994 90.8907 58.3994 93.3426C58.3994 95.1233 58.2351 96.5958 57.9063 97.7601C57.5913 98.9107 57.0502 99.7873 56.2831 100.39C55.5298 100.993 54.4956 101.294 53.1806 101.294C52.1396 101.294 51.2493 101.089 50.5096 100.678C49.7836 100.267 49.222 99.7257 48.8248 99.0545C48.4412 98.3833 48.2221 97.6436 48.1673 96.8355H51.4136ZM53.119 92.9111C53.6943 92.9111 54.1532 92.7399 54.4956 92.3974C54.838 92.0413 55.0093 91.5619 55.0093 90.9592C55.0093 90.3017 54.8312 89.7949 54.4751 89.4388C54.1189 89.0826 53.6395 88.9046 53.0368 88.9046C52.4341 88.9046 51.9547 89.0895 51.5986 89.4593C51.2561 89.8154 51.0849 90.3086 51.0849 90.9387C51.0849 91.5276 51.2561 92.0071 51.5986 92.3769C51.9547 92.733 52.4615 92.9111 53.119 92.9111ZM59.9041 89.5004V86.2335H65.5955V101.232H61.9382V89.5004H59.9041ZM71.7795 96.8355C71.985 97.9176 72.6151 98.4587 73.6698 98.4587C74.3957 98.4587 74.9094 98.1368 75.2108 97.493C75.5121 96.8492 75.6628 95.8013 75.6628 94.3494C75.3614 94.774 74.9505 95.1027 74.43 95.3356C73.9095 95.5685 73.3273 95.6849 72.6835 95.6849C71.8069 95.6849 71.0261 95.5068 70.3412 95.1507C69.6564 94.7808 69.1153 94.2398 68.7181 93.5275C68.3345 92.8015 68.1428 91.9249 68.1428 90.8976C68.1428 89.8839 68.3482 89.0004 68.7592 88.2471C69.1838 87.4937 69.7796 86.9115 70.5467 86.5006C71.3275 86.0897 72.2452 85.8842 73.2999 85.8842C75.3272 85.8842 76.7449 86.5143 77.553 87.7745C78.3612 89.0347 78.7653 90.8907 78.7653 93.3426C78.7653 95.1233 78.6009 96.5958 78.2722 97.7601C77.9571 98.9107 77.4161 99.7873 76.649 100.39C75.8956 100.993 74.8615 101.294 73.5465 101.294C72.5055 101.294 71.6151 101.089 70.8755 100.678C70.1495 100.267 69.5879 99.7257 69.1906 99.0545C68.8071 98.3833 68.5879 97.6436 68.5332 96.8355H71.7795ZM73.4849 92.9111C74.0602 92.9111 74.519 92.7399 74.8615 92.3974C75.2039 92.0413 75.3751 91.5619 75.3751 90.9592C75.3751 90.3017 75.1971 89.7949 74.8409 89.4388C74.4848 89.0826 74.0054 88.9046 73.4027 88.9046C72.8 88.9046 72.3206 89.0895 71.9644 89.4593C71.622 89.8154 71.4508 90.3086 71.4508 90.9387C71.4508 91.5276 71.622 92.0071 71.9644 92.3769C72.3206 92.733 72.8274 92.9111 73.4849 92.9111ZM84.4204 96.8355C84.6258 97.9176 85.2559 98.4587 86.3107 98.4587C87.0366 98.4587 87.5503 98.1368 87.8516 97.493C88.153 96.8492 88.3037 95.8013 88.3037 94.3494C88.0023 94.774 87.5914 95.1027 87.0709 95.3356C86.5504 95.5685 85.9682 95.6849 85.3244 95.6849C84.4478 95.6849 83.667 95.5068 82.9821 95.1507C82.2972 94.7808 81.7562 94.2398 81.359 93.5275C80.9754 92.8015 80.7837 91.9249 80.7837 90.8976C80.7837 89.8839 80.9891 89.0004 81.4 88.2471C81.8247 87.4937 82.4205 86.9115 83.1876 86.5006C83.9684 86.0897 84.8861 85.8842 85.9408 85.8842C87.9681 85.8842 89.3858 86.5143 90.1939 87.7745C91.0021 89.0347 91.4062 90.8907 91.4062 93.3426C91.4062 95.1233 91.2418 96.5958 90.9131 97.7601C90.598 98.9107 90.057 99.7873 89.2899 100.39C88.5365 100.993 87.5023 101.294 86.1874 101.294C85.1464 101.294 84.256 101.089 83.5163 100.678C82.7904 100.267 82.2288 99.7257 81.8315 99.0545C81.448 98.3833 81.2288 97.6436 81.174 96.8355H84.4204ZM86.1257 92.9111C86.701 92.9111 87.1599 92.7399 87.5023 92.3974C87.8448 92.0413 88.016 91.5619 88.016 90.9592C88.016 90.3017 87.8379 89.7949 87.4818 89.4388C87.1257 89.0826 86.6462 88.9046 86.0435 88.9046C85.4409 88.9046 84.9614 89.0895 84.6053 89.4593C84.2629 89.8154 84.0916 90.3086 84.0916 90.9387C84.0916 91.5276 84.2629 92.0071 84.6053 92.3769C84.9614 92.733 85.4682 92.9111 86.1257 92.9111ZM92.9109 89.5004V86.2335H98.6022V101.232H94.945V89.5004H92.9109ZM111.567 89.2949H105.156V92.1303C105.43 91.829 105.814 91.5824 106.307 91.3907C106.8 91.1989 107.334 91.103 107.909 91.103C108.937 91.103 109.786 91.3359 110.457 91.8016C111.142 92.2673 111.642 92.87 111.957 93.6097C112.272 94.3494 112.43 95.1507 112.43 96.0136C112.43 97.6162 111.977 98.8901 111.073 99.8353C110.169 100.767 108.896 101.232 107.252 101.232C106.156 101.232 105.204 101.048 104.396 100.678C103.588 100.294 102.964 99.7668 102.526 99.0956C102.088 98.4244 101.848 97.6505 101.807 96.7738H105.238C105.32 97.1985 105.519 97.5546 105.834 97.8423C106.149 98.1162 106.581 98.2532 107.129 98.2532C107.772 98.2532 108.252 98.0477 108.567 97.6368C108.882 97.2259 109.039 96.678 109.039 95.9931C109.039 95.3219 108.875 94.8082 108.546 94.4521C108.217 94.096 107.738 93.9179 107.108 93.9179C106.642 93.9179 106.259 94.0343 105.957 94.2672C105.656 94.4863 105.457 94.7808 105.362 95.1507H101.971V86.213H111.567V89.2949ZM116.834 93.1782C115.547 92.4933 114.903 91.4181 114.903 89.9524C114.903 89.2127 115.095 88.5416 115.478 87.9389C115.862 87.3225 116.444 86.8362 117.225 86.4801C118.006 86.1102 118.964 85.9253 120.101 85.9253C121.238 85.9253 122.19 86.1102 122.957 86.4801C123.738 86.8362 124.32 87.3225 124.704 87.9389C125.087 88.5416 125.279 89.2127 125.279 89.9524C125.279 90.6921 125.101 91.3359 124.745 91.8838C124.402 92.4317 123.937 92.8632 123.348 93.1782C124.087 93.5344 124.656 94.0275 125.053 94.6576C125.45 95.274 125.649 95.9999 125.649 96.8355C125.649 97.808 125.402 98.6504 124.909 99.3627C124.416 100.061 123.745 100.595 122.896 100.965C122.06 101.335 121.129 101.52 120.101 101.52C119.074 101.52 118.136 101.335 117.287 100.965C116.451 100.595 115.787 100.061 115.294 99.3627C114.8 98.6504 114.554 97.808 114.554 96.8355C114.554 95.9862 114.752 95.2534 115.15 94.637C115.547 94.0069 116.109 93.5207 116.834 93.1782ZM121.868 90.4866C121.868 89.925 121.704 89.4936 121.375 89.1922C121.06 88.8772 120.636 88.7196 120.101 88.7196C119.567 88.7196 119.136 88.8772 118.807 89.1922C118.492 89.5072 118.334 89.9456 118.334 90.5072C118.334 91.0414 118.499 91.466 118.827 91.7811C119.156 92.0824 119.581 92.2331 120.101 92.2331C120.622 92.2331 121.047 92.0756 121.375 91.7605C121.704 91.4455 121.868 91.0208 121.868 90.4866ZM120.101 94.6987C119.458 94.6987 118.937 94.8767 118.54 95.2329C118.143 95.5753 117.944 96.0547 117.944 96.6711C117.944 97.2464 118.136 97.719 118.519 98.0888C118.917 98.4587 119.444 98.6436 120.101 98.6436C120.759 98.6436 121.273 98.4587 121.642 98.0888C122.026 97.719 122.218 97.2464 122.218 96.6711C122.218 96.0684 122.019 95.589 121.622 95.2329C121.238 94.8767 120.731 94.6987 120.101 94.6987ZM127.692 93.5275C127.692 91.1715 128.144 89.3155 129.048 87.9594C129.966 86.6034 131.438 85.9253 133.466 85.9253C135.493 85.9253 136.958 86.6034 137.862 87.9594C138.78 89.3155 139.239 91.1715 139.239 93.5275C139.239 95.9109 138.78 97.7806 137.862 99.1367C136.958 100.493 135.493 101.171 133.466 101.171C131.438 101.171 129.966 100.493 129.048 99.1367C128.144 97.7806 127.692 95.9109 127.692 93.5275ZM135.787 93.5275C135.787 92.144 135.637 91.0825 135.335 90.3428C135.034 89.5894 134.411 89.2127 133.466 89.2127C132.52 89.2127 131.897 89.5894 131.596 90.3428C131.294 91.0825 131.144 92.144 131.144 93.5275C131.144 94.4589 131.199 95.2329 131.308 95.8493C131.418 96.4519 131.637 96.9451 131.966 97.3286C132.308 97.6984 132.808 97.8834 133.466 97.8834C134.123 97.8834 134.616 97.6984 134.945 97.3286C135.287 96.9451 135.513 96.4519 135.623 95.8493C135.733 95.2329 135.787 94.4589 135.787 93.5275ZM148.513 90.2812C148.403 89.7744 148.211 89.3977 147.937 89.1511C147.663 88.8909 147.273 88.7607 146.766 88.7607C145.985 88.7607 145.424 89.1032 145.081 89.788C144.739 90.4592 144.561 91.5276 144.547 92.9933C144.848 92.5139 145.28 92.1372 145.842 91.8632C146.417 91.5893 147.047 91.4523 147.732 91.4523C149.074 91.4523 150.149 91.8769 150.958 92.7262C151.779 93.5754 152.19 94.7603 152.19 96.2807C152.19 97.2807 151.985 98.1573 151.574 98.9107C151.177 99.664 150.588 100.253 149.807 100.678C149.04 101.102 148.129 101.315 147.074 101.315C144.965 101.315 143.499 100.657 142.677 99.3421C141.856 98.0135 141.445 96.1095 141.445 93.6302C141.445 91.0277 141.876 89.0963 142.739 87.8361C143.616 86.5623 145.013 85.9253 146.931 85.9253C147.958 85.9253 148.821 86.1308 149.519 86.5417C150.232 86.9389 150.766 87.4663 151.122 88.1238C151.492 88.7813 151.711 89.5004 151.779 90.2812H148.513ZM146.889 94.2261C146.3 94.2261 145.807 94.4042 145.41 94.7603C145.027 95.1027 144.835 95.5958 144.835 96.2396C144.835 96.8971 145.013 97.4108 145.369 97.7806C145.739 98.1505 146.259 98.3354 146.931 98.3354C147.533 98.3354 148.006 98.1573 148.348 97.8012C148.704 97.4313 148.882 96.9314 148.882 96.3013C148.882 95.6575 148.711 95.1507 148.369 94.7808C148.026 94.411 147.533 94.2261 146.889 94.2261ZM164.739 89.2949H158.328V92.1303C158.602 91.829 158.986 91.5824 159.479 91.3907C159.972 91.1989 160.506 91.103 161.081 91.103C162.109 91.103 162.958 91.3359 163.629 91.8016C164.314 92.2673 164.814 92.87 165.129 93.6097C165.444 94.3494 165.601 95.1507 165.601 96.0136C165.601 97.6162 165.149 98.8901 164.245 99.8353C163.341 100.767 162.067 101.232 160.424 101.232C159.328 101.232 158.376 101.048 157.568 100.678C156.76 100.294 156.136 99.7668 155.698 99.0956C155.26 98.4244 155.02 97.6505 154.979 96.7738H158.41C158.492 97.1985 158.691 97.5546 159.006 97.8423C159.321 98.1162 159.753 98.2532 160.3 98.2532C160.944 98.2532 161.424 98.0477 161.739 97.6368C162.054 97.2259 162.211 96.678 162.211 95.9931C162.211 95.3219 162.047 94.8082 161.718 94.4521C161.389 94.096 160.91 93.9179 160.28 93.9179C159.814 93.9179 159.431 94.0343 159.129 94.2672C158.828 94.4863 158.629 94.7808 158.534 95.1507H155.143V86.213H164.739V89.2949Z" fill="#283146"/>
<g opacity="0.4" filter="url(#filter1_f_54_478)">
<path d="M50.3435 20.719C65.7562 20.719 78.2505 33.2133 78.2505 48.626C78.2505 64.0386 65.7562 76.533 50.3435 76.533C34.9309 76.533 22.4365 64.0386 22.4365 48.626C22.4365 33.2133 34.9309 20.719 50.3435 20.719Z" fill="#266FF9"/>
<path d="M50.3435 20.719C65.7562 20.719 78.2505 33.2133 78.2505 48.626C78.2505 64.0386 65.7562 76.533 50.3435 76.533C34.9309 76.533 22.4365 64.0386 22.4365 48.626C22.4365 33.2133 34.9309 20.719 50.3435 20.719Z" fill="url(#paint0_linear_54_478)" fill-opacity="0.2"/>
</g>
<path d="M46.158 16.5332C61.5706 16.5332 74.0649 29.0275 74.0649 44.4402C74.0649 59.8529 61.5706 72.3472 46.158 72.3472C30.7453 72.3472 18.251 59.8529 18.251 44.4402C18.251 29.0275 30.7453 16.5332 46.158 16.5332Z" fill="#266FF9"/>
<path d="M46.158 16.5332C61.5706 16.5332 74.0649 29.0275 74.0649 44.4402C74.0649 59.8529 61.5706 72.3472 46.158 72.3472C30.7453 72.3472 18.251 59.8529 18.251 44.4402C18.251 29.0275 30.7453 16.5332 46.158 16.5332Z" fill="url(#paint1_linear_54_478)" fill-opacity="0.2"/>
<g filter="url(#filter2_d_54_478)">
<path d="M40.8698 33.4183C40.4938 32.5101 39.5026 32.0267 38.5554 32.2855L34.2587 33.4573C33.4092 33.6917 32.8184 34.4632 32.8184 35.342C32.8184 47.4216 42.6128 57.2161 54.6924 57.2161C55.5712 57.2161 56.3427 56.6253 56.5771 55.7757L57.7489 51.479C58.0077 50.5318 57.5243 49.5406 56.6161 49.1647L51.9288 47.2116C51.133 46.8796 50.2102 47.1091 49.6682 47.778L47.6956 50.1851C44.2583 48.5592 41.4752 45.7761 39.8493 42.3388L42.2564 40.3711C42.9253 39.8243 43.1548 38.9063 42.8228 38.1105L40.8698 33.4232V33.4183Z" fill="white"/>
</g>
</g>
<defs>
<filter id="filter0_d_54_478" x="6.7085" y="32.1499" width="190" height="110.333" filterUnits="userSpaceOnUse" color-interpolation-filters="sRGB">
<feFlood flood-opacity="0" result="BackgroundImageFix"/>
<feColorMatrix in="SourceAlpha" type="matrix" values="0 0 0 0 0 0 0 0 0 0 0 0 0 0 0 0 0 0 127 0" result="hardAlpha"/>
<feOffset dx="-5" dy="5"/>
<feGaussianBlur stdDeviation="10"/>
<feComposite in2="hardAlpha" operator="out"/>
<feColorMatrix type="matrix" values="0 0 0 0 0 0 0 0 0 0 0 0 0 0 0 0 0 0 0.1 0"/>
<feBlend mode="normal" in2="BackgroundImageFix" result="effect1_dropShadow_54_478"/>
<feBlend mode="normal" in="SourceGraphic" in2="effect1_dropShadow_54_478" result="shape"/>
</filter>
<filter id="filter1_f_54_478" x="-5.47046" y="-7.18799" width="111.628" height="111.628" filterUnits="userSpaceOnUse" color-interpolation-filters="sRGB">
<feFlood flood-opacity="0" result="BackgroundImageFix"/>
<feBlend mode="normal" in="SourceGraphic" in2="BackgroundImageFix" result="shape"/>
<feGaussianBlur stdDeviation="13.9535" result="effect1_foregroundBlur_54_478"/>
</filter>
<filter id="filter2_d_54_478" x="28.8184" y="32.2161" width="33" height="33" filterUnits="userSpaceOnUse" color-interpolation-filters="sRGB">
<feFlood flood-opacity="0" result="BackgroundImageFix"/>
<feColorMatrix in="SourceAlpha" type="matrix" values="0 0 0 0 0 0 0 0 0 0 0 0 0 0 0 0 0 0 127 0" result="hardAlpha"/>
<feOffset dy="4"/>
<feGaussianBlur stdDeviation="2"/>
<feComposite in2="hardAlpha" operator="out"/>
<feColorMatrix type="matrix" values="0 0 0 0 0 0 0 0 0 0 0 0 0 0 0 0 0 0 0.25 0"/>
<feBlend mode="normal" in2="BackgroundImageFix" result="effect1_dropShadow_54_478"/>
<feBlend mode="normal" in="SourceGraphic" in2="effect1_dropShadow_54_478" result="shape"/>
</filter>
<linearGradient id="paint0_linear_54_478" x1="50.3435" y1="20.719" x2="50.3435" y2="76.533" gradientUnits="userSpaceOnUse">
<stop stop-color="white"/>
<stop offset="1" stop-opacity="0"/>
</linearGradient>
<linearGradient id="paint1_linear_54_478" x1="46.158" y1="16.5332" x2="46.158" y2="72.3472" gradientUnits="userSpaceOnUse">
<stop stop-color="white"/>
<stop offset="1" stop-opacity="0"/>
</linearGradient>
<clipPath id="clip0_54_478">
<rect width="196" height="134" fill="white" transform="matrix(-1 0 0 1 196 0)"/>
</clipPath>
</defs>
</svg>
