<svg width="56" height="57" viewBox="0 0 56 57" fill="none" xmlns="http://www.w3.org/2000/svg">
<path d="M27.987 0.295166C12.5744 0.295166 0.0800781 12.7895 0.0800781 28.2022C0.0800781 43.6148 12.5744 56.1092 27.987 56.1092C43.3997 56.1092 55.894 43.6148 55.894 28.2022C55.894 12.7895 43.3997 0.295166 27.987 0.295166Z" fill="#266FF9"/>
<path d="M27.987 0.295166C12.5744 0.295166 0.0800781 12.7895 0.0800781 28.2022C0.0800781 43.6148 12.5744 56.1092 27.987 56.1092C43.3997 56.1092 55.894 43.6148 55.894 28.2022C55.894 12.7895 43.3997 0.295166 27.987 0.295166Z" fill="url(#paint0_linear_97_3)" fill-opacity="0.2"/>
<g filter="url(#filter0_d_97_3)">
<path d="M37.5912 38.1182C38.5118 33.1988 40.3205 22.5402 40.7385 18.148C40.7639 17.7826 40.7482 17.4156 40.6918 17.0538C40.6589 16.7624 40.5178 16.4939 40.2964 16.3016C39.9637 16.0315 39.4499 15.9746 39.2201 15.9784C38.1753 15.997 36.5724 16.5544 28.8585 19.7629C26.1569 20.8868 20.7573 23.2128 12.6597 26.7408C11.3448 27.2634 10.656 27.7749 10.5932 28.2752C10.4873 29.1205 11.5459 29.4534 12.9875 29.9066C13.1835 29.9683 13.3867 30.0322 13.5949 30.0998C15.0132 30.561 16.921 31.1003 17.9128 31.1217C18.8125 31.1411 19.8165 30.7702 20.925 30.009C28.4908 24.902 32.3963 22.3206 32.6414 22.2649C32.8145 22.2258 33.0537 22.1771 33.2166 22.3209C33.3794 22.4647 33.363 22.7385 33.3458 22.8119C33.241 23.259 29.0853 27.1225 26.935 29.1216C26.2647 29.7447 25.7893 30.1867 25.6921 30.2877C25.4741 30.5142 25.252 30.7284 25.0385 30.9343C23.7212 32.2045 22.7338 33.1567 25.0938 34.7118C26.2285 35.4596 27.1365 36.0779 28.0423 36.6948C29.0309 37.368 30.017 38.0395 31.2927 38.8758C31.6178 39.0889 31.9282 39.3102 32.2306 39.5258C33.3816 40.3463 34.4157 41.0835 35.693 40.9659C36.4351 40.8977 37.2019 40.1997 37.5912 38.1182Z" fill="white"/>
</g>
<defs>
<filter id="filter0_d_97_3" x="6.58594" y="15.9783" width="38.1641" height="33" filterUnits="userSpaceOnUse" color-interpolation-filters="sRGB">
<feFlood flood-opacity="0" result="BackgroundImageFix"/>
<feColorMatrix in="SourceAlpha" type="matrix" values="0 0 0 0 0 0 0 0 0 0 0 0 0 0 0 0 0 0 127 0" result="hardAlpha"/>
<feOffset dy="4"/>
<feGaussianBlur stdDeviation="2"/>
<feComposite in2="hardAlpha" operator="out"/>
<feColorMatrix type="matrix" values="0 0 0 0 0 0 0 0 0 0 0 0 0 0 0 0 0 0 0.25 0"/>
<feBlend mode="normal" in2="BackgroundImageFix" result="effect1_dropShadow_97_3"/>
<feBlend mode="normal" in="SourceGraphic" in2="effect1_dropShadow_97_3" result="shape"/>
</filter>
<linearGradient id="paint0_linear_97_3" x1="27.987" y1="0.295166" x2="27.987" y2="56.1092" gradientUnits="userSpaceOnUse">
<stop stop-color="white"/>
<stop offset="1" stop-opacity="0"/>
</linearGradient>
</defs>
</svg>
