<svg width="196" height="134" viewBox="0 0 196 134" fill="none" xmlns="http://www.w3.org/2000/svg">
<g clip-path="url(#clip0_54_470)">
<g filter="url(#filter0_d_54_470)">
<rect x="14.292" y="47.1499" width="150" height="70.333" rx="9.1" fill="white"/>
</g>
<g opacity="0.4" filter="url(#filter1_f_54_470)">
<path d="M145.657 20.7188C130.244 20.7188 117.75 33.2131 117.75 48.6258C117.75 64.0384 130.244 76.5328 145.657 76.5328C161.07 76.5328 173.564 64.0384 173.564 48.6258C173.564 33.2131 161.07 20.7188 145.657 20.7188Z" fill="#266FF9"/>
<path d="M145.657 20.7188C130.244 20.7188 117.75 33.2131 117.75 48.6258C117.75 64.0384 130.244 76.5328 145.657 76.5328C161.07 76.5328 173.564 64.0384 173.564 48.6258C173.564 33.2131 161.07 20.7188 145.657 20.7188Z" fill="url(#paint0_linear_54_470)" fill-opacity="0.2"/>
</g>
<ellipse cx="149.843" cy="44.4398" rx="20.9302" ry="20.9303" fill="white"/>
<path d="M149.843 16.533C134.43 16.533 121.936 29.0273 121.936 44.44C121.936 59.8526 134.43 72.347 149.843 72.347C165.256 72.347 177.75 59.8526 177.75 44.44C177.75 29.0273 165.256 16.533 149.843 16.533ZM162.778 35.512C162.358 39.9248 160.541 50.6333 159.616 55.5758C159.225 57.667 158.455 58.3683 157.709 58.4368C156.089 58.586 154.858 57.3659 153.288 56.3369C150.832 54.7268 149.445 53.7246 147.06 52.1534C144.305 50.3378 146.091 49.3402 147.661 47.7086C148.072 47.2817 155.213 40.787 155.351 40.1978C155.368 40.1241 155.385 39.8489 155.221 39.7044C155.058 39.56 154.817 39.6089 154.643 39.6482C154.397 39.7041 150.473 42.2976 142.872 47.4286C141.758 48.1933 140.75 48.566 139.846 48.5465C138.849 48.525 136.933 47.9831 135.508 47.5199C133.76 46.9518 132.371 46.6515 132.492 45.6867C132.555 45.184 133.247 44.6702 134.568 44.145C142.703 40.6005 148.128 38.2637 150.843 37.1345C158.593 33.9109 160.203 33.351 161.253 33.3323C161.484 33.3285 162 33.3856 162.334 33.6569C162.557 33.8502 162.698 34.1199 162.731 34.4127C162.788 34.7762 162.804 35.1449 162.778 35.512Z" fill="#266FF9"/>
<path d="M149.843 16.533C134.43 16.533 121.936 29.0273 121.936 44.44C121.936 59.8526 134.43 72.347 149.843 72.347C165.256 72.347 177.75 59.8526 177.75 44.44C177.75 29.0273 165.256 16.533 149.843 16.533ZM162.778 35.512C162.358 39.9248 160.541 50.6333 159.616 55.5758C159.225 57.667 158.455 58.3683 157.709 58.4368C156.089 58.586 154.858 57.3659 153.288 56.3369C150.832 54.7268 149.445 53.7246 147.06 52.1534C144.305 50.3378 146.091 49.3402 147.661 47.7086C148.072 47.2817 155.213 40.787 155.351 40.1978C155.368 40.1241 155.385 39.8489 155.221 39.7044C155.058 39.56 154.817 39.6089 154.643 39.6482C154.397 39.7041 150.473 42.2976 142.872 47.4286C141.758 48.1933 140.75 48.566 139.846 48.5465C138.849 48.525 136.933 47.9831 135.508 47.5199C133.76 46.9518 132.371 46.6515 132.492 45.6867C132.555 45.184 133.247 44.6702 134.568 44.145C142.703 40.6005 148.128 38.2637 150.843 37.1345C158.593 33.9109 160.203 33.351 161.253 33.3323C161.484 33.3285 162 33.3856 162.334 33.6569C162.557 33.8502 162.698 34.1199 162.731 34.4127C162.788 34.7762 162.804 35.1449 162.778 35.512Z" fill="url(#paint1_linear_54_470)" fill-opacity="0.2"/>
<path opacity="0.5" d="M33.344 69.689V73.757C33.344 74.157 33.42 74.433 33.572 74.585C33.724 74.737 33.992 74.813 34.376 74.813H35.144V75.533H34.244C33.652 75.533 33.212 75.397 32.924 75.125C32.636 74.845 32.492 74.389 32.492 73.757V69.689H31.58V68.981H32.492V67.337H33.344V68.981H35.144V69.689H33.344ZM42.4573 71.921C42.4573 72.209 42.4493 72.429 42.4333 72.581H36.9973C37.0213 73.077 37.1413 73.501 37.3573 73.853C37.5733 74.205 37.8573 74.473 38.2093 74.657C38.5613 74.833 38.9453 74.921 39.3613 74.921C39.9053 74.921 40.3613 74.789 40.7293 74.525C41.1053 74.261 41.3533 73.905 41.4733 73.457H42.3613C42.2013 74.097 41.8573 74.621 41.3293 75.029C40.8093 75.429 40.1533 75.629 39.3613 75.629C38.7453 75.629 38.1933 75.493 37.7053 75.221C37.2173 74.941 36.8333 74.549 36.5533 74.045C36.2813 73.533 36.1453 72.937 36.1453 72.257C36.1453 71.577 36.2813 70.981 36.5533 70.469C36.8253 69.957 37.2053 69.565 37.6933 69.293C38.1813 69.021 38.7373 68.885 39.3613 68.885C39.9853 68.885 40.5293 69.021 40.9933 69.293C41.4653 69.565 41.8253 69.933 42.0733 70.397C42.3293 70.853 42.4573 71.361 42.4573 71.921ZM41.6053 71.897C41.6133 71.409 41.5133 70.993 41.3053 70.649C41.1053 70.305 40.8293 70.045 40.4773 69.869C40.1253 69.693 39.7413 69.605 39.3253 69.605C38.7013 69.605 38.1693 69.805 37.7293 70.205C37.2893 70.605 37.0453 71.169 36.9973 71.897H41.6053ZM44.8342 66.653V75.533H43.9942V66.653H44.8342ZM52.6644 71.921C52.6644 72.209 52.6564 72.429 52.6404 72.581H47.2044C47.2284 73.077 47.3484 73.501 47.5644 73.853C47.7804 74.205 48.0644 74.473 48.4164 74.657C48.7684 74.833 49.1524 74.921 49.5684 74.921C50.1124 74.921 50.5684 74.789 50.9364 74.525C51.3124 74.261 51.5604 73.905 51.6804 73.457H52.5684C52.4084 74.097 52.0644 74.621 51.5364 75.029C51.0164 75.429 50.3604 75.629 49.5684 75.629C48.9524 75.629 48.4004 75.493 47.9124 75.221C47.4244 74.941 47.0404 74.549 46.7604 74.045C46.4884 73.533 46.3524 72.937 46.3524 72.257C46.3524 71.577 46.4884 70.981 46.7604 70.469C47.0324 69.957 47.4124 69.565 47.9004 69.293C48.3884 69.021 48.9444 68.885 49.5684 68.885C50.1924 68.885 50.7364 69.021 51.2004 69.293C51.6724 69.565 52.0324 69.933 52.2804 70.397C52.5364 70.853 52.6644 71.361 52.6644 71.921ZM51.8124 71.897C51.8204 71.409 51.7204 70.993 51.5124 70.649C51.3124 70.305 51.0364 70.045 50.6844 69.869C50.3324 69.693 49.9484 69.605 49.5324 69.605C48.9084 69.605 48.3764 69.805 47.9364 70.205C47.4964 70.605 47.2524 71.169 47.2044 71.897H51.8124ZM56.9492 68.885C57.5652 68.885 58.1012 69.029 58.5572 69.317C59.0132 69.605 59.3412 69.969 59.5412 70.409V68.981H60.3812V75.701C60.3812 76.301 60.2492 76.833 59.9852 77.297C59.7292 77.761 59.3692 78.117 58.9052 78.365C58.4412 78.621 57.9132 78.749 57.3212 78.749C56.4812 78.749 55.7812 78.549 55.2212 78.149C54.6692 77.749 54.3252 77.205 54.1892 76.517H55.0172C55.1612 76.973 55.4332 77.337 55.8332 77.609C56.2412 77.881 56.7372 78.017 57.3212 78.017C57.7452 78.017 58.1252 77.925 58.4612 77.741C58.7972 77.565 59.0612 77.301 59.2532 76.949C59.4452 76.597 59.5412 76.181 59.5412 75.701V74.081C59.3332 74.529 59.0012 74.901 58.5452 75.197C58.0972 75.485 57.5652 75.629 56.9492 75.629C56.3492 75.629 55.8092 75.489 55.3292 75.209C54.8572 74.929 54.4852 74.533 54.2132 74.021C53.9492 73.509 53.8172 72.917 53.8172 72.245C53.8172 71.573 53.9492 70.985 54.2132 70.481C54.4852 69.969 54.8572 69.577 55.3292 69.305C55.8092 69.025 56.3492 68.885 56.9492 68.885ZM59.5412 72.257C59.5412 71.729 59.4332 71.265 59.2172 70.865C59.0012 70.465 58.7052 70.157 58.3292 69.941C57.9612 69.725 57.5532 69.617 57.1052 69.617C56.6412 69.617 56.2252 69.721 55.8572 69.929C55.4892 70.137 55.1972 70.441 54.9812 70.841C54.7732 71.233 54.6692 71.701 54.6692 72.245C54.6692 72.781 54.7732 73.253 54.9812 73.661C55.1972 74.061 55.4892 74.369 55.8572 74.585C56.2252 74.793 56.6412 74.897 57.1052 74.897C57.5532 74.897 57.9612 74.789 58.3292 74.573C58.7052 74.357 59.0012 74.049 59.2172 73.649C59.4332 73.249 59.5412 72.785 59.5412 72.257ZM63.1389 70.145C63.3229 69.737 63.6029 69.421 63.9789 69.197C64.3629 68.973 64.8309 68.861 65.3829 68.861V69.737H65.1549C64.5469 69.737 64.0589 69.901 63.6909 70.229C63.3229 70.557 63.1389 71.105 63.1389 71.873V75.533H62.2989V68.981H63.1389V70.145ZM66.2625 72.245C66.2625 71.573 66.3945 70.985 66.6585 70.481C66.9305 69.969 67.3025 69.577 67.7745 69.305C68.2545 69.025 68.7945 68.885 69.3945 68.885C70.0185 68.885 70.5545 69.029 71.0025 69.317C71.4585 69.605 71.7865 69.973 71.9865 70.421V68.981H72.8265V75.533H71.9865V74.081C71.7785 74.529 71.4465 74.901 70.9905 75.197C70.5425 75.485 70.0065 75.629 69.3825 75.629C68.7905 75.629 68.2545 75.489 67.7745 75.209C67.3025 74.929 66.9305 74.533 66.6585 74.021C66.3945 73.509 66.2625 72.917 66.2625 72.245ZM71.9865 72.257C71.9865 71.729 71.8785 71.265 71.6625 70.865C71.4465 70.465 71.1505 70.157 70.7745 69.941C70.4065 69.725 69.9985 69.617 69.5505 69.617C69.0865 69.617 68.6705 69.721 68.3025 69.929C67.9345 70.137 67.6425 70.441 67.4265 70.841C67.2185 71.233 67.1145 71.701 67.1145 72.245C67.1145 72.781 67.2185 73.253 67.4265 73.661C67.6425 74.061 67.9345 74.369 68.3025 74.585C68.6705 74.793 69.0865 74.897 69.5505 74.897C69.9985 74.897 70.4065 74.789 70.7745 74.573C71.1505 74.357 71.4465 74.049 71.6625 73.649C71.8785 73.249 71.9865 72.785 71.9865 72.257ZM82.5442 68.861C83.3122 68.861 83.9362 69.105 84.4162 69.593C84.9042 70.073 85.1482 70.773 85.1482 71.693V75.533H84.3202V71.789C84.3202 71.077 84.1482 70.533 83.8042 70.157C83.4602 69.781 82.9922 69.593 82.4002 69.593C81.7842 69.593 81.2922 69.797 80.9242 70.205C80.5562 70.613 80.3722 71.205 80.3722 71.981V75.533H79.5442V71.789C79.5442 71.077 79.3722 70.533 79.0282 70.157C78.6842 69.781 78.2122 69.593 77.6122 69.593C76.9962 69.593 76.5042 69.797 76.1362 70.205C75.7682 70.613 75.5842 71.205 75.5842 71.981V75.533H74.7442V68.981H75.5842V70.109C75.7922 69.701 76.0882 69.393 76.4722 69.185C76.8562 68.969 77.2842 68.861 77.7562 68.861C78.3242 68.861 78.8202 68.997 79.2442 69.269C79.6762 69.541 79.9882 69.941 80.1802 70.469C80.3562 69.949 80.6562 69.553 81.0802 69.281C81.5122 69.001 82.0002 68.861 82.5442 68.861ZM87.1577 75.593C86.9817 75.593 86.8337 75.533 86.7137 75.413C86.6017 75.293 86.5457 75.145 86.5457 74.969C86.5457 74.793 86.6017 74.649 86.7137 74.537C86.8337 74.417 86.9817 74.357 87.1577 74.357C87.3257 74.357 87.4657 74.417 87.5777 74.537C87.6977 74.649 87.7577 74.793 87.7577 74.969C87.7577 75.145 87.6977 75.293 87.5777 75.413C87.4657 75.533 87.3257 75.593 87.1577 75.593ZM96.9934 68.861C97.7614 68.861 98.3854 69.105 98.8654 69.593C99.3534 70.073 99.5974 70.773 99.5974 71.693V75.533H98.7694V71.789C98.7694 71.077 98.5974 70.533 98.2534 70.157C97.9094 69.781 97.4414 69.593 96.8494 69.593C96.2334 69.593 95.7414 69.797 95.3734 70.205C95.0054 70.613 94.8214 71.205 94.8214 71.981V75.533H93.9934V71.789C93.9934 71.077 93.8214 70.533 93.4774 70.157C93.1334 69.781 92.6614 69.593 92.0614 69.593C91.4454 69.593 90.9534 69.797 90.5854 70.205C90.2174 70.613 90.0334 71.205 90.0334 71.981V75.533H89.1934V68.981H90.0334V70.109C90.2414 69.701 90.5374 69.393 90.9214 69.185C91.3054 68.969 91.7334 68.861 92.2054 68.861C92.7734 68.861 93.2694 68.997 93.6934 69.269C94.1254 69.541 94.4374 69.941 94.6294 70.469C94.8054 69.949 95.1054 69.553 95.5294 69.281C95.9614 69.001 96.4494 68.861 96.9934 68.861ZM107.391 71.921C107.391 72.209 107.383 72.429 107.367 72.581H101.931C101.955 73.077 102.075 73.501 102.291 73.853C102.507 74.205 102.791 74.473 103.143 74.657C103.495 74.833 103.879 74.921 104.295 74.921C104.839 74.921 105.295 74.789 105.663 74.525C106.039 74.261 106.287 73.905 106.407 73.457H107.295C107.135 74.097 106.791 74.621 106.263 75.029C105.743 75.429 105.087 75.629 104.295 75.629C103.679 75.629 103.127 75.493 102.639 75.221C102.151 74.941 101.767 74.549 101.487 74.045C101.215 73.533 101.079 72.937 101.079 72.257C101.079 71.577 101.215 70.981 101.487 70.469C101.759 69.957 102.139 69.565 102.627 69.293C103.115 69.021 103.671 68.885 104.295 68.885C104.919 68.885 105.463 69.021 105.927 69.293C106.399 69.565 106.759 69.933 107.007 70.397C107.263 70.853 107.391 71.361 107.391 71.921ZM106.539 71.897C106.547 71.409 106.447 70.993 106.239 70.649C106.039 70.305 105.763 70.045 105.411 69.869C105.059 69.693 104.675 69.605 104.259 69.605C103.635 69.605 103.103 69.805 102.663 70.205C102.223 70.605 101.979 71.169 101.931 71.897H106.539ZM112.66 64.253L109.348 77.525H108.52L111.808 64.253H112.66Z" fill="#283146"/>
<path d="M34.5049 88.5917V91.7687H39.6283V94.7219H34.5049V98.1673H40.2995V101.232H30.6791V85.5267H40.2995V88.5917H34.5049ZM46.609 90.829C47.0564 90.1429 47.6157 89.606 48.2869 89.2182C48.9581 88.8155 49.7039 88.6141 50.5242 88.6141V92.6636H49.4727C48.5181 92.6636 47.8022 92.8724 47.3249 93.29C46.8476 93.6928 46.609 94.4087 46.609 95.4378V101.232H42.7832V88.7484H46.609V90.829ZM58.6172 91.9253H56.5589V101.232H52.7332V91.9253H51.3461V88.7484H52.7332V88.3904C52.7332 86.8541 53.1732 85.6907 54.0532 84.9002C54.9332 84.0948 56.2233 83.6921 57.9237 83.6921C58.2071 83.6921 58.4159 83.6995 58.5501 83.7145V86.9585C57.8193 86.9138 57.3047 87.0182 57.0064 87.2717C56.7081 87.5253 56.5589 87.9802 56.5589 88.6365V88.7484H58.6172V91.9253ZM59.6543 94.968C59.6543 93.6853 59.8929 92.5592 60.3702 91.5897C60.8624 90.6202 61.5261 89.8745 62.3614 89.3524C63.1966 88.8304 64.1288 88.5694 65.158 88.5694C66.038 88.5694 66.8061 88.7484 67.4624 89.1063C68.1336 89.4643 68.6482 89.9341 69.0061 90.5158V88.7484H72.8319V101.232H69.0061V99.465C68.6332 100.047 68.1112 100.516 67.44 100.874C66.7838 101.232 66.0156 101.411 65.1356 101.411C64.1214 101.411 63.1966 101.15 62.3614 100.628C61.5261 100.091 60.8624 99.3382 60.3702 98.3687C59.8929 97.3843 59.6543 96.2507 59.6543 94.968ZM69.0061 94.9904C69.0061 94.0358 68.7377 93.2826 68.2007 92.7307C67.6787 92.1789 67.0373 91.9029 66.2766 91.9029C65.516 91.9029 64.8671 92.1789 64.3302 92.7307C63.8082 93.2677 63.5471 94.0134 63.5471 94.968C63.5471 95.9226 63.8082 96.6833 64.3302 97.25C64.8671 97.8019 65.516 98.0778 66.2766 98.0778C67.0373 98.0778 67.6787 97.8019 68.2007 97.25C68.7377 96.6982 69.0061 95.945 69.0061 94.9904ZM83.2064 88.6141C84.6681 88.6141 85.8315 89.0914 86.6966 90.046C87.5766 90.9856 88.0166 92.2833 88.0166 93.9389V101.232H84.2132V94.4534C84.2132 93.6182 83.997 92.9694 83.5644 92.507C83.1319 92.0446 82.5502 91.8134 81.8193 91.8134C81.0885 91.8134 80.5068 92.0446 80.0742 92.507C79.6417 92.9694 79.4254 93.6182 79.4254 94.4534V101.232H75.5997V88.7484H79.4254V90.4039C79.8132 89.8521 80.3353 89.4195 80.9915 89.1063C81.6478 88.7782 82.3861 88.6141 83.2064 88.6141ZM96.3579 101.389C95.2094 101.389 94.1802 101.203 93.2704 100.83C92.3606 100.457 91.6297 99.905 91.0779 99.1741C90.5409 98.4433 90.2575 97.5633 90.2277 96.5341H94.2996C94.3592 97.1158 94.5606 97.5633 94.9036 97.8765C95.2467 98.1748 95.6941 98.3239 96.246 98.3239C96.8128 98.3239 97.2602 98.1972 97.5884 97.9436C97.9165 97.6751 98.0806 97.3097 98.0806 96.8473C98.0806 96.4595 97.9463 96.1389 97.6779 95.8853C97.4243 95.6317 97.1036 95.4229 96.7158 95.2589C96.3429 95.0948 95.806 94.9084 95.105 94.6995C94.0907 94.3863 93.2629 94.0731 92.6216 93.7599C91.9802 93.4467 91.4284 92.9843 90.966 92.3728C90.5036 91.7612 90.2724 90.9633 90.2724 89.9789C90.2724 88.5172 90.8019 87.3761 91.8609 86.5558C92.9199 85.7206 94.2996 85.3029 95.9999 85.3029C97.7301 85.3029 99.1246 85.7206 100.184 86.5558C101.243 87.3761 101.809 88.5246 101.884 90.0012H97.745C97.7151 89.4941 97.5287 89.0989 97.1857 88.8155C96.8426 88.5172 96.4026 88.368 95.8657 88.368C95.4033 88.368 95.0304 88.4948 94.747 88.7484C94.4636 88.987 94.3219 89.3375 94.3219 89.7999C94.3219 90.307 94.5606 90.7023 95.0379 90.9856C95.5151 91.269 96.2609 91.5748 97.2751 91.9029C98.2894 92.246 99.1097 92.5741 99.7362 92.8873C100.378 93.2006 100.929 93.6555 101.392 94.2521C101.854 94.8487 102.085 95.6168 102.085 96.5565C102.085 97.4514 101.854 98.2643 101.392 98.9951C100.944 99.726 100.288 100.308 99.4229 100.74C98.5579 101.173 97.5362 101.389 96.3579 101.389ZM116.208 94.789C116.208 95.147 116.185 95.5199 116.141 95.9077H107.482C107.542 96.6833 107.788 97.2799 108.221 97.6975C108.668 98.1002 109.213 98.3016 109.854 98.3016C110.809 98.3016 111.472 97.8989 111.845 97.0934H115.917C115.708 97.9138 115.328 98.6521 114.776 99.3084C114.239 99.9646 113.56 100.479 112.74 100.852C111.92 101.225 111.002 101.411 109.988 101.411C108.765 101.411 107.676 101.15 106.722 100.628C105.767 100.106 105.021 99.3606 104.484 98.3911C103.948 97.4216 103.679 96.288 103.679 94.9904C103.679 93.6928 103.94 92.5592 104.462 91.5897C104.999 90.6202 105.745 89.8745 106.699 89.3524C107.654 88.8304 108.75 88.5694 109.988 88.5694C111.196 88.5694 112.27 88.8229 113.21 89.33C114.15 89.8372 114.88 90.5606 115.402 91.5002C115.939 92.4399 116.208 93.5361 116.208 94.789ZM112.293 93.7823C112.293 93.126 112.069 92.6039 111.621 92.2161C111.174 91.8284 110.615 91.6345 109.943 91.6345C109.302 91.6345 108.758 91.8209 108.31 92.1938C107.878 92.5667 107.609 93.0961 107.505 93.7823H112.293ZM124.491 91.9253H122.432V101.232H118.606V91.9253H117.219V88.7484H118.606V88.3904C118.606 86.8541 119.046 85.6907 119.926 84.9002C120.806 84.0948 122.097 83.6921 123.797 83.6921C124.08 83.6921 124.289 83.6995 124.423 83.7145V86.9585C123.693 86.9138 123.178 87.0182 122.88 87.2717C122.581 87.5253 122.432 87.9802 122.432 88.6365V88.7484H124.491V91.9253ZM125.528 94.968C125.528 93.6853 125.766 92.5592 126.243 91.5897C126.736 90.6202 127.399 89.8745 128.235 89.3524C129.07 88.8304 130.002 88.5694 131.031 88.5694C131.911 88.5694 132.679 88.7484 133.336 89.1063C134.007 89.4643 134.521 89.9341 134.879 90.5158V88.7484H138.705V101.232H134.879V99.465C134.507 100.047 133.984 100.516 133.313 100.874C132.657 101.232 131.889 101.411 131.009 101.411C129.995 101.411 129.07 101.15 128.235 100.628C127.399 100.091 126.736 99.3382 126.243 98.3687C125.766 97.3843 125.528 96.2507 125.528 94.968ZM134.879 94.9904C134.879 94.0358 134.611 93.2826 134.074 92.7307C133.552 92.1789 132.911 91.9029 132.15 91.9029C131.389 91.9029 130.74 92.1789 130.203 92.7307C129.681 93.2677 129.42 94.0134 129.42 94.968C129.42 95.9226 129.681 96.6833 130.203 97.25C130.74 97.8019 131.389 98.0778 132.15 98.0778C132.911 98.0778 133.552 97.8019 134.074 97.25C134.611 96.6982 134.879 95.945 134.879 94.9904ZM148.431 97.9884V101.232H146.484C145.097 101.232 144.016 100.897 143.24 100.226C142.465 99.5395 142.077 98.4284 142.077 96.8921V91.9253H140.556V88.7484H142.077V85.7056H145.903V88.7484H148.409V91.9253H145.903V96.9368C145.903 97.3097 145.992 97.5782 146.171 97.7423C146.35 97.9063 146.649 97.9884 147.066 97.9884H148.431Z" fill="#283146"/>
</g>
<defs>
<filter id="filter0_d_54_470" x="-10.708" y="32.1499" width="190" height="110.333" filterUnits="userSpaceOnUse" color-interpolation-filters="sRGB">
<feFlood flood-opacity="0" result="BackgroundImageFix"/>
<feColorMatrix in="SourceAlpha" type="matrix" values="0 0 0 0 0 0 0 0 0 0 0 0 0 0 0 0 0 0 127 0" result="hardAlpha"/>
<feOffset dx="-5" dy="5"/>
<feGaussianBlur stdDeviation="10"/>
<feComposite in2="hardAlpha" operator="out"/>
<feColorMatrix type="matrix" values="0 0 0 0 0 0 0 0 0 0 0 0 0 0 0 0 0 0 0.1 0"/>
<feBlend mode="normal" in2="BackgroundImageFix" result="effect1_dropShadow_54_470"/>
<feBlend mode="normal" in="SourceGraphic" in2="effect1_dropShadow_54_470" result="shape"/>
</filter>
<filter id="filter1_f_54_470" x="89.843" y="-7.18824" width="111.628" height="111.628" filterUnits="userSpaceOnUse" color-interpolation-filters="sRGB">
<feFlood flood-opacity="0" result="BackgroundImageFix"/>
<feBlend mode="normal" in="SourceGraphic" in2="BackgroundImageFix" result="shape"/>
<feGaussianBlur stdDeviation="13.9535" result="effect1_foregroundBlur_54_470"/>
</filter>
<linearGradient id="paint0_linear_54_470" x1="145.657" y1="20.7188" x2="145.657" y2="76.5328" gradientUnits="userSpaceOnUse">
<stop stop-color="white"/>
<stop offset="1" stop-opacity="0"/>
</linearGradient>
<linearGradient id="paint1_linear_54_470" x1="149.843" y1="16.533" x2="149.843" y2="72.347" gradientUnits="userSpaceOnUse">
<stop stop-color="white"/>
<stop offset="1" stop-opacity="0"/>
</linearGradient>
<clipPath id="clip0_54_470">
<rect width="196" height="134" fill="white"/>
</clipPath>
</defs>
</svg>
