<svg width="196" height="134" viewBox="0 0 196 134" fill="none" xmlns="http://www.w3.org/2000/svg">
<g clip-path="url(#clip0_54_470)">
<g filter="url(#filter0_d_54_470)">
<rect x="14.292" y="47.1499" width="150" height="70.333" rx="9.1" fill="white"/>
</g>
<g opacity="0.4" filter="url(#filter1_f_54_470)">
<path d="M145.657 20.7188C130.244 20.7188 117.75 33.2131 117.75 48.6258C117.75 64.0384 130.244 76.5328 145.657 76.5328C161.07 76.5328 173.564 64.0384 173.564 48.6258C173.564 33.2131 161.07 20.7188 145.657 20.7188Z" fill="#266FF9"/>
<path d="M145.657 20.7188C130.244 20.7188 117.75 33.2131 117.75 48.6258C117.75 64.0384 130.244 76.5328 145.657 76.5328C161.07 76.5328 173.564 64.0384 173.564 48.6258C173.564 33.2131 161.07 20.7188 145.657 20.7188Z" fill="url(#paint0_linear_54_470)" fill-opacity="0.2"/>
</g>
<path d="M149.843 16.533C134.43 16.533 121.936 29.0273 121.936 44.44C121.936 59.8526 134.43 72.347 149.843 72.347C165.256 72.347 177.75 59.8526 177.75 44.44C177.75 29.0273 165.256 16.533 149.843 16.533Z" fill="#266FF9"/>
<path d="M149.843 16.533C134.43 16.533 121.936 29.0273 121.936 44.44C121.936 59.8526 134.43 72.347 149.843 72.347C165.256 72.347 177.75 59.8526 177.75 44.44C177.75 29.0273 165.256 16.533 149.843 16.533Z" fill="url(#paint1_linear_54_470)" fill-opacity="0.2"/>
<g filter="url(#filter2_d_54_470)">
<path d="M159.448 54.356C160.368 49.4366 162.177 38.778 162.595 34.3857C162.62 34.0204 162.605 33.6534 162.548 33.2916C162.515 33.0002 162.374 32.7317 162.153 32.5394C161.82 32.2693 161.306 32.2124 161.077 32.2162C160.032 32.2348 158.429 32.7922 150.715 36.0007C148.013 37.1246 142.614 39.4506 134.516 42.9785C133.201 43.5012 132.512 44.0127 132.45 44.513C132.344 45.3583 133.402 45.6912 134.844 46.1444C135.04 46.2061 135.243 46.2699 135.451 46.3376C136.87 46.7988 138.777 47.3381 139.769 47.3594C140.669 47.3789 141.673 47.008 142.781 46.2468C150.347 41.1397 154.253 38.5584 154.498 38.5027C154.671 38.4636 154.91 38.4149 155.073 38.5587C155.236 38.7025 155.219 38.9763 155.202 39.0497C155.097 39.4968 150.942 43.3602 148.791 45.3594C148.121 45.9825 147.646 46.4245 147.549 46.5255C147.331 46.752 147.108 46.9662 146.895 47.1721C145.578 48.4423 144.59 49.3945 146.95 50.9496C148.085 51.6974 148.993 52.3157 149.899 52.9326C150.887 53.6058 151.873 54.2773 153.149 55.1136C153.474 55.3267 153.785 55.548 154.087 55.7636C155.238 56.5841 156.272 57.3213 157.549 57.2037C158.292 57.1355 159.058 56.4374 159.448 54.356Z" fill="white"/>
</g>
<path opacity="0.5" d="M33.344 69.689V73.757C33.344 74.157 33.42 74.433 33.572 74.585C33.724 74.737 33.992 74.813 34.376 74.813H35.144V75.533H34.244C33.652 75.533 33.212 75.397 32.924 75.125C32.636 74.845 32.492 74.389 32.492 73.757V69.689H31.58V68.981H32.492V67.337H33.344V68.981H35.144V69.689H33.344ZM42.4573 71.921C42.4573 72.209 42.4493 72.429 42.4333 72.581H36.9973C37.0213 73.077 37.1413 73.501 37.3573 73.853C37.5733 74.205 37.8573 74.473 38.2093 74.657C38.5613 74.833 38.9453 74.921 39.3613 74.921C39.9053 74.921 40.3613 74.789 40.7293 74.525C41.1053 74.261 41.3533 73.905 41.4733 73.457H42.3613C42.2013 74.097 41.8573 74.621 41.3293 75.029C40.8093 75.429 40.1533 75.629 39.3613 75.629C38.7453 75.629 38.1933 75.493 37.7053 75.221C37.2173 74.941 36.8333 74.549 36.5533 74.045C36.2813 73.533 36.1453 72.937 36.1453 72.257C36.1453 71.577 36.2813 70.981 36.5533 70.469C36.8253 69.957 37.2053 69.565 37.6933 69.293C38.1813 69.021 38.7373 68.885 39.3613 68.885C39.9853 68.885 40.5293 69.021 40.9933 69.293C41.4653 69.565 41.8253 69.933 42.0733 70.397C42.3293 70.853 42.4573 71.361 42.4573 71.921ZM41.6053 71.897C41.6133 71.409 41.5133 70.993 41.3053 70.649C41.1053 70.305 40.8293 70.045 40.4773 69.869C40.1253 69.693 39.7413 69.605 39.3253 69.605C38.7013 69.605 38.1693 69.805 37.7293 70.205C37.2893 70.605 37.0453 71.169 36.9973 71.897H41.6053ZM44.8342 66.653V75.533H43.9942V66.653H44.8342ZM52.6644 71.921C52.6644 72.209 52.6564 72.429 52.6404 72.581H47.2044C47.2284 73.077 47.3484 73.501 47.5644 73.853C47.7804 74.205 48.0644 74.473 48.4164 74.657C48.7684 74.833 49.1524 74.921 49.5684 74.921C50.1124 74.921 50.5684 74.789 50.9364 74.525C51.3124 74.261 51.5604 73.905 51.6804 73.457H52.5684C52.4084 74.097 52.0644 74.621 51.5364 75.029C51.0164 75.429 50.3604 75.629 49.5684 75.629C48.9524 75.629 48.4004 75.493 47.9124 75.221C47.4244 74.941 47.0404 74.549 46.7604 74.045C46.4884 73.533 46.3524 72.937 46.3524 72.257C46.3524 71.577 46.4884 70.981 46.7604 70.469C47.0324 69.957 47.4124 69.565 47.9004 69.293C48.3884 69.021 48.9444 68.885 49.5684 68.885C50.1924 68.885 50.7364 69.021 51.2004 69.293C51.6724 69.565 52.0324 69.933 52.2804 70.397C52.5364 70.853 52.6644 71.361 52.6644 71.921ZM51.8124 71.897C51.8204 71.409 51.7204 70.993 51.5124 70.649C51.3124 70.305 51.0364 70.045 50.6844 69.869C50.3324 69.693 49.9484 69.605 49.5324 69.605C48.9084 69.605 48.3764 69.805 47.9364 70.205C47.4964 70.605 47.2524 71.169 47.2044 71.897H51.8124ZM56.9492 68.885C57.5652 68.885 58.1012 69.029 58.5572 69.317C59.0132 69.605 59.3412 69.969 59.5412 70.409V68.981H60.3812V75.701C60.3812 76.301 60.2492 76.833 59.9852 77.297C59.7292 77.761 59.3692 78.117 58.9052 78.365C58.4412 78.621 57.9132 78.749 57.3212 78.749C56.4812 78.749 55.7812 78.549 55.2212 78.149C54.6692 77.749 54.3252 77.205 54.1892 76.517H55.0172C55.1612 76.973 55.4332 77.337 55.8332 77.609C56.2412 77.881 56.7372 78.017 57.3212 78.017C57.7452 78.017 58.1252 77.925 58.4612 77.741C58.7972 77.565 59.0612 77.301 59.2532 76.949C59.4452 76.597 59.5412 76.181 59.5412 75.701V74.081C59.3332 74.529 59.0012 74.901 58.5452 75.197C58.0972 75.485 57.5652 75.629 56.9492 75.629C56.3492 75.629 55.8092 75.489 55.3292 75.209C54.8572 74.929 54.4852 74.533 54.2132 74.021C53.9492 73.509 53.8172 72.917 53.8172 72.245C53.8172 71.573 53.9492 70.985 54.2132 70.481C54.4852 69.969 54.8572 69.577 55.3292 69.305C55.8092 69.025 56.3492 68.885 56.9492 68.885ZM59.5412 72.257C59.5412 71.729 59.4332 71.265 59.2172 70.865C59.0012 70.465 58.7052 70.157 58.3292 69.941C57.9612 69.725 57.5532 69.617 57.1052 69.617C56.6412 69.617 56.2252 69.721 55.8572 69.929C55.4892 70.137 55.1972 70.441 54.9812 70.841C54.7732 71.233 54.6692 71.701 54.6692 72.245C54.6692 72.781 54.7732 73.253 54.9812 73.661C55.1972 74.061 55.4892 74.369 55.8572 74.585C56.2252 74.793 56.6412 74.897 57.1052 74.897C57.5532 74.897 57.9612 74.789 58.3292 74.573C58.7052 74.357 59.0012 74.049 59.2172 73.649C59.4332 73.249 59.5412 72.785 59.5412 72.257ZM63.1389 70.145C63.3229 69.737 63.6029 69.421 63.9789 69.197C64.3629 68.973 64.8309 68.861 65.3829 68.861V69.737H65.1549C64.5469 69.737 64.0589 69.901 63.6909 70.229C63.3229 70.557 63.1389 71.105 63.1389 71.873V75.533H62.2989V68.981H63.1389V70.145ZM66.2625 72.245C66.2625 71.573 66.3945 70.985 66.6585 70.481C66.9305 69.969 67.3025 69.577 67.7745 69.305C68.2545 69.025 68.7945 68.885 69.3945 68.885C70.0185 68.885 70.5545 69.029 71.0025 69.317C71.4585 69.605 71.7865 69.973 71.9865 70.421V68.981H72.8265V75.533H71.9865V74.081C71.7785 74.529 71.4465 74.901 70.9905 75.197C70.5425 75.485 70.0065 75.629 69.3825 75.629C68.7905 75.629 68.2545 75.489 67.7745 75.209C67.3025 74.929 66.9305 74.533 66.6585 74.021C66.3945 73.509 66.2625 72.917 66.2625 72.245ZM71.9865 72.257C71.9865 71.729 71.8785 71.265 71.6625 70.865C71.4465 70.465 71.1505 70.157 70.7745 69.941C70.4065 69.725 69.9985 69.617 69.5505 69.617C69.0865 69.617 68.6705 69.721 68.3025 69.929C67.9345 70.137 67.6425 70.441 67.4265 70.841C67.2185 71.233 67.1145 71.701 67.1145 72.245C67.1145 72.781 67.2185 73.253 67.4265 73.661C67.6425 74.061 67.9345 74.369 68.3025 74.585C68.6705 74.793 69.0865 74.897 69.5505 74.897C69.9985 74.897 70.4065 74.789 70.7745 74.573C71.1505 74.357 71.4465 74.049 71.6625 73.649C71.8785 73.249 71.9865 72.785 71.9865 72.257ZM82.5442 68.861C83.3122 68.861 83.9362 69.105 84.4162 69.593C84.9042 70.073 85.1482 70.773 85.1482 71.693V75.533H84.3202V71.789C84.3202 71.077 84.1482 70.533 83.8042 70.157C83.4602 69.781 82.9922 69.593 82.4002 69.593C81.7842 69.593 81.2922 69.797 80.9242 70.205C80.5562 70.613 80.3722 71.205 80.3722 71.981V75.533H79.5442V71.789C79.5442 71.077 79.3722 70.533 79.0282 70.157C78.6842 69.781 78.2122 69.593 77.6122 69.593C76.9962 69.593 76.5042 69.797 76.1362 70.205C75.7682 70.613 75.5842 71.205 75.5842 71.981V75.533H74.7442V68.981H75.5842V70.109C75.7922 69.701 76.0882 69.393 76.4722 69.185C76.8562 68.969 77.2842 68.861 77.7562 68.861C78.3242 68.861 78.8202 68.997 79.2442 69.269C79.6762 69.541 79.9882 69.941 80.1802 70.469C80.3562 69.949 80.6562 69.553 81.0802 69.281C81.5122 69.001 82.0002 68.861 82.5442 68.861ZM87.1577 75.593C86.9817 75.593 86.8337 75.533 86.7137 75.413C86.6017 75.293 86.5457 75.145 86.5457 74.969C86.5457 74.793 86.6017 74.649 86.7137 74.537C86.8337 74.417 86.9817 74.357 87.1577 74.357C87.3257 74.357 87.4657 74.417 87.5777 74.537C87.6977 74.649 87.7577 74.793 87.7577 74.969C87.7577 75.145 87.6977 75.293 87.5777 75.413C87.4657 75.533 87.3257 75.593 87.1577 75.593ZM96.9934 68.861C97.7614 68.861 98.3854 69.105 98.8654 69.593C99.3534 70.073 99.5974 70.773 99.5974 71.693V75.533H98.7694V71.789C98.7694 71.077 98.5974 70.533 98.2534 70.157C97.9094 69.781 97.4414 69.593 96.8494 69.593C96.2334 69.593 95.7414 69.797 95.3734 70.205C95.0054 70.613 94.8214 71.205 94.8214 71.981V75.533H93.9934V71.789C93.9934 71.077 93.8214 70.533 93.4774 70.157C93.1334 69.781 92.6614 69.593 92.0614 69.593C91.4454 69.593 90.9534 69.797 90.5854 70.205C90.2174 70.613 90.0334 71.205 90.0334 71.981V75.533H89.1934V68.981H90.0334V70.109C90.2414 69.701 90.5374 69.393 90.9214 69.185C91.3054 68.969 91.7334 68.861 92.2054 68.861C92.7734 68.861 93.2694 68.997 93.6934 69.269C94.1254 69.541 94.4374 69.941 94.6294 70.469C94.8054 69.949 95.1054 69.553 95.5294 69.281C95.9614 69.001 96.4494 68.861 96.9934 68.861ZM107.391 71.921C107.391 72.209 107.383 72.429 107.367 72.581H101.931C101.955 73.077 102.075 73.501 102.291 73.853C102.507 74.205 102.791 74.473 103.143 74.657C103.495 74.833 103.879 74.921 104.295 74.921C104.839 74.921 105.295 74.789 105.663 74.525C106.039 74.261 106.287 73.905 106.407 73.457H107.295C107.135 74.097 106.791 74.621 106.263 75.029C105.743 75.429 105.087 75.629 104.295 75.629C103.679 75.629 103.127 75.493 102.639 75.221C102.151 74.941 101.767 74.549 101.487 74.045C101.215 73.533 101.079 72.937 101.079 72.257C101.079 71.577 101.215 70.981 101.487 70.469C101.759 69.957 102.139 69.565 102.627 69.293C103.115 69.021 103.671 68.885 104.295 68.885C104.919 68.885 105.463 69.021 105.927 69.293C106.399 69.565 106.759 69.933 107.007 70.397C107.263 70.853 107.391 71.361 107.391 71.921ZM106.539 71.897C106.547 71.409 106.447 70.993 106.239 70.649C106.039 70.305 105.763 70.045 105.411 69.869C105.059 69.693 104.675 69.605 104.259 69.605C103.635 69.605 103.103 69.805 102.663 70.205C102.223 70.605 101.979 71.169 101.931 71.897H106.539ZM112.66 64.253L109.348 77.525H108.52L111.808 64.253H112.66Z" fill="#283146"/>
<path d="M34.0801 87.6217V90.5398H38.7861V93.2524H34.0801V96.4171H39.4026V99.2324H30.5661V84.8063H39.4026V87.6217H34.0801ZM45.198 89.6767C45.609 89.0465 46.1228 88.5533 46.7393 88.1971C47.3558 87.8272 48.0408 87.6422 48.7943 87.6422V91.3618H47.8284C46.9516 91.3618 46.294 91.5536 45.8556 91.9372C45.4172 92.3071 45.198 92.9647 45.198 93.91V99.2324H41.684V87.7655H45.198V89.6767ZM56.2279 90.6836H54.3373V99.2324H50.8233V90.6836H49.5492V87.7655H50.8233V87.4367C50.8233 86.0256 51.2274 84.957 52.0357 84.2309C52.844 83.4911 54.0291 83.1212 55.5909 83.1212C55.8512 83.1212 56.043 83.1281 56.1663 83.1418V86.1215C55.495 86.0804 55.0223 86.1763 54.7483 86.4092C54.4743 86.6421 54.3373 87.06 54.3373 87.6628V87.7655H56.2279V90.6836ZM57.1804 93.4784C57.1804 92.3002 57.3996 91.2659 57.838 90.3754C58.2901 89.4849 58.8998 88.7999 59.667 88.3204C60.4342 87.8409 61.2904 87.6011 62.2357 87.6011C63.044 87.6011 63.7496 87.7655 64.3524 88.0943C64.9689 88.4231 65.4415 88.8547 65.7703 89.389V87.7655H69.2844V99.2324H65.7703V97.609C65.4278 98.1433 64.9483 98.5748 64.3318 98.9036C63.729 99.2324 63.0235 99.3968 62.2152 99.3968C61.2836 99.3968 60.4342 99.1571 59.667 98.6776C58.8998 98.1844 58.2901 97.4925 57.838 96.602C57.3996 95.6978 57.1804 94.6566 57.1804 93.4784ZM65.7703 93.499C65.7703 92.6222 65.5237 91.9303 65.0305 91.4234C64.551 90.9165 63.9619 90.6631 63.2632 90.6631C62.5645 90.6631 61.9686 90.9165 61.4754 91.4234C60.9959 91.9166 60.7561 92.6016 60.7561 93.4784C60.7561 94.3552 60.9959 95.0539 61.4754 95.5745C61.9686 96.0814 62.5645 96.3349 63.2632 96.3349C63.9619 96.3349 64.551 96.0814 65.0305 95.5745C65.5237 95.0676 65.7703 94.3758 65.7703 93.499ZM78.8136 87.6422C80.1562 87.6422 81.2248 88.0806 82.0194 88.9574C82.8277 89.8205 83.2319 91.0124 83.2319 92.5331V99.2324H79.7384V93.0058C79.7384 92.2386 79.5397 91.6426 79.1424 91.2179C78.7451 90.7932 78.2108 90.5809 77.5395 90.5809C76.8682 90.5809 76.3339 90.7932 75.9366 91.2179C75.5393 91.6426 75.3407 92.2386 75.3407 93.0058V99.2324H71.8266V87.7655H75.3407V89.2862C75.6969 88.7793 76.1764 88.382 76.7792 88.0943C77.382 87.7929 78.0601 87.6422 78.8136 87.6422ZM90.8935 99.3763C89.8386 99.3763 88.8933 99.205 88.0576 98.8625C87.2219 98.52 86.5506 98.0131 86.0437 97.3418C85.5505 96.6705 85.2902 95.8622 85.2628 94.9169H89.0029C89.0577 95.4512 89.2427 95.8622 89.5578 96.1499C89.8729 96.4239 90.2839 96.5609 90.7908 96.5609C91.3114 96.5609 91.7224 96.4445 92.0238 96.2116C92.3252 95.965 92.4759 95.6293 92.4759 95.2046C92.4759 94.8484 92.3526 94.5539 92.106 94.321C91.8731 94.0881 91.5785 93.8963 91.2223 93.7456C90.8798 93.5949 90.3866 93.4236 89.7427 93.2318C88.8111 92.9441 88.0508 92.6564 87.4617 92.3687C86.8726 92.081 86.3657 91.6563 85.941 91.0946C85.5163 90.5329 85.3039 89.8 85.3039 88.8958C85.3039 87.5532 85.7903 86.5051 86.763 85.7516C87.7357 84.9844 89.0029 84.6008 90.5647 84.6008C92.1539 84.6008 93.4349 84.9844 94.4076 85.7516C95.3803 86.5051 95.9009 87.56 95.9694 88.9163H92.1676C92.1402 88.4505 91.969 88.0875 91.6539 87.8272C91.3388 87.5532 90.9346 87.4162 90.4414 87.4162C90.0167 87.4162 89.6742 87.5326 89.4139 87.7655C89.1536 87.9847 89.0235 88.3067 89.0235 88.7314C89.0235 89.1972 89.2427 89.5602 89.6811 89.8205C90.1195 90.0808 90.8045 90.3617 91.7361 90.6631C92.6677 90.9782 93.4212 91.2796 93.9966 91.5673C94.5857 91.855 95.0926 92.2728 95.5173 92.8208C95.942 93.3688 96.1543 94.0744 96.1543 94.9375C96.1543 95.7595 95.942 96.5061 95.5173 97.1774C95.1063 97.8487 94.5035 98.383 93.7089 98.7803C92.9143 99.1776 91.9758 99.3763 90.8935 99.3763ZM109.126 93.314C109.126 93.6428 109.106 93.9853 109.065 94.3415H101.112C101.166 95.0539 101.393 95.6019 101.79 95.9855C102.201 96.3554 102.701 96.5404 103.29 96.5404C104.167 96.5404 104.776 96.1705 105.119 95.4307H108.859C108.667 96.1842 108.318 96.8623 107.811 97.4651C107.318 98.0679 106.694 98.5406 105.941 98.8831C105.187 99.2256 104.345 99.3968 103.413 99.3968C102.29 99.3968 101.29 99.1571 100.413 98.6776C99.5362 98.1981 98.8512 97.5131 98.358 96.6226C97.8648 95.7321 97.6182 94.6909 97.6182 93.499C97.6182 92.3071 97.8579 91.2659 98.3374 90.3754C98.8306 89.4849 99.5156 88.7999 100.392 88.3204C101.269 87.8409 102.276 87.6011 103.413 87.6011C104.523 87.6011 105.509 87.834 106.372 88.2998C107.236 88.7656 107.907 89.4301 108.386 90.2932C108.88 91.1563 109.126 92.1632 109.126 93.314ZM105.53 92.3893C105.53 91.7865 105.324 91.307 104.913 90.9508C104.502 90.5946 103.989 90.4165 103.372 90.4165C102.783 90.4165 102.283 90.5877 101.872 90.9302C101.475 91.2727 101.228 91.7591 101.132 92.3893H105.53ZM116.734 90.6836H114.843V99.2324H111.329V90.6836H110.055V87.7655H111.329V87.4367C111.329 86.0256 111.734 84.957 112.542 84.2309C113.35 83.4911 114.535 83.1212 116.097 83.1212C116.357 83.1212 116.549 83.1281 116.672 83.1418V86.1215C116.001 86.0804 115.528 86.1763 115.254 86.4092C114.98 86.6421 114.843 87.06 114.843 87.6628V87.7655H116.734V90.6836ZM117.687 93.4784C117.687 92.3002 117.906 91.2659 118.344 90.3754C118.796 89.4849 119.406 88.7999 120.173 88.3204C120.94 87.8409 121.797 87.6011 122.742 87.6011C123.55 87.6011 124.256 87.7655 124.858 88.0943C125.475 88.4231 125.948 88.8547 126.276 89.389V87.7655H129.79V99.2324H126.276V97.609C125.934 98.1433 125.454 98.5748 124.838 98.9036C124.235 99.2324 123.53 99.3968 122.721 99.3968C121.79 99.3968 120.94 99.1571 120.173 98.6776C119.406 98.1844 118.796 97.4925 118.344 96.602C117.906 95.6978 117.687 94.6566 117.687 93.4784ZM126.276 93.499C126.276 92.6222 126.03 91.9303 125.537 91.4234C125.057 90.9165 124.468 90.6631 123.769 90.6631C123.071 90.6631 122.475 90.9165 121.981 91.4234C121.502 91.9166 121.262 92.6016 121.262 93.4784C121.262 94.3552 121.502 95.0539 121.981 95.5745C122.475 96.0814 123.071 96.3349 123.769 96.3349C124.468 96.3349 125.057 96.0814 125.537 95.5745C126.03 95.0676 126.276 94.3758 126.276 93.499ZM138.724 96.2527V99.2324H136.936C135.662 99.2324 134.669 98.9242 133.956 98.3077C133.244 97.6775 132.888 96.6568 132.888 95.2457V90.6836H131.49V87.7655H132.888V84.9707H136.402V87.7655H138.703V90.6836H136.402V95.2868C136.402 95.6293 136.484 95.8759 136.648 96.0266C136.813 96.1773 137.087 96.2527 137.47 96.2527H138.724Z" fill="#283146"/>
</g>
<defs>
<filter id="filter0_d_54_470" x="-10.708" y="32.1499" width="190" height="110.333" filterUnits="userSpaceOnUse" color-interpolation-filters="sRGB">
<feFlood flood-opacity="0" result="BackgroundImageFix"/>
<feColorMatrix in="SourceAlpha" type="matrix" values="0 0 0 0 0 0 0 0 0 0 0 0 0 0 0 0 0 0 127 0" result="hardAlpha"/>
<feOffset dx="-5" dy="5"/>
<feGaussianBlur stdDeviation="10"/>
<feComposite in2="hardAlpha" operator="out"/>
<feColorMatrix type="matrix" values="0 0 0 0 0 0 0 0 0 0 0 0 0 0 0 0 0 0 0.1 0"/>
<feBlend mode="normal" in2="BackgroundImageFix" result="effect1_dropShadow_54_470"/>
<feBlend mode="normal" in="SourceGraphic" in2="effect1_dropShadow_54_470" result="shape"/>
</filter>
<filter id="filter1_f_54_470" x="89.843" y="-7.18824" width="111.628" height="111.628" filterUnits="userSpaceOnUse" color-interpolation-filters="sRGB">
<feFlood flood-opacity="0" result="BackgroundImageFix"/>
<feBlend mode="normal" in="SourceGraphic" in2="BackgroundImageFix" result="shape"/>
<feGaussianBlur stdDeviation="13.9535" result="effect1_foregroundBlur_54_470"/>
</filter>
<filter id="filter2_d_54_470" x="128.442" y="32.2161" width="38.1646" height="33" filterUnits="userSpaceOnUse" color-interpolation-filters="sRGB">
<feFlood flood-opacity="0" result="BackgroundImageFix"/>
<feColorMatrix in="SourceAlpha" type="matrix" values="0 0 0 0 0 0 0 0 0 0 0 0 0 0 0 0 0 0 127 0" result="hardAlpha"/>
<feOffset dy="4"/>
<feGaussianBlur stdDeviation="2"/>
<feComposite in2="hardAlpha" operator="out"/>
<feColorMatrix type="matrix" values="0 0 0 0 0 0 0 0 0 0 0 0 0 0 0 0 0 0 0.25 0"/>
<feBlend mode="normal" in2="BackgroundImageFix" result="effect1_dropShadow_54_470"/>
<feBlend mode="normal" in="SourceGraphic" in2="effect1_dropShadow_54_470" result="shape"/>
</filter>
<linearGradient id="paint0_linear_54_470" x1="145.657" y1="20.7188" x2="145.657" y2="76.5328" gradientUnits="userSpaceOnUse">
<stop stop-color="white"/>
<stop offset="1" stop-opacity="0"/>
</linearGradient>
<linearGradient id="paint1_linear_54_470" x1="149.843" y1="16.533" x2="149.843" y2="72.347" gradientUnits="userSpaceOnUse">
<stop stop-color="white"/>
<stop offset="1" stop-opacity="0"/>
</linearGradient>
<clipPath id="clip0_54_470">
<rect width="196" height="134" fill="white"/>
</clipPath>
</defs>
</svg>
